SplineFontDB: 3.2
FontName: IRYekan
FullName: IRYekan
FamilyName: IRYekan
Weight: Book
Copyright: Copyright (c) 2022, Information Technology Organization of Iran (ito.gov.ir)
Version: 1.001
ItalicAngle: 0
UnderlinePosition: -100
UnderlineWidth: 60
Ascent: 1638
Descent: 410
InvalidEm: 0
sfntRevision: 0x00010042
LayerCount: 2
Layer: 0 1 "Back" 1
Layer: 1 1 "Fore" 0
XUID: [1021 420 722297922 7077523]
StyleMap: 0x0040
FSType: 0
OS2Version: 3
OS2_WeightWidthSlopeOnly: 0
OS2_UseTypoMetrics: 0
CreationTime: 1356426061
ModificationTime: 1662630946
PfmFamily: 17
TTFWeight: 400
TTFWidth: 5
LineGap: 100
VLineGap: 0
Panose: 2 0 5 6 0 0 0 2 0 2
OS2TypoAscent: 2616
OS2TypoAOffset: 0
OS2TypoDescent: -1334
OS2TypoDOffset: 0
OS2TypoLinegap: 1500
OS2WinAscent: 2616
OS2WinAOffset: 0
OS2WinDescent: 1334
OS2WinDOffset: 0
HheadAscent: 2616
HheadAOffset: 0
HheadDescent: -1334
HheadDOffset: 0
OS2SubXSize: 1434
OS2SubYSize: 1331
OS2SubXOff: 0
OS2SubYOff: 293
OS2SupXSize: 1434
OS2SupYSize: 1331
OS2SupXOff: 0
OS2SupYOff: 930
OS2StrikeYSize: 50
OS2StrikeYPos: 250
OS2CapHeight: 2625
OS2XHeight: 436
OS2FamilyClass: 2048
OS2Vendor: 'PARS'
OS2CodePages: 20000041.00000000
OS2UnicodeRanges: 00002003.00000000.00000000.00000000
Lookup: 1 1 0 "'isol' Isolated Forms in Arabic lookup 0" { "'isol' Isolated Forms in Arabic lookup 0 subtable"  } ['isol' ('arab' <'dflt' > ) ]
Lookup: 1 1 0 "'init' Initial Forms in Arabic lookup 1" { "'init' Initial Forms in Arabic lookup 1 subtable"  } ['init' ('arab' <'dflt' > ) ]
Lookup: 1 1 0 "'fina' Terminal Forms in Arabic lookup 2" { "'fina' Terminal Forms in Arabic lookup 2 subtable"  } ['fina' ('arab' <'dflt' > ) ]
Lookup: 1 1 0 "'medi' Medial Forms in Arabic lookup 3" { "'medi' Medial Forms in Arabic lookup 3 subtable"  } ['medi' ('arab' <'dflt' > ) ]
Lookup: 4 1 0 "'ccmp' Glyph Composition/Decomposition in Arabic lookup 4" { "'ccmp' Glyph Composition/Decomposition in Arabic lookup 4 subtable"  } ['ccmp' ('arab' <'dflt' > ) ]

StartChar: quotedbl
Encoding: 34 34 4
Width: 1022
Flags: W
LayerCount: 2
Fore
SplineSet
231 1393 m 0,0,1
 231 1474 231 1474 315 1474 c 0,2,3
 357 1472 357 1472 377.5 1448 c 128,-1,4
 398 1424 398 1424 398 1393 c 0,5,6
 398 1313 398 1313 377 1165.5 c 128,-1,7
 356 1018 356 1018 356 945 c 1,8,-1
 270 945 l 1,9,10
 270 1018 270 1018 250.5 1165.5 c 128,-1,11
 231 1313 231 1313 231 1393 c 0,0,1
531 1393 m 0,12,13
 531 1474 531 1474 615 1474 c 0,14,15
 657 1472 657 1472 677.5 1448 c 128,-1,16
 698 1424 698 1424 698 1393 c 0,17,18
 698 1313 698 1313 677 1165.5 c 128,-1,19
 656 1018 656 1018 656 945 c 1,20,-1
 570 945 l 1,21,22
 570 1018 570 1018 550.5 1165.5 c 128,-1,23
 531 1313 531 1313 531 1393 c 0,12,13
EndSplineSet
EndChar

StartChar: quotesingle
Encoding: 39 39 5
Width: 586
Flags: W
LayerCount: 2
Fore
SplineSet
231 1393 m 0,0,1
 231 1474 231 1474 315 1474 c 0,2,3
 357 1472 357 1472 377.5 1448 c 128,-1,4
 398 1424 398 1424 398 1393 c 0,5,6
 398 1313 398 1313 377 1165.5 c 128,-1,7
 356 1018 356 1018 356 945 c 1,8,-1
 270 945 l 1,9,10
 270 1018 270 1018 250.5 1165.5 c 128,-1,11
 231 1313 231 1313 231 1393 c 0,0,1
EndSplineSet
EndChar

StartChar: asterisk
Encoding: 42 42 6
Width: 1126
Flags: W
LayerCount: 2
Fore
SplineSet
568 347 m 1,0,-1
 574 687 l 1,1,-1
 355 467 l 1,2,-1
 250 467 l 1,3,-1
 527 746 l 1,4,-1
 203 746 l 1,5,-1
 223 839 l 1,6,-1
 547 839 l 1,7,-1
 277 1104 l 1,8,-1
 370 1104 l 1,9,-1
 579 899 l 1,10,-1
 585 1199 l 1,11,-1
 704 1239 l 1,12,-1
 699 912 l 1,13,-1
 905 1104 l 1,14,-1
 1013 1104 l 1,15,-1
 730 839 l 1,16,-1
 1065 839 l 1,17,-1
 1043 746 l 1,18,-1
 729 746 l 1,19,-1
 1002 467 l 1,20,-1
 910 467 l 1,21,-1
 696 687 l 1,22,-1
 688 386 l 1,23,-1
 568 347 l 1,0,-1
EndSplineSet
EndChar

StartChar: plus
Encoding: 43 43 7
Width: 1253
GlyphClass: 2
Flags: W
LayerCount: 2
Fore
SplineSet
546 181 m 1,0,-1
 546 578 l 1,1,-1
 149 578 l 1,2,-1
 149 745 l 1,3,-1
 546 745 l 1,4,-1
 546 1141 l 1,5,-1
 713 1141 l 1,6,-1
 713 745 l 1,7,-1
 1109 745 l 1,8,-1
 1109 578 l 1,9,-1
 713 578 l 1,10,-1
 713 181 l 1,11,-1
 546 181 l 1,0,-1
EndSplineSet
EndChar

StartChar: hyphen
Encoding: 45 45 8
Width: 1255
Flags: W
LayerCount: 2
Fore
SplineSet
149 578 m 1,0,-1
 149 745 l 1,1,-1
 1109 745 l 1,2,-1
 1109 578 l 1,3,-1
 149 578 l 1,0,-1
EndSplineSet
EndChar

StartChar: period
Encoding: 46 46 9
Width: 681
GlyphClass: 2
Flags: W
LayerCount: 2
Fore
SplineSet
211 168 m 0,0,1
 211 238 211 238 260 288 c 128,-1,2
 309 338 309 338 377 338 c 0,3,4
 446 338 446 338 496.5 288 c 128,-1,5
 547 238 547 238 547 168 c 0,6,7
 547 100 547 100 496.5 51 c 128,-1,8
 446 2 446 2 377 2 c 0,9,10
 309 2 309 2 260 51 c 128,-1,11
 211 100 211 100 211 168 c 0,0,1
EndSplineSet
EndChar

StartChar: slash
Encoding: 47 47 10
Width: 1032
Flags: W
LayerCount: 2
Fore
SplineSet
942 1185 m 1,0,-1
 285 -5 l 1,1,-1
 108 -5 l 1,2,-1
 757 1185 l 1,3,-1
 942 1185 l 1,0,-1
EndSplineSet
EndChar

StartChar: less
Encoding: 60 60 11
Width: 1117
Flags: W
LayerCount: 2
Fore
SplineSet
955 58 m 1,0,-1
 150 444 l 1,1,-1
 150 534 l 1,2,-1
 955 918 l 1,3,-1
 955 784 l 1,4,-1
 331 489 l 1,5,-1
 955 192 l 1,6,-1
 955 58 l 1,0,-1
EndSplineSet
EndChar

StartChar: equal
Encoding: 61 61 12
Width: 1157
Flags: W
LayerCount: 2
Fore
SplineSet
82 866 m 1,0,-1
 1067 866 l 1,1,-1
 1067 698 l 1,2,-1
 82 698 l 1,3,-1
 82 866 l 1,0,-1
82 560 m 1,4,-1
 1067 560 l 1,5,-1
 1067 392 l 1,6,-1
 82 392 l 1,7,-1
 82 560 l 1,4,-1
EndSplineSet
EndChar

StartChar: greater
Encoding: 62 62 13
Width: 1117
Flags: W
LayerCount: 2
Fore
SplineSet
966 444 m 1,0,-1
 160 58 l 1,1,-1
 160 192 l 1,2,-1
 786 489 l 1,3,-1
 160 784 l 1,4,-1
 160 918 l 1,5,-1
 966 534 l 1,6,-1
 966 444 l 1,0,-1
EndSplineSet
EndChar

StartChar: bracketleft
Encoding: 91 91 14
Width: 455
GlyphClass: 2
Flags: W
LayerCount: 2
Fore
SplineSet
111 1173 m 1,0,-1
 430 1173 l 1,1,-1
 430 1054 l 1,2,-1
 255 1054 l 1,3,-1
 255 -206 l 1,4,-1
 430 -206 l 1,5,-1
 430 -326 l 1,6,-1
 111 -326 l 1,7,-1
 111 1173 l 1,0,-1
EndSplineSet
EndChar

StartChar: bracketright
Encoding: 93 93 15
Width: 455
GlyphClass: 2
Flags: W
LayerCount: 2
Fore
SplineSet
31 -326 m 1,0,-1
 31 -206 l 1,1,-1
 205 -206 l 1,2,-1
 205 1054 l 1,3,-1
 31 1054 l 1,4,-1
 31 1173 l 1,5,-1
 349 1173 l 1,6,-1
 349 -326 l 1,7,-1
 31 -326 l 1,0,-1
EndSplineSet
EndChar

StartChar: braceleft
Encoding: 123 123 17
Width: 547
GlyphClass: 2
Flags: W
LayerCount: 2
Fore
SplineSet
46 490 m 1,0,1
 106 491 106 491 146 522.5 c 128,-1,2
 186 554 186 554 197 610 c 0,3,4
 203 638 203 638 206.5 685 c 128,-1,5
 210 732 210 732 210 798 c 0,6,7
 211 933 211 933 216 975 c 0,8,9
 221 1024 221 1024 233 1059.5 c 128,-1,10
 245 1095 245 1095 263.5 1120 c 128,-1,11
 282 1145 282 1145 307.5 1160.5 c 128,-1,12
 333 1176 333 1176 366 1185 c 0,13,14
 396 1193 396 1193 464 1193 c 2,15,-1
 510 1193 l 1,16,-1
 510 1066 l 1,17,-1
 483 1066 l 2,18,19
 443 1066 443 1066 415 1059 c 128,-1,20
 387 1052 387 1052 374 1037 c 0,21,22
 346 1009 346 1009 346 902 c 0,23,24
 346 797 346 797 343.5 731.5 c 128,-1,25
 341 666 341 666 338 639 c 0,26,27
 323 555 323 555 288 506 c 0,28,29
 271 483 271 483 244 463 c 128,-1,30
 217 443 217 443 178 424 c 1,31,32
 266 389 266 389 306 311 c 0,33,34
 346 237 346 237 346 64 c 0,35,36
 346 -92 346 -92 349 -122 c 0,37,38
 352 -149 352 -149 359 -167.5 c 128,-1,39
 366 -186 366 -186 381 -197.5 c 128,-1,40
 396 -209 396 -209 420.5 -214 c 128,-1,41
 445 -219 445 -219 483 -219 c 2,42,-1
 510 -219 l 1,43,-1
 510 -344 l 1,44,-1
 464 -344 l 2,45,46
 424 -344 424 -344 396 -341.5 c 128,-1,47
 368 -339 368 -339 350 -333 c 0,48,49
 299 -313 299 -313 265.5 -272 c 128,-1,50
 232 -231 232 -231 221 -167 c 0,51,52
 216 -136 216 -136 213.5 -85 c 128,-1,53
 211 -34 211 -34 210 39 c 0,54,55
 210 112 210 112 206.5 161.5 c 128,-1,56
 203 211 203 211 197 238 c 0,57,58
 185 292 185 292 146 325 c 0,59,60
 108 356 108 356 46 359 c 1,61,-1
 46 490 l 1,62,-1
 46 490 l 1,0,1
EndSplineSet
EndChar

StartChar: bar
Encoding: 124 124 18
Width: 426
Flags: W
LayerCount: 2
Fore
SplineSet
150 1193 m 1,0,-1
 275 1193 l 1,1,-1
 275 -344 l 1,2,-1
 150 -344 l 1,3,-1
 150 1193 l 1,0,-1
EndSplineSet
EndChar

StartChar: asciitilde
Encoding: 126 126 19
Width: 746
Flags: W
LayerCount: 2
Fore
SplineSet
111 252 m 1,0,1
 161 448 161 448 298 448 c 0,2,3
 342 448 342 448 437 393 c 2,4,-1
 501 356 l 2,5,6
 580 311 580 311 621 311 c 0,7,8
 686 311 686 311 734 422 c 1,9,-1
 770 422 l 1,10,11
 714 234 714 234 580 234 c 0,12,13
 526 234 526 234 444 282 c 2,14,-1
 381 318 l 2,15,16
 291 370 291 370 261 370 c 0,17,18
 194 370 194 370 146 252 c 1,19,-1
 111 252 l 1,0,1
EndSplineSet
EndChar

StartChar: agrave
Encoding: 224 224 20
Width: 1075
Flags: W
LayerCount: 2
Fore
SplineSet
741 331 m 1,0,1
 720 266 720 266 690.5 213 c 128,-1,2
 661 160 661 160 626 114 c 0,3,4
 519 -19 519 -19 400 -19 c 0,5,6
 208 -19 208 -19 159 214 c 0,7,8
 133 334 133 334 157 451 c 128,-1,9
 181 568 181 568 252 683 c 0,10,11
 325 801 325 801 433 860 c 128,-1,12
 541 919 541 919 684 919 c 0,13,14
 712 919 712 919 746 918.5 c 128,-1,15
 780 918 780 918 815.5 916 c 128,-1,16
 851 914 851 914 886 912 c 128,-1,17
 921 910 921 910 952 908 c 1,18,-1
 946 646 l 1,19,-1
 946 647 l 1,20,-1
 950 254 l 2,21,22
 952 209 952 209 954.5 179.5 c 128,-1,23
 957 150 957 150 958 139 c 0,24,25
 961 114 961 114 985 114 c 0,26,27
 1053 114 1053 114 1214 346 c 1,28,-1
 1218 179 l 1,29,30
 1073 -19 1073 -19 925 -19 c 0,31,32
 785 -19 785 -19 753 126 c 0,33,34
 749 146 749 146 747 182 c 128,-1,35
 745 218 745 218 745 264 c 2,36,-1
 741 331 l 1,0,1
737 758 m 1,37,38
 688 775 688 775 647 783.5 c 128,-1,39
 606 792 606 792 561 792 c 0,40,41
 497 792 497 792 453.5 749.5 c 128,-1,42
 410 707 410 707 387 625 c 0,43,44
 362 522 362 522 357 425 c 128,-1,45
 352 328 352 328 368 248 c 0,46,47
 388 146 388 146 437 146 c 0,48,49
 493 146 493 146 589 280 c 0,50,51
 637 352 637 352 674 430 c 128,-1,52
 711 508 711 508 739 599 c 1,53,-1
 737 758 l 1,37,38
EndSplineSet
EndChar

StartChar: ocircumflex.001
Encoding: 65539 -1 26
Width: 1112
Flags: W
LayerCount: 2
Fore
SplineSet
416 -19 m 0,0,1
 301 -19 301 -19 205 70 c 0,2,3
 110 160 110 160 85 288 c 0,4,5
 32 528 32 528 170 726 c 0,6,7
 307 928 307 928 522 928 c 0,8,9
 643 928 643 928 742 842 c 1,10,11
 837 753 837 753 864 626 c 0,12,13
 890 499 890 499 869 388.5 c 128,-1,14
 848 278 848 278 781 179 c 0,15,16
 711 79 711 79 619.5 30 c 128,-1,17
 528 -19 528 -19 416 -19 c 0,0,1
483 98 m 0,18,19
 536 98 536 98 573.5 133 c 128,-1,20
 611 168 611 168 637 236 c 0,21,22
 665 310 665 310 668.5 393.5 c 128,-1,23
 672 477 672 477 652 574 c 0,24,25
 602 813 602 813 466 813 c 0,26,27
 365 813 365 813 313 670 c 0,28,29
 284 595 284 595 281 510.5 c 128,-1,30
 278 426 278 426 298 332 c 0,31,32
 324 213 324 213 370 155.5 c 128,-1,33
 416 98 416 98 483 98 c 0,18,19
EndSplineSet
EndChar

StartChar: dagger
Encoding: 8224 8224 30
Width: 932
Flags: W
LayerCount: 2
Fore
SplineSet
347 -231 m 1,0,-1
 567 622 l 1,1,-1
 248 592 l 1,2,-1
 297 700 l 1,3,-1
 576 668 l 1,4,-1
 607 1066 l 1,5,-1
 755 1093 l 1,6,-1
 621 668 l 1,7,-1
 941 700 l 1,8,-1
 895 592 l 1,9,-1
 612 622 l 1,10,-1
 496 -213 l 1,11,-1
 347 -231 l 1,0,-1
EndSplineSet
EndChar

StartChar: degree
Encoding: 176 176 31
Width: 409
Flags: W
LayerCount: 2
Fore
SplineSet
395 844 m 0,0,1
 344 844 344 844 307.5 880 c 128,-1,2
 271 916 271 916 271 968 c 0,3,4
 271 1021 271 1021 307.5 1057 c 128,-1,5
 344 1093 344 1093 395 1093 c 0,6,7
 447 1093 447 1093 483 1057 c 128,-1,8
 519 1021 519 1021 519 968 c 0,9,10
 519 916 519 916 483 880 c 128,-1,11
 447 844 447 844 395 844 c 0,0,1
395 888 m 256,12,13
 427 888 427 888 450.5 912 c 128,-1,14
 474 936 474 936 474 968 c 256,15,16
 474 1000 474 1000 450.5 1024 c 128,-1,17
 427 1048 427 1048 395 1048 c 256,18,19
 363 1048 363 1048 339 1024 c 128,-1,20
 315 1000 315 1000 315 968 c 256,21,22
 315 936 315 936 339 912 c 128,-1,23
 363 888 363 888 395 888 c 256,12,13
EndSplineSet
EndChar

StartChar: bullet
Encoding: 8226 8226 32
Width: 931
Flags: W
LayerCount: 2
Fore
SplineSet
817 662 m 256,0,1
 817 517 817 517 713.5 414 c 128,-1,2
 610 311 610 311 465 311 c 256,3,4
 320 311 320 311 217 414 c 128,-1,5
 114 517 114 517 114 662 c 256,6,7
 114 807 114 807 217 910 c 128,-1,8
 320 1013 320 1013 465 1013 c 256,9,10
 610 1013 610 1013 713.5 910 c 128,-1,11
 817 807 817 807 817 662 c 256,0,1
EndSplineSet
EndChar

StartChar: registered
Encoding: 174 174 33
Width: 897
Flags: W
LayerCount: 2
Fore
SplineSet
580 445 m 0,0,1
 448 445 448 445 354.5 538.5 c 128,-1,2
 261 632 261 632 261 764 c 256,3,4
 261 896 261 896 354.5 990 c 128,-1,5
 448 1084 448 1084 580 1084 c 0,6,7
 714 1084 714 1084 807 990 c 128,-1,8
 900 896 900 896 900 764 c 256,9,10
 900 632 900 632 806.5 538.5 c 128,-1,11
 713 445 713 445 580 445 c 0,0,1
580 484 m 0,12,13
 695 484 695 484 777.5 567 c 128,-1,14
 860 650 860 650 860 764 c 256,15,16
 860 878 860 878 777.5 961 c 128,-1,17
 695 1044 695 1044 580 1044 c 0,18,19
 466 1044 466 1044 383.5 961 c 128,-1,20
 301 878 301 878 301 764 c 256,21,22
 301 650 301 650 383.5 567 c 128,-1,23
 466 484 466 484 580 484 c 0,12,13
529 737 m 1,24,-1
 501 596 l 1,25,-1
 394 596 l 1,26,-1
 403 639 l 1,27,-1
 456 639 l 1,28,-1
 511 915 l 1,29,-1
 458 915 l 1,30,-1
 466 959 l 1,31,-1
 598 959 l 2,32,33
 751 959 751 959 751 875 c 0,34,35
 751 800 751 800 650 750 c 1,36,-1
 685 639 l 1,37,-1
 747 639 l 1,38,-1
 738 596 l 1,39,-1
 641 596 l 1,40,-1
 591 737 l 1,41,-1
 529 737 l 1,24,-1
538 782 m 1,42,-1
 574 782 l 2,43,44
 697 782 697 782 697 866 c 0,45,46
 697 915 697 915 607 915 c 2,47,-1
 564 915 l 1,48,-1
 538 782 l 1,42,-1
EndSplineSet
EndChar

StartChar: copyright
Encoding: 169 169 34
Width: 1244
Flags: W
LayerCount: 2
Fore
SplineSet
725 -27 m 0,0,1
 495 -27 495 -27 330.5 137 c 128,-1,2
 166 301 166 301 166 533 c 256,3,4
 166 765 166 765 330.5 929 c 128,-1,5
 495 1093 495 1093 725 1093 c 0,6,7
 958 1093 958 1093 1122 929 c 128,-1,8
 1286 765 1286 765 1286 533 c 256,9,10
 1286 301 1286 301 1122 137 c 128,-1,11
 958 -27 958 -27 725 -27 c 0,0,1
725 18 m 0,12,13
 939 18 939 18 1090 169 c 128,-1,14
 1241 320 1241 320 1241 533 c 256,15,16
 1241 746 1241 746 1090 897 c 128,-1,17
 939 1048 939 1048 725 1048 c 0,18,19
 513 1048 513 1048 362 897 c 128,-1,20
 211 746 211 746 211 533 c 256,21,22
 211 320 211 320 362 169 c 128,-1,23
 513 18 513 18 725 18 c 0,12,13
890 246 m 1,24,25
 785 213 785 213 704 213 c 0,26,27
 580 213 580 213 508 279.5 c 128,-1,28
 436 346 436 346 436 462 c 0,29,30
 436 625 436 625 541 734.5 c 128,-1,31
 646 844 646 844 805 844 c 0,32,33
 896 844 896 844 1003 814 c 1,34,-1
 967 675 l 1,35,-1
 915 684 l 1,36,-1
 923 766 l 1,37,38
 854 798 854 798 792 798 c 0,39,40
 688 798 688 798 616 700 c 128,-1,41
 544 602 544 602 544 462 c 0,42,43
 544 271 544 271 722 271 c 0,44,45
 823 271 823 271 902 307 c 1,46,-1
 890 246 l 1,24,25
EndSplineSet
EndChar

StartChar: trademark
Encoding: 8482 8482 35
Width: 1333
Flags: W
LayerCount: 2
Fore
SplineSet
440 1021 m 1,0,-1
 307 1021 l 1,1,-1
 288 923 l 1,2,-1
 225 923 l 1,3,-1
 254 1066 l 1,4,-1
 751 1066 l 1,5,-1
 723 923 l 1,6,-1
 661 923 l 1,7,-1
 679 1021 l 1,8,-1
 546 1021 l 1,9,-1
 456 569 l 1,10,-1
 554 569 l 1,11,-1
 545 524 l 1,12,-1
 243 524 l 1,13,-1
 253 569 l 1,14,-1
 350 569 l 1,15,-1
 440 1021 l 1,0,-1
1011 569 m 1,16,-1
 942 956 l 1,17,-1
 857 524 l 1,18,-1
 688 524 l 1,19,-1
 697 569 l 1,20,-1
 794 569 l 1,21,-1
 884 1021 l 1,22,-1
 787 1021 l 1,23,-1
 796 1066 l 1,24,-1
 1036 1066 l 1,25,-1
 1092 747 l 1,26,-1
 1265 1066 l 1,27,-1
 1481 1066 l 1,28,-1
 1473 1021 l 1,29,-1
 1375 1021 l 1,30,-1
 1285 569 l 1,31,-1
 1383 569 l 1,32,-1
 1373 524 l 1,33,-1
 1178 524 l 1,34,-1
 1270 985 l 1,35,-1
 1041 569 l 1,36,-1
 1011 569 l 1,16,-1
EndSplineSet
EndChar

StartChar: logicalnot
Encoding: 172 172 39
Width: 932
Flags: W
LayerCount: 2
Fore
SplineSet
177 510 m 1,0,-1
 193 590 l 1,1,-1
 975 590 l 1,2,-1
 906 248 l 1,3,-1
 814 248 l 1,4,-1
 866 510 l 1,5,-1
 177 510 l 1,0,-1
EndSplineSet
EndChar

StartChar: florin
Encoding: 402 402 40
Width: 679
Flags: W
LayerCount: 2
Fore
SplineSet
158 -231 m 1,0,-1
 210 -18 l 1,1,-1
 286 364 l 1,2,-1
 108 364 l 1,3,-1
 117 409 l 1,4,-1
 294 409 l 1,5,-1
 298 427 l 2,6,7
 330 586 330 586 463 692.5 c 128,-1,8
 596 799 596 799 761 799 c 0,9,10
 818 799 818 799 860 784 c 1,11,-1
 764 678 l 1,12,13
 712 729 712 729 643 729 c 0,14,15
 500 729 500 729 457 512 c 2,16,-1
 436 409 l 1,17,-1
 623 409 l 1,18,-1
 614 364 l 1,19,-1
 427 364 l 1,20,-1
 313 -213 l 1,21,-1
 158 -231 l 1,0,-1
EndSplineSet
EndChar

StartChar: ellipsis
Encoding: 8230 8230 41
Width: 1827
Flags: W
LayerCount: 2
Fore
SplineSet
758 113 m 0,0,1
 758 144 758 144 809.5 245.5 c 128,-1,2
 861 347 861 347 876 355 c 0,3,4
 907 369 907 369 964.5 307.5 c 128,-1,5
 1022 246 1022 246 1026 211 c 1,6,7
 1026 166 1026 166 977.5 79.5 c 128,-1,8
 929 -7 929 -7 908 -7 c 0,9,10
 899 -7 899 -7 851 26.5 c 128,-1,11
 803 60 803 60 778 79 c 0,12,13
 758 96 758 96 758 113 c 0,0,1
1308 113 m 0,14,15
 1308 144 1308 144 1359 245.5 c 128,-1,16
 1410 347 1410 347 1426 355 c 0,17,18
 1457 369 1457 369 1514.5 307.5 c 128,-1,19
 1572 246 1572 246 1575 211 c 0,20,21
 1575 166 1575 166 1527 79.5 c 128,-1,22
 1479 -7 1479 -7 1458 -7 c 0,23,24
 1449 -7 1449 -7 1401 26.5 c 128,-1,25
 1353 60 1353 60 1328 79 c 0,26,27
 1308 96 1308 96 1308 113 c 0,14,15
211 113 m 0,28,29
 211 144 211 144 262 245.5 c 128,-1,30
 313 347 313 347 329 355 c 0,31,32
 360 369 360 369 417.5 307.5 c 128,-1,33
 475 246 475 246 478 211 c 0,34,35
 478 166 478 166 430 79.5 c 128,-1,36
 382 -7 382 -7 361 -7 c 0,37,38
 352 -7 352 -7 304 26.5 c 128,-1,39
 256 60 256 60 231 79 c 0,40,41
 211 96 211 96 211 113 c 0,28,29
EndSplineSet
EndChar

StartChar: endash
Encoding: 8211 8211 42
Width: 434
Flags: W
LayerCount: 2
Fore
SplineSet
434 154 m 1,0,-1
 0 154 l 1,1,-1
 0 234 l 1,2,-1
 434 234 l 1,3,-1
 434 154 l 1,0,-1
EndSplineSet
EndChar

StartChar: emdash
Encoding: 8212 8212 43
Width: 1862
Flags: W
LayerCount: 2
Fore
SplineSet
1866 572 m 1,0,-1
 -4 572 l 1,1,-1
 -4 732 l 1,2,-1
 1866 732 l 1,3,-1
 1866 572 l 1,0,-1
EndSplineSet
EndChar

StartChar: quotedblleft
Encoding: 8220 8220 44
Width: 797
Flags: W
LayerCount: 2
Fore
SplineSet
418 1104 m 0,0,1
 422 1196 422 1196 483.5 1285.5 c 128,-1,2
 545 1375 545 1375 621 1411 c 1,3,-1
 664 1327 l 1,4,5
 643 1315 643 1315 612.5 1281.5 c 128,-1,6
 582 1248 582 1248 565 1196 c 1,7,8
 657 1155 657 1155 655 1080 c 0,9,10
 655 1057 655 1057 646 1036 c 128,-1,11
 637 1015 637 1015 621 999 c 128,-1,12
 605 983 605 983 584.5 974 c 128,-1,13
 564 965 564 965 541 965 c 0,14,15
 512 965 512 965 489.5 977.5 c 128,-1,16
 467 990 467 990 451 1009.5 c 128,-1,17
 435 1029 435 1029 426.5 1054 c 128,-1,18
 418 1079 418 1079 418 1104 c 0,0,1
111 1104 m 0,19,20
 115 1196 115 1196 176.5 1285.5 c 128,-1,21
 238 1375 238 1375 313 1411 c 1,22,-1
 356 1327 l 1,23,24
 336 1315 336 1315 305 1281.5 c 128,-1,25
 274 1248 274 1248 258 1196 c 1,26,27
 350 1155 350 1155 348 1080 c 0,28,29
 348 1057 348 1057 338.5 1036 c 128,-1,30
 329 1015 329 1015 313.5 999 c 128,-1,31
 298 983 298 983 277 974 c 128,-1,32
 256 965 256 965 233 965 c 0,33,34
 205 965 205 965 182.5 977.5 c 128,-1,35
 160 990 160 990 144 1009.5 c 128,-1,36
 128 1029 128 1029 119.5 1054 c 128,-1,37
 111 1079 111 1079 111 1104 c 0,19,20
EndSplineSet
EndChar

StartChar: quotedblright
Encoding: 8221 8221 45
Width: 750
Flags: W
LayerCount: 2
Fore
SplineSet
356 1276 m 0,0,1
 354 1184 354 1184 292.5 1095 c 128,-1,2
 231 1006 231 1006 154 969 c 1,3,-1
 111 1051 l 1,4,5
 133 1063 133 1063 164 1097 c 128,-1,6
 195 1131 195 1131 209 1184 c 1,7,8
 117 1223 117 1223 121 1301 c 0,9,10
 121 1324 121 1324 130 1344.5 c 128,-1,11
 139 1365 139 1365 154 1380 c 128,-1,12
 169 1395 169 1395 189.5 1404 c 128,-1,13
 210 1413 210 1413 233 1413 c 0,14,15
 262 1413 262 1413 285 1401 c 128,-1,16
 308 1389 308 1389 323.5 1370 c 128,-1,17
 339 1351 339 1351 347.5 1326 c 128,-1,18
 356 1301 356 1301 356 1276 c 0,0,1
664 1276 m 0,19,20
 662 1184 662 1184 600.5 1095 c 128,-1,21
 539 1006 539 1006 461 969 c 1,22,-1
 418 1051 l 1,23,24
 440 1063 440 1063 471 1097 c 128,-1,25
 502 1131 502 1131 516 1184 c 1,26,27
 424 1223 424 1223 428 1301 c 0,28,29
 428 1324 428 1324 437 1344.5 c 128,-1,30
 446 1365 446 1365 461.5 1380 c 128,-1,31
 477 1395 477 1395 497.5 1404 c 128,-1,32
 518 1413 518 1413 541 1413 c 0,33,34
 570 1413 570 1413 593 1401 c 128,-1,35
 616 1389 616 1389 631.5 1370 c 128,-1,36
 647 1351 647 1351 655.5 1326 c 128,-1,37
 664 1301 664 1301 664 1276 c 0,19,20
EndSplineSet
EndChar

StartChar: divide
Encoding: 247 247 46
Width: 1288
Flags: W
LayerCount: 2
Fore
SplineSet
738 847 m 1,0,-1
 557 847 l 1,1,-1
 557 1054 l 1,2,-1
 738 1054 l 1,3,-1
 738 847 l 1,0,-1
1091 514 m 1,4,-1
 204 514 l 1,5,-1
 204 636 l 1,6,-1
 1091 636 l 1,7,-1
 1091 514 l 1,4,-1
738 96 m 1,8,-1
 557 96 l 1,9,-1
 557 303 l 1,10,-1
 738 303 l 1,11,-1
 738 96 l 1,8,-1
EndSplineSet
EndChar

StartChar: lozenge
Encoding: 9674 9674 47
Width: 1118
Flags: W
LayerCount: 2
Fore
SplineSet
1003 699 m 1,0,-1
 560 197 l 1,1,-1
 117 699 l 1,2,-1
 560 1202 l 1,3,-1
 1003 699 l 1,0,-1
848 699 m 1,4,-1
 560 1036 l 1,5,-1
 271 699 l 1,6,-1
 560 364 l 1,7,-1
 848 699 l 1,4,-1
EndSplineSet
EndChar

StartChar: fraction
Encoding: 8260 8260 48
Width: 742
Flags: W
LayerCount: 2
Fore
SplineSet
740 1101 m 1,0,-1
 101 -82 l 1,1,-1
 -9 -82 l 1,2,-1
 629 1101 l 1,3,-1
 740 1101 l 1,0,-1
EndSplineSet
EndChar

StartChar: guilsinglleft
Encoding: 8249 8249 49
Width: 1117
Flags: W
LayerCount: 2
Fore
SplineSet
955 58 m 1,0,-1
 150 444 l 1,1,-1
 150 534 l 1,2,-1
 955 918 l 1,3,-1
 955 784 l 1,4,-1
 331 489 l 1,5,-1
 955 192 l 1,6,-1
 955 58 l 1,0,-1
EndSplineSet
EndChar

StartChar: daggerdbl
Encoding: 8225 8225 52
Width: 932
Flags: W
LayerCount: 2
Fore
SplineSet
349 -231 m 1,0,-1
 481 185 l 1,1,-1
 161 154 l 1,2,-1
 211 261 l 1,3,-1
 490 229 l 1,4,-1
 567 616 l 1,5,-1
 247 586 l 1,6,-1
 297 693 l 1,7,-1
 575 661 l 1,8,-1
 608 1066 l 1,9,-1
 758 1093 l 1,10,-1
 620 661 l 1,11,-1
 940 693 l 1,12,-1
 889 586 l 1,13,-1
 611 616 l 1,14,-1
 535 229 l 1,15,-1
 855 261 l 1,16,-1
 804 154 l 1,17,-1
 525 185 l 1,18,-1
 499 -213 l 1,19,-1
 349 -231 l 1,0,-1
EndSplineSet
EndChar

StartChar: middot.001
Encoding: 8729 8729 53
Width: 620
Flags: W
LayerCount: 2
Fore
SplineSet
429 516 m 1,0,-1
 190 516 l 1,1,-1
 190 789 l 1,2,-1
 429 789 l 1,3,-1
 429 516 l 1,0,-1
EndSplineSet
EndChar

StartChar: quotesinglbase
Encoding: 8218 8218 54
Width: 418
Flags: W
LayerCount: 2
Fore
SplineSet
103 128 m 1,0,-1
 247 231 l 1,1,-1
 353 90 l 1,2,3
 345 -56 345 -56 262.5 -134.5 c 128,-1,4
 180 -213 180 -213 36 -213 c 1,5,-1
 76 -168 l 1,6,7
 189 -158 189 -158 211 -18 c 1,8,-1
 103 128 l 1,0,-1
EndSplineSet
EndChar

StartChar: quotedblbase
Encoding: 8222 8222 55
Width: 684
Flags: W
LayerCount: 2
Fore
SplineSet
91 92 m 1,0,-1
 204 178 l 1,1,-1
 292 64 l 1,2,3
 270 -213 270 -213 31 -213 c 1,4,-1
 60 -168 l 1,5,6
 166 -148 166 -148 179 -16 c 1,7,-1
 91 92 l 1,0,-1
401 92 m 1,8,-1
 516 178 l 1,9,-1
 602 64 l 1,10,11
 581 -213 581 -213 341 -213 c 1,12,-1
 372 -168 l 1,13,14
 476 -148 476 -148 490 -16 c 1,15,-1
 401 92 l 1,8,-1
EndSplineSet
EndChar

StartChar: perthousand
Encoding: 8240 8240 56
Width: 1571
Flags: W
LayerCount: 2
Fore
SplineSet
385 533 m 0,0,1
 304 533 304 533 254.5 584.5 c 128,-1,2
 205 636 205 636 205 722 c 0,3,4
 205 865 205 865 286.5 965.5 c 128,-1,5
 368 1066 368 1066 483 1066 c 0,6,7
 567 1066 567 1066 617.5 1014.5 c 128,-1,8
 668 963 668 963 668 877 c 0,9,10
 668 733 668 733 585.5 633 c 128,-1,11
 503 533 503 533 385 533 c 0,0,1
311 715 m 0,12,13
 311 578 311 578 398 578 c 0,14,15
 463 578 463 578 517 671.5 c 128,-1,16
 571 765 571 765 571 881 c 0,17,18
 571 1022 571 1022 483 1022 c 0,19,20
 416 1022 416 1022 363.5 928 c 128,-1,21
 311 834 311 834 311 715 c 0,12,13
850 0 m 0,22,23
 769 0 769 0 719.5 51.5 c 128,-1,24
 670 103 670 103 670 189 c 0,25,26
 670 331 670 331 751 432 c 128,-1,27
 832 533 832 533 947 533 c 0,28,29
 1031 533 1031 533 1081.5 481.5 c 128,-1,30
 1132 430 1132 430 1132 344 c 0,31,32
 1132 200 1132 200 1049.5 100 c 128,-1,33
 967 0 967 0 850 0 c 0,22,23
776 182 m 0,34,35
 776 44 776 44 862 44 c 0,36,37
 929 44 929 44 982 138 c 128,-1,38
 1035 232 1035 232 1035 348 c 0,39,40
 1035 490 1035 490 948 490 c 0,41,42
 880 490 880 490 828 395.5 c 128,-1,43
 776 301 776 301 776 182 c 0,34,35
131 -27 m 1,44,-1
 1111 1093 l 1,45,-1
 1206 1093 l 1,46,-1
 225 -27 l 1,47,-1
 131 -27 l 1,44,-1
1376 0 m 0,48,49
 1294 0 1294 0 1244.5 51.5 c 128,-1,50
 1195 103 1195 103 1195 189 c 0,51,52
 1195 331 1195 331 1276.5 432 c 128,-1,53
 1358 533 1358 533 1473 533 c 0,54,55
 1557 533 1557 533 1607.5 481.5 c 128,-1,56
 1658 430 1658 430 1658 344 c 0,57,58
 1658 200 1658 200 1575.5 100 c 128,-1,59
 1493 0 1493 0 1376 0 c 0,48,49
1301 183 m 0,60,61
 1301 44 1301 44 1389 44 c 0,62,63
 1453 44 1453 44 1507 138 c 128,-1,64
 1561 232 1561 232 1561 347 c 0,65,66
 1561 490 1561 490 1473 490 c 0,67,68
 1406 490 1406 490 1353.5 395.5 c 128,-1,69
 1301 301 1301 301 1301 183 c 0,60,61
EndSplineSet
EndChar

StartChar: multiply
Encoding: 215 215 60
Width: 1159
Flags: W
LayerCount: 2
Fore
SplineSet
231 380 m 1,0,-1
 512 661 l 1,1,-1
 231 942 l 1,2,-1
 349 1060 l 1,3,-1
 630 779 l 1,4,-1
 910 1059 l 1,5,-1
 1028 941 l 1,6,-1
 748 661 l 1,7,-1
 1028 381 l 1,8,-1
 910 263 l 1,9,-1
 630 543 l 1,10,-1
 349 262 l 1,11,-1
 231 380 l 1,0,-1
EndSplineSet
EndChar

StartChar: macron
Encoding: 175 175 61
Width: 1118
Flags: W
LayerCount: 2
Fore
SplineSet
1134 1259 m 1,0,-1
 -16 1259 l 1,1,-1
 -16 1389 l 1,2,-1
 1134 1389 l 1,3,-1
 1134 1259 l 1,0,-1
EndSplineSet
EndChar

StartChar: periodcentered
Encoding: 183 183 62
Width: 724
Flags: W
LayerCount: 2
Fore
SplineSet
482 832 m 1,0,-1
 243 832 l 1,1,-1
 243 1117 l 1,2,-1
 482 1117 l 1,3,-1
 482 832 l 1,0,-1
EndSplineSet
EndChar

StartChar: H22073
Encoding: 9633 9633 63
Width: 1237
Flags: W
LayerCount: 2
Fore
SplineSet
146 944 m 1,0,-1
 1090 944 l 1,1,-1
 1090 0 l 1,2,-1
 146 0 l 1,3,-1
 146 944 l 1,0,-1
222 868 m 1,4,-1
 222 76 l 1,5,-1
 1014 76 l 1,6,-1
 1014 868 l 1,7,-1
 222 868 l 1,4,-1
EndSplineSet
EndChar

StartChar: H18543
Encoding: 9642 9642 64
Width: 1089
Flags: W
LayerCount: 2
Fore
SplineSet
886 894 m 1,0,-1
 886 200 l 1,1,-1
 192 200 l 1,2,-1
 192 894 l 1,3,-1
 886 894 l 1,0,-1
EndSplineSet
EndChar

StartChar: H18551
Encoding: 9643 9643 65
Width: 1089
Flags: W
LayerCount: 2
Fore
SplineSet
888 930 m 1,0,-1
 888 235 l 1,1,-1
 193 235 l 1,2,-1
 193 930 l 1,3,-1
 888 930 l 1,0,-1
774 816 m 1,4,-1
 307 816 l 1,5,-1
 307 349 l 1,6,-1
 774 349 l 1,7,-1
 774 816 l 1,4,-1
EndSplineSet
EndChar

StartChar: H18533
Encoding: 9679 9679 66
Width: 1339
Flags: W
LayerCount: 2
Fore
SplineSet
204 775 m 0,0,1
 204 976 204 976 345 1117 c 128,-1,2
 486 1258 486 1258 685 1258 c 0,3,4
 885 1258 885 1258 1026 1117 c 128,-1,5
 1167 976 1167 976 1167 775 c 0,6,7
 1167 577 1167 577 1026 436 c 128,-1,8
 885 295 885 295 685 295 c 0,9,10
 486 295 486 295 345 436 c 128,-1,11
 204 577 204 577 204 775 c 0,0,1
EndSplineSet
EndChar

StartChar: openbullet
Encoding: 9702 9702 67
Width: 1089
Flags: W
LayerCount: 2
Fore
SplineSet
544 1392 m 0,0,1
 700 1392 700 1392 810.5 1281.5 c 128,-1,2
 921 1171 921 1171 921 1015 c 256,3,4
 921 859 921 859 810.5 749 c 128,-1,5
 700 639 700 639 544 639 c 256,6,7
 388 639 388 639 278 749 c 128,-1,8
 168 859 168 859 168 1015 c 256,9,10
 168 1171 168 1171 277.5 1281.5 c 128,-1,11
 387 1392 387 1392 544 1392 c 0,0,1
544 1278 m 0,12,13
 435 1278 435 1278 358.5 1200.5 c 128,-1,14
 282 1123 282 1123 282 1015 c 0,15,16
 282 906 282 906 359 829.5 c 128,-1,17
 436 753 436 753 544 753 c 256,18,19
 652 753 652 753 729.5 829.5 c 128,-1,20
 807 906 807 906 807 1015 c 0,21,22
 807 1123 807 1123 730.5 1200.5 c 128,-1,23
 654 1278 654 1278 544 1278 c 0,12,13
EndSplineSet
EndChar

StartChar: uniFFFC
Encoding: 65532 65532 68
Width: 2048
Flags: W
LayerCount: 2
Fore
SplineSet
2048 1150 m 1,0,-1
 1948 1150 l 1,1,-1
 1948 1373 l 1,2,-1
 1725 1373 l 1,3,-1
 1725 1473 l 1,4,-1
 2048 1473 l 1,5,-1
 2048 1150 l 1,0,-1
1473 1373 m 1,6,-1
 1150 1373 l 1,7,-1
 1150 1473 l 1,8,-1
 1473 1473 l 1,9,-1
 1473 1373 l 1,6,-1
2048 575 m 1,10,-1
 1948 575 l 1,11,-1
 1948 898 l 1,12,-1
 2048 898 l 1,13,-1
 2048 575 l 1,10,-1
1782 611 m 2,14,15
 1782 370 1782 370 1571 370 c 0,16,17
 1485 370 1485 370 1433 415 c 1,18,-1
 1506 494 l 1,19,20
 1531 468 1531 468 1571 468 c 0,21,22
 1666 468 1666 468 1666 606 c 2,23,-1
 1666 1090 l 1,24,-1
 1782 1090 l 1,25,-1
 1782 611 l 2,14,15
898 1373 m 1,26,-1
 575 1373 l 1,27,-1
 575 1473 l 1,28,-1
 898 1473 l 1,29,-1
 898 1373 l 1,26,-1
2048 0 m 1,30,-1
 1725 0 l 1,31,-1
 1725 100 l 1,32,-1
 1948 100 l 1,33,-1
 1948 323 l 1,34,-1
 2048 323 l 1,35,-1
 2048 0 l 1,30,-1
1423 591 m 0,36,37
 1423 382 1423 382 1149 382 c 2,38,-1
 909 382 l 1,39,-1
 909 1090 l 1,40,-1
 1144 1090 l 2,41,42
 1393 1090 1393 1090 1393 904 c 0,43,44
 1393 813 1393 813 1304 759 c 1,45,46
 1423 713 1423 713 1423 591 c 0,36,37
323 1373 m 1,47,-1
 100 1373 l 1,48,-1
 100 1150 l 1,49,-1
 0 1150 l 1,50,-1
 0 1473 l 1,51,-1
 323 1473 l 1,52,-1
 323 1373 l 1,47,-1
1473 0 m 1,53,-1
 1150 0 l 1,54,-1
 1150 100 l 1,55,-1
 1473 100 l 1,56,-1
 1473 0 l 1,53,-1
854 735 m 0,57,58
 854 562 854 562 772 466 c 128,-1,59
 690 370 690 370 537 370 c 256,60,61
 384 370 384 370 303.5 466 c 128,-1,62
 223 562 223 562 223 735 c 0,63,64
 223 910 223 910 303.5 1006 c 128,-1,65
 384 1102 384 1102 537 1102 c 256,66,67
 690 1102 690 1102 772 1006 c 128,-1,68
 854 910 854 910 854 735 c 0,57,58
100 575 m 1,69,-1
 0 575 l 1,70,-1
 0 898 l 1,71,-1
 100 898 l 1,72,-1
 100 575 l 1,69,-1
898 0 m 1,73,-1
 575 0 l 1,74,-1
 575 100 l 1,75,-1
 898 100 l 1,76,-1
 898 0 l 1,73,-1
323 0 m 1,77,-1
 0 0 l 1,78,-1
 0 323 l 1,79,-1
 100 323 l 1,80,-1
 100 100 l 1,81,-1
 323 100 l 1,82,-1
 323 0 l 1,77,-1
1277 893 m 0,83,84
 1277 992 1277 992 1114 992 c 2,85,-1
 1025 992 l 1,86,-1
 1025 798 l 1,87,-1
 1126 798 l 2,88,89
 1277 798 1277 798 1277 893 c 0,83,84
1307 591 m 0,90,91
 1307 700 1307 700 1136 700 c 2,92,-1
 1025 700 l 1,93,-1
 1025 480 l 1,94,-1
 1149 480 l 2,95,96
 1307 480 1307 480 1307 591 c 0,90,91
738 735 m 0,97,98
 738 1004 738 1004 537 1004 c 0,99,100
 339 1004 339 1004 339 735 c 0,101,102
 339 468 339 468 537 468 c 0,103,104
 738 468 738 468 738 735 c 0,97,98
EndSplineSet
EndChar

StartChar: zerowidthnonjoiner
Encoding: 8204 8204 88
Width: 0
GlyphClass: 2
Flags: W
LayerCount: 2
Fore
SplineSet
36 1289 m 1,0,-1
 36 -275 l 1,1,-1
 -36 -275 l 1,2,-1
 -36 1289 l 1,3,-1
 36 1289 l 1,0,-1
EndSplineSet
EndChar

StartChar: zerowidthjoiner
Encoding: 8205 8205 89
Width: 0
GlyphClass: 2
Flags: W
LayerCount: 2
Fore
SplineSet
36 -275 m 1,0,-1
 -36 -275 l 1,1,-1
 -36 1114 l 1,2,-1
 -170 978 l 1,3,-1
 -219 1027 l 1,4,-1
 -48 1196 l 1,5,-1
 -219 1364 l 1,6,-1
 -170 1413 l 1,7,-1
 0 1242 l 1,8,-1
 170 1413 l 1,9,-1
 219 1364 l 1,10,-1
 48 1196 l 1,11,-1
 219 1027 l 1,12,-1
 170 978 l 1,13,-1
 36 1114 l 1,14,-1
 36 -275 l 1,0,-1
EndSplineSet
EndChar

StartChar: lefttorightmark
Encoding: 8206 8206 90
Width: 0
GlyphClass: 2
Flags: W
LayerCount: 2
Fore
SplineSet
430 1198 m 1,0,-1
 213 984 l 1,1,-1
 164 1033 l 1,2,-1
 301 1163 l 1,3,-1
 35 1163 l 1,4,-1
 35 -275 l 1,5,-1
 -36 -275 l 1,6,-1
 -36 1234 l 1,7,-1
 301 1234 l 1,8,-1
 164 1364 l 1,9,-1
 213 1413 l 1,10,-1
 430 1198 l 1,0,-1
EndSplineSet
EndChar

StartChar: righttoleftmark
Encoding: 8207 8207 91
Width: 0
GlyphClass: 2
Flags: W
LayerCount: 2
Fore
SplineSet
35 -275 m 1,0,-1
 -36 -275 l 1,1,-1
 -36 1163 l 1,2,-1
 -302 1163 l 1,3,-1
 -165 1033 l 1,4,-1
 -214 984 l 1,5,-1
 -431 1198 l 1,6,-1
 -214 1413 l 1,7,-1
 -165 1364 l 1,8,-1
 -302 1234 l 1,9,-1
 35 1234 l 1,10,-1
 35 -275 l 1,0,-1
EndSplineSet
EndChar

StartChar: afii57388.001
Encoding: 1644 1644 92
Width: 353
GlyphClass: 2
Flags: W
LayerCount: 2
Fore
SplineSet
210 654 m 0,0,1
 200 627 200 627 185 603 c 0,2,3
 180 597 180 597 173.5 593.5 c 128,-1,4
 167 590 167 590 162 590 c 128,-1,5
 157 590 157 590 154.5 593 c 128,-1,6
 152 596 152 596 155 603 c 0,7,8
 187 660 187 660 202.5 713.5 c 128,-1,9
 218 767 218 767 218 800 c 1,10,11
 194 806 194 806 179 816 c 128,-1,12
 164 826 164 826 155 837.5 c 128,-1,13
 146 849 146 849 143 859 c 128,-1,14
 140 869 140 869 140 874 c 0,15,16
 140 890 140 890 145.5 907 c 128,-1,17
 151 924 151 924 160.5 937.5 c 128,-1,18
 170 951 170 951 183.5 959.5 c 128,-1,19
 197 968 197 968 213 968 c 0,20,21
 272 968 272 968 272 874 c 0,22,23
 272 859 272 859 268 835 c 128,-1,24
 264 811 264 811 256 781.5 c 128,-1,25
 248 752 248 752 236.5 719.5 c 128,-1,26
 225 687 225 687 210 654 c 0,0,1
EndSplineSet
EndChar

StartChar: afii57409
Encoding: 1569 1569 93
Width: 952
GlyphClass: 2
Flags: W
AnchorPoint: "Anchor-3" 525 -345 basechar 0
AnchorPoint: "Anchor-2" 480 765 basechar 0
LayerCount: 2
Fore
SplineSet
880 189 m 1,0,-1
 338 -39 l 1,1,-1
 291 92 l 1,2,-1
 478 167 l 1,3,4
 450 184 450 184 431.5 205.5 c 128,-1,5
 413 227 413 227 402.5 250.5 c 128,-1,6
 392 274 392 274 388.5 299 c 128,-1,7
 385 324 385 324 386 349 c 0,8,9
 388 397 388 397 407.5 438 c 128,-1,10
 427 479 427 479 459 509.5 c 128,-1,11
 491 540 491 540 532.5 558 c 128,-1,12
 574 576 574 576 618 578.5 c 128,-1,13
 662 581 662 581 706.5 566 c 128,-1,14
 751 551 751 551 790 515 c 1,15,-1
 729 385 l 1,16,17
 696 413 696 413 658.5 421.5 c 128,-1,18
 621 430 621 430 582 411 c 0,19,20
 562 401 562 401 553.5 376.5 c 128,-1,21
 545 352 545 352 548 326 c 128,-1,22
 551 300 551 300 566 279.5 c 128,-1,23
 581 259 581 259 607 258 c 0,24,25
 639 256 639 256 694 274.5 c 128,-1,26
 749 293 749 293 818 327 c 1,27,-1
 880 189 l 1,0,-1
EndSplineSet
EndChar

StartChar: afii57440
Encoding: 1600 1600 94
Width: 594
GlyphClass: 2
Flags: W
LayerCount: 2
Fore
SplineSet
629 0 m 1,0,-1
 -27 0 l 1,1,-1
 -27 227 l 1,2,-1
 629 227 l 1,3,-1
 629 0 l 1,0,-1
EndSplineSet
EndChar

StartChar: afii57453
Encoding: 1613 1613 95
Width: 0
GlyphClass: 4
Flags: W
AnchorPoint: "Anchor-3" 0 0 mark 0
AnchorPoint: "Anchor-1" 0 0 mark 0
LayerCount: 2
Fore
SplineSet
-289 101 m 1,0,-1
 256 242 l 1,1,-1
 256 144 l 1,2,-1
 -289 5 l 1,3,-1
 -289 101 l 1,0,-1
-289 -79 m 1,4,-1
 256 62 l 1,5,-1
 256 -36 l 1,6,-1
 -289 -175 l 1,7,-1
 -289 -79 l 1,4,-1
EndSplineSet
EndChar

StartChar: afii57381
Encoding: 1642 1642 96
Width: 1290
GlyphClass: 2
Flags: W
LayerCount: 2
Fore
SplineSet
1148 1481 m 1,0,-1
 326 -6 l 1,1,-1
 135 -6 l 1,2,-1
 946 1481 l 1,3,-1
 1148 1481 l 1,0,-1
133 1321 m 256,4,5
 133 1380 133 1380 175 1423 c 128,-1,6
 217 1466 217 1466 276 1466 c 0,7,8
 336 1466 336 1466 379 1423 c 128,-1,9
 422 1380 422 1380 422 1321 c 256,10,11
 422 1262 422 1262 379 1220 c 128,-1,12
 336 1178 336 1178 276 1178 c 0,13,14
 217 1178 217 1178 175 1220 c 128,-1,15
 133 1262 133 1262 133 1321 c 256,4,5
801 147 m 0,16,17
 801 207 801 207 843 250 c 128,-1,18
 885 293 885 293 944 293 c 0,19,20
 1004 293 1004 293 1047 250 c 128,-1,21
 1090 207 1090 207 1090 147 c 0,22,23
 1090 88 1090 88 1047 46 c 128,-1,24
 1004 4 1004 4 944 4 c 0,25,26
 885 4 885 4 843 46 c 128,-1,27
 801 88 801 88 801 147 c 0,16,17
EndSplineSet
EndChar

StartChar: afii57461
Encoding: 1643 1643 97
Width: 1178
GlyphClass: 2
Flags: W
LayerCount: 2
Fore
SplineSet
1093 722 m 1,0,-1
 271 -765 l 1,1,-1
 80 -765 l 1,2,-1
 891 722 l 1,3,-1
 1093 722 l 1,0,-1
EndSplineSet
EndChar

StartChar: afii63167
Encoding: 1645 1645 98
Width: 1118
GlyphClass: 2
Flags: W
LayerCount: 2
Fore
SplineSet
694 729 m 1,0,-1
 1057 733 l 1,1,-1
 1057 610 l 1,2,-1
 702 612 l 1,3,-1
 971 352 l 1,4,-1
 883 264 l 1,5,-1
 616 539 l 1,6,-1
 623 168 l 1,7,-1
 498 168 l 1,8,-1
 502 539 l 1,9,-1
 236 264 l 1,10,-1
 147 352 l 1,11,-1
 422 614 l 1,12,-1
 63 610 l 1,13,-1
 63 733 l 1,14,-1
 420 729 l 1,15,-1
 170 975 l 1,16,-1
 258 1065 l 1,17,-1
 502 817 l 1,18,-1
 498 1176 l 1,19,-1
 623 1176 l 1,20,-1
 616 813 l 1,21,-1
 860 1065 l 1,22,-1
 948 975 l 1,23,-1
 694 729 l 1,0,-1
EndSplineSet
EndChar

StartChar: afii57459
Encoding: 65543 -1 99
Width: 1066
GlyphClass: 2
Flags: W
LayerCount: 2
Fore
SplineSet
1001 381 m 2,0,1
 1001 182 1001 182 868 84 c 0,2,3
 758 0 758 0 645 0 c 2,4,-1
 -41 0 l 1,5,-1
 -41 227 l 1,6,-1
 649 227 l 2,7,8
 778 227 778 227 778 399 c 1,9,10
 457 399 457 399 373 420 c 1,11,12
 182 498 182 498 182 733 c 0,13,14
 182 905 182 905 299 1003.5 c 128,-1,15
 416 1102 416 1102 565 1102 c 0,16,17
 733 1102 733 1102 854 989 c 0,18,19
 926 926 926 926 962.5 842 c 128,-1,20
 999 758 999 758 999 645 c 2,21,-1
 1001 381 l 2,0,1
760 612 m 1,22,23
 760 733 760 733 686 811 c 1,24,25
 629 864 629 864 545 864 c 0,26,27
 479 864 479 864 437 830.5 c 128,-1,28
 395 797 395 797 395 748 c 0,29,30
 395 641 395 641 457 625 c 1,31,32
 477 612 477 612 608 612 c 2,33,-1
 760 612 l 1,22,23
EndSplineSet
EndChar

StartChar: afii57543
Encoding: 65544 -1 100
Width: 936
Flags: W
LayerCount: 2
Fore
SplineSet
983 0 m 1,0,-1
 848 4 l 1,1,-1
 780 14 l 1,2,-1
 727 41 l 1,3,-1
 662 92 l 1,4,5
 551 0 551 0 442 0 c 2,6,-1
 -47 0 l 1,7,-1
 -47 227 l 1,8,-1
 375 227 l 2,9,10
 487 227 487 227 524 285 c 0,11,12
 541 313 541 313 541 406 c 2,13,-1
 541 719 l 1,14,-1
 774 719 l 1,15,-1
 774 406 l 2,16,17
 774 297 774 297 811 264 c 0,18,19
 858 227 858 227 983 227 c 1,20,-1
 983 0 l 1,0,-1
EndSplineSet
EndChar

StartChar: afii57534
Encoding: 1749 1749 101
Width: 1028
GlyphClass: 2
Flags: W
LayerCount: 2
Fore
SplineSet
961 395 m 0,0,1
 961 227 961 227 830.5 100 c 128,-1,2
 700 -27 700 -27 524 -27 c 0,3,4
 344 -27 344 -27 218 103 c 128,-1,5
 92 233 92 233 92 412 c 0,6,7
 92 537 92 537 168 666 c 1,8,-1
 240 758 l 1,9,-1
 352 868 l 1,10,-1
 285 946 l 1,11,-1
 440 1102 l 1,12,-1
 854 670 l 1,13,14
 961 537 961 537 961 395 c 0,0,1
733 395 m 0,15,16
 733 463 733 463 700 508 c 1,17,-1
 514 702 l 1,18,19
 412 602 412 602 348 520 c 1,20,-1
 324 473 l 1,21,-1
 307 395 l 1,22,23
 307 348 307 348 358 270 c 1,24,25
 426 193 426 193 524 193 c 0,26,27
 625 193 625 193 686 264 c 0,28,29
 733 322 733 322 733 395 c 0,15,16
EndSplineSet
EndChar

StartChar: afii64240
Encoding: 65546 -1 103
Width: 517
Flags: W
LayerCount: 2
Fore
SplineSet
94 154 m 0,0,1
 94 185 94 185 106 213 c 128,-1,2
 118 241 118 241 139 262 c 128,-1,3
 160 283 160 283 188 295.5 c 128,-1,4
 216 308 216 308 248 308 c 0,5,6
 279 308 279 308 307 295.5 c 128,-1,7
 335 283 335 283 356 262 c 128,-1,8
 377 241 377 241 389 213 c 128,-1,9
 401 185 401 185 401 154 c 0,10,11
 401 122 401 122 389 94.5 c 128,-1,12
 377 67 377 67 356 46 c 128,-1,13
 335 25 335 25 307 13 c 128,-1,14
 279 1 279 1 248 1 c 0,15,16
 216 1 216 1 188 13 c 128,-1,17
 160 25 160 25 139 46 c 128,-1,18
 118 67 118 67 106 94.5 c 128,-1,19
 94 122 94 122 94 154 c 0,0,1
EndSplineSet
EndChar

StartChar: afii64241
Encoding: 65547 -1 104
Width: 862
Flags: W
LayerCount: 2
Fore
SplineSet
471 154 m 0,0,1
 471 185 471 185 483 213 c 128,-1,2
 495 241 495 241 516 262 c 128,-1,3
 537 283 537 283 565 295.5 c 128,-1,4
 593 308 593 308 625 308 c 0,5,6
 656 308 656 308 684 295.5 c 128,-1,7
 712 283 712 283 733 262 c 128,-1,8
 754 241 754 241 766.5 213 c 128,-1,9
 779 185 779 185 779 154 c 0,10,11
 779 122 779 122 766.5 94.5 c 128,-1,12
 754 67 754 67 733 46 c 128,-1,13
 712 25 712 25 684 13 c 128,-1,14
 656 1 656 1 625 1 c 0,15,16
 593 1 593 1 565 13 c 128,-1,17
 537 25 537 25 516 46 c 128,-1,18
 495 67 495 67 483 94.5 c 128,-1,19
 471 122 471 122 471 154 c 0,0,1
122 154 m 0,20,21
 122 185 122 185 134 213 c 128,-1,22
 146 241 146 241 167 262 c 128,-1,23
 188 283 188 283 215.5 295.5 c 128,-1,24
 243 308 243 308 275 308 c 0,25,26
 306 308 306 308 334 295.5 c 128,-1,27
 362 283 362 283 383 262 c 128,-1,28
 404 241 404 241 416.5 213 c 128,-1,29
 429 185 429 185 429 154 c 0,30,31
 429 122 429 122 416.5 94.5 c 128,-1,32
 404 67 404 67 383 46 c 128,-1,33
 362 25 362 25 334 13 c 128,-1,34
 306 1 306 1 275 1 c 0,35,36
 243 1 243 1 215.5 13 c 128,-1,37
 188 25 188 25 167 46 c 128,-1,38
 146 67 146 67 134 94.5 c 128,-1,39
 122 122 122 122 122 154 c 0,20,21
EndSplineSet
EndChar

StartChar: afii63954
Encoding: 65548 -1 105
Width: 817
Flags: W
LayerCount: 2
Fore
SplineSet
559 504 m 0,0,1
 559 472 559 472 546.5 444 c 128,-1,2
 534 416 534 416 513 395 c 128,-1,3
 492 374 492 374 464 362 c 128,-1,4
 436 350 436 350 405 350 c 0,5,6
 373 350 373 350 345.5 362 c 128,-1,7
 318 374 318 374 297 395 c 128,-1,8
 276 416 276 416 264 444 c 128,-1,9
 252 472 252 472 252 504 c 0,10,11
 252 535 252 535 264 563 c 128,-1,12
 276 591 276 591 297 612 c 128,-1,13
 318 633 318 633 345.5 645.5 c 128,-1,14
 373 658 373 658 405 658 c 0,15,16
 436 658 436 658 464 645.5 c 128,-1,17
 492 633 492 633 513 612 c 128,-1,18
 534 591 534 591 546.5 563 c 128,-1,19
 559 535 559 535 559 504 c 0,0,1
383 156 m 0,20,21
 383 124 383 124 370.5 96 c 128,-1,22
 358 68 358 68 337 47 c 128,-1,23
 316 26 316 26 288 14 c 128,-1,24
 260 2 260 2 229 2 c 0,25,26
 197 2 197 2 169.5 14 c 128,-1,27
 142 26 142 26 121 47 c 128,-1,28
 100 68 100 68 88 96 c 128,-1,29
 76 124 76 124 76 156 c 0,30,31
 76 187 76 187 88 215 c 128,-1,32
 100 243 100 243 121 264 c 128,-1,33
 142 285 142 285 169.5 297.5 c 128,-1,34
 197 310 197 310 229 310 c 0,35,36
 260 310 260 310 288 297.5 c 128,-1,37
 316 285 316 285 337 264 c 128,-1,38
 358 243 358 243 370.5 215 c 128,-1,39
 383 187 383 187 383 156 c 0,20,21
753 156 m 0,40,41
 753 124 753 124 740.5 96 c 128,-1,42
 728 68 728 68 707 47 c 128,-1,43
 686 26 686 26 658 14 c 128,-1,44
 630 2 630 2 599 2 c 0,45,46
 567 2 567 2 539 14 c 128,-1,47
 511 26 511 26 490 47 c 128,-1,48
 469 68 469 68 457 96 c 128,-1,49
 445 124 445 124 445 156 c 0,50,51
 445 187 445 187 457 215 c 128,-1,52
 469 243 469 243 490 264 c 128,-1,53
 511 285 511 285 539 297.5 c 128,-1,54
 567 310 567 310 599 310 c 0,55,56
 630 310 630 310 658 297.5 c 128,-1,57
 686 285 686 285 707 264 c 128,-1,58
 728 243 728 243 740.5 215 c 128,-1,59
 753 187 753 187 753 156 c 0,40,41
EndSplineSet
EndChar

StartChar: afii57382
Encoding: 65549 -1 106
Width: 797
Flags: W
LayerCount: 2
Fore
SplineSet
559 -504 m 0,0,1
 559 -536 559 -536 546.5 -564 c 128,-1,2
 534 -592 534 -592 513 -613 c 128,-1,3
 492 -634 492 -634 464 -646 c 128,-1,4
 436 -658 436 -658 405 -658 c 0,5,6
 373 -658 373 -658 345.5 -646 c 128,-1,7
 318 -634 318 -634 297 -613 c 128,-1,8
 276 -592 276 -592 264 -564 c 128,-1,9
 252 -536 252 -536 252 -504 c 0,10,11
 252 -473 252 -473 264 -445 c 128,-1,12
 276 -417 276 -417 297 -396 c 128,-1,13
 318 -375 318 -375 345.5 -362.5 c 128,-1,14
 373 -350 373 -350 405 -350 c 0,15,16
 436 -350 436 -350 464 -362.5 c 128,-1,17
 492 -375 492 -375 513 -396 c 128,-1,18
 534 -417 534 -417 546.5 -445 c 128,-1,19
 559 -473 559 -473 559 -504 c 0,0,1
383 -156 m 0,20,21
 383 -188 383 -188 370.5 -216 c 128,-1,22
 358 -244 358 -244 337 -265 c 128,-1,23
 316 -286 316 -286 288 -298 c 128,-1,24
 260 -310 260 -310 229 -310 c 0,25,26
 197 -310 197 -310 169.5 -298 c 128,-1,27
 142 -286 142 -286 121 -265 c 128,-1,28
 100 -244 100 -244 88 -216 c 128,-1,29
 76 -188 76 -188 76 -156 c 0,30,31
 76 -125 76 -125 88 -97 c 128,-1,32
 100 -69 100 -69 121 -48 c 128,-1,33
 142 -27 142 -27 169.5 -14.5 c 128,-1,34
 197 -2 197 -2 229 -2 c 0,35,36
 260 -2 260 -2 288 -14.5 c 128,-1,37
 316 -27 316 -27 337 -48 c 128,-1,38
 358 -69 358 -69 370.5 -97 c 128,-1,39
 383 -125 383 -125 383 -156 c 0,20,21
753 -156 m 0,40,41
 753 -188 753 -188 740.5 -216 c 128,-1,42
 728 -244 728 -244 707 -265 c 128,-1,43
 686 -286 686 -286 658 -298 c 128,-1,44
 630 -310 630 -310 599 -310 c 0,45,46
 567 -310 567 -310 539 -298 c 128,-1,47
 511 -286 511 -286 490 -265 c 128,-1,48
 469 -244 469 -244 457 -216 c 128,-1,49
 445 -188 445 -188 445 -156 c 0,50,51
 445 -125 445 -125 457 -97 c 128,-1,52
 469 -69 469 -69 490 -48 c 128,-1,53
 511 -27 511 -27 539 -14.5 c 128,-1,54
 567 -2 567 -2 599 -2 c 0,55,56
 630 -2 630 -2 658 -14.5 c 128,-1,57
 686 -27 686 -27 707 -48 c 128,-1,58
 728 -69 728 -69 740.5 -97 c 128,-1,59
 753 -125 753 -125 753 -156 c 0,40,41
EndSplineSet
EndChar

StartChar: afii64242
Encoding: 65550 -1 107
Width: 743
Flags: W
LayerCount: 2
Fore
SplineSet
662 373 m 2,0,1
 662 223 662 223 562.5 111.5 c 128,-1,2
 463 0 463 0 328 0 c 2,3,-1
 -43 0 l 1,4,-1
 -43 227 l 1,5,-1
 256 227 l 2,6,7
 369 227 369 227 410 285 c 0,8,9
 426 313 426 313 426 406 c 2,10,-1
 426 719 l 1,11,-1
 662 719 l 1,12,-1
 662 373 l 2,0,1
EndSplineSet
EndChar

StartChar: afii57373
Encoding: 65551 -1 112
Width: 0
Flags: W
LayerCount: 2
Fore
SplineSet
598 1669 m 1,0,-1
 140 1503 l 1,1,-1
 109 1604 l 1,2,-1
 213 1643 l 1,3,4
 175 1676 175 1676 162.5 1717 c 128,-1,5
 150 1758 150 1758 157 1798.5 c 128,-1,6
 164 1839 164 1839 188 1876.5 c 128,-1,7
 212 1914 212 1914 247 1940.5 c 128,-1,8
 282 1967 282 1967 326 1979 c 128,-1,9
 370 1991 370 1991 417 1981 c 0,10,11
 445 1976 445 1976 468.5 1961.5 c 128,-1,12
 492 1947 492 1947 518 1924 c 1,13,-1
 452 1828 l 1,14,15
 427 1853 427 1853 408.5 1858 c 128,-1,16
 390 1863 390 1863 374 1865 c 0,17,18
 360 1866 360 1866 343.5 1863 c 128,-1,19
 327 1860 327 1860 313 1851.5 c 128,-1,20
 299 1843 299 1843 288.5 1830 c 128,-1,21
 278 1817 278 1817 276 1799 c 0,22,23
 274 1783 274 1783 279 1770 c 128,-1,24
 284 1757 284 1757 293.5 1747.5 c 128,-1,25
 303 1738 303 1738 316.5 1732 c 128,-1,26
 330 1726 330 1726 345 1725 c 0,27,28
 409 1718 409 1718 553 1775 c 1,29,-1
 598 1669 l 1,0,-1
EndSplineSet
EndChar

StartChar: afii57374
Encoding: 65552 -1 113
Width: 1087
GlyphClass: 2
Flags: W
LayerCount: 2
Fore
SplineSet
1149 0 m 1,0,-1
 1075 6 l 1,1,-1
 1014 6 l 1,2,-1
 852 10 l 2,3,4
 758 10 758 10 670 25 c 1,5,-1
 567 61 l 1,6,7
 469 0 469 0 -82 0 c 1,8,-1
 -82 227 l 1,9,-1
 256 227 l 1,10,11
 131 373 131 373 131 537 c 0,12,13
 131 696 131 696 241.5 804.5 c 128,-1,14
 352 913 352 913 541 913 c 0,15,16
 717 913 717 913 825 786 c 0,17,18
 922 666 922 666 922 498 c 0,19,20
 922 348 922 348 842 227 c 1,21,-1
 1149 227 l 1,22,-1
 1149 0 l 1,0,-1
717 489 m 0,23,24
 717 567 717 567 654.5 629.5 c 128,-1,25
 592 692 592 692 526 692 c 0,26,27
 467 692 467 692 407.5 638 c 128,-1,28
 348 584 348 584 348 516 c 0,29,30
 348 379 348 379 578 276 c 1,31,32
 717 381 717 381 717 489 c 0,23,24
EndSplineSet
EndChar

StartChar: afii57375
Encoding: 1619 1619 114
Width: 1127
GlyphClass: 2
Flags: W
LayerCount: 2
Fore
SplineSet
970 1618 m 1,0,-1
 498 1618 l 2,1,2
 405 1621 405 1621 361.5 1577.5 c 128,-1,3
 318 1534 318 1534 275 1452 c 1,4,-1
 98 1518 l 1,5,6
 174 1702 174 1702 231 1745 c 0,7,8
 279 1786 279 1786 332 1804 c 128,-1,9
 385 1822 385 1822 472 1824 c 2,10,-1
 970 1824 l 1,11,-1
 970 1618 l 1,0,-1
EndSplineSet
EndChar

StartChar: afii57391
Encoding: 59450 59450 115
Width: 1024
GlyphClass: 2
Flags: W
LayerCount: 2
Fore
SplineSet
1024 0 m 1,0,-1
 -70 0 l 1,1,-1
 -70 188 l 1,2,-1
 1024 188 l 1,3,-1
 1024 0 l 1,0,-1
EndSplineSet
EndChar

StartChar: afii57471
Encoding: 65553 -1 116
Width: 2173
Flags: W
LayerCount: 2
Fore
SplineSet
2214 0 m 1,0,-1
 2071 6 l 1,1,-1
 1974 20 l 1,2,3
 1896 43 1896 43 1851 92 c 1,4,5
 1737 0 1737 0 1632 0 c 2,6,-1
 430 0 l 2,7,8
 295 0 295 0 198.5 116.5 c 128,-1,9
 102 233 102 233 102 373 c 2,10,-1
 102 719 l 1,11,-1
 332 719 l 1,12,-1
 332 406 l 2,13,14
 332 313 332 313 354 285 c 0,15,16
 391 227 391 227 500 227 c 2,17,-1
 1561 227 l 2,18,19
 1657 227 1657 227 1686 250 c 0,20,21
 1733 291 1733 291 1733 406 c 2,22,-1
 1733 719 l 1,23,-1
 1964 719 l 1,24,-1
 1964 406 l 2,25,26
 1964 322 1964 322 2001 285 c 0,27,28
 2058 227 2058 227 2214 227 c 1,29,-1
 2214 0 l 1,0,-1
EndSplineSet
EndChar

StartChar: afii52258
Encoding: 65554 -1 117
Width: 2054
GlyphClass: 2
Flags: W
LayerCount: 2
Fore
SplineSet
2085 0 m 1,0,1
 1686 0 1686 0 1591 51 c 1,2,3
 1559 4 1559 4 1159 4 c 2,4,-1
 399 0 l 2,5,6
 270 0 270 0 172 129 c 1,7,8
 98 240 98 240 98 373 c 2,9,-1
 98 719 l 1,10,-1
 324 719 l 1,11,-1
 324 406 l 2,12,13
 324 227 324 227 494 227 c 2,14,-1
 1284 227 l 1,15,16
 1159 373 1159 373 1159 537 c 0,17,18
 1159 682 1159 682 1268.5 797.5 c 128,-1,19
 1378 913 1378 913 1565 913 c 0,20,21
 1731 913 1731 913 1845 786 c 1,22,23
 1946 666 1946 666 1946 500 c 0,24,25
 1946 352 1946 352 1866 227 c 1,26,-1
 2085 227 l 1,27,-1
 2085 0 l 1,0,1
1741 489 m 0,28,29
 1741 567 1741 567 1681.5 629.5 c 128,-1,30
 1622 692 1622 692 1554 692 c 0,31,32
 1497 692 1497 692 1432.5 642 c 128,-1,33
 1368 592 1368 592 1368 520 c 0,34,35
 1368 389 1368 389 1602 276 c 1,36,37
 1741 362 1741 362 1741 489 c 0,28,29
EndSplineSet
EndChar

StartChar: afii62889
Encoding: 65555 -1 123
Width: 1714
Flags: W
LayerCount: 2
Fore
SplineSet
1757 0 m 1,0,-1
 1569 0 l 1,1,2
 1569 -131 1569 -131 1522 -223 c 1,3,4
 1481 -332 1481 -332 1384 -416 c 1,5,6
 1221 -578 1221 -578 987 -578 c 2,7,-1
 635 -578 l 2,8,9
 426 -578 426 -578 259 -395.5 c 128,-1,10
 92 -213 92 -213 92 14 c 2,11,-1
 92 349 l 1,12,-1
 317 349 l 1,13,-1
 317 -16 l 2,14,15
 317 -141 317 -141 449 -250 c 0,16,17
 561 -344 561 -344 680 -344 c 2,18,-1
 981 -344 l 2,19,20
 1112 -344 1112 -344 1217 -244 c 1,21,22
 1278 -197 1278 -197 1309.5 -135.5 c 128,-1,23
 1341 -74 1341 -74 1341 0 c 1,24,25
 1008 0 1008 0 926 31 c 0,26,27
 727 98 727 98 727 354 c 0,28,29
 727 516 727 516 841.5 617.5 c 128,-1,30
 956 719 956 719 1128 719 c 0,31,32
 1305 719 1305 719 1434 602 c 0,33,34
 1575 469 1575 469 1575 227 c 1,35,-1
 1757 227 l 1,36,-1
 1757 0 l 1,0,-1
1348 227 m 1,37,38
 1348 338 1348 338 1260 422 c 0,39,40
 1192 483 1192 483 1106 483 c 0,41,42
 1034 483 1034 483 990 451.5 c 128,-1,43
 946 420 946 420 946 369 c 0,44,45
 946 281 946 281 1024 244 c 1,46,47
 1081 227 1081 227 1348 227 c 1,37,38
EndSplineSet
EndChar

StartChar: afii62887
Encoding: 65556 -1 124
Width: 2042
Flags: W
LayerCount: 2
Fore
SplineSet
1956 373 m 2,0,1
 1956 223 1956 223 1854.5 111.5 c 128,-1,2
 1753 0 1753 0 1626 0 c 2,3,-1
 420 0 l 2,4,5
 285 0 285 0 189.5 116.5 c 128,-1,6
 94 233 94 233 94 373 c 2,7,-1
 94 719 l 1,8,-1
 322 719 l 1,9,-1
 322 406 l 2,10,11
 322 324 322 324 342 285 c 1,12,13
 379 227 379 227 489 227 c 2,14,-1
 1559 227 l 2,15,16
 1669 227 1669 227 1704 285 c 1,17,18
 1726 311 1726 311 1726 406 c 2,19,-1
 1726 719 l 1,20,-1
 1956 719 l 1,21,-1
 1956 373 l 2,0,1
EndSplineSet
EndChar

StartChar: afii62888
Encoding: 1697 1697 125
Width: 2042
GlyphClass: 2
Flags: W
LayerCount: 2
Fore
SplineSet
1950 416 m 1,0,1
 1950 188 1950 188 1810 78 c 0,2,3
 1710 0 1710 0 1595 0 c 2,4,-1
 410 0 l 2,5,6
 281 0 281 0 168 111 c 1,7,8
 82 223 82 223 82 373 c 2,9,-1
 82 719 l 1,10,-1
 307 719 l 1,11,-1
 307 406 l 2,12,13
 307 311 307 311 328 285 c 0,14,15
 365 227 365 227 477 227 c 2,16,-1
 1569 227 l 2,17,18
 1673 227 1673 227 1706 274 c 0,19,20
 1714 285 1714 285 1731 401 c 1,21,22
 1376 401 1376 401 1253 463 c 1,23,24
 1143 524 1143 524 1143 737 c 0,25,26
 1143 895 1143 895 1242 998.5 c 128,-1,27
 1341 1102 1341 1102 1528 1102 c 0,28,29
 1694 1102 1694 1102 1819 978 c 128,-1,30
 1944 854 1944 854 1944 670 c 1,31,-1
 1950 416 l 1,0,1
1726 612 m 1,32,33
 1726 733 1726 733 1653 815 c 1,34,35
 1589 872 1589 872 1507 872 c 0,36,37
 1335 872 1335 872 1335 729 c 0,38,39
 1335 641 1335 641 1419 623 c 1,40,-1
 1511 612 l 1,41,-1
 1726 612 l 1,32,33
EndSplineSet
Substitution2: "'medi' Medial Forms in Arabic lookup 3 subtable" afii57374
Substitution2: "'fina' Terminal Forms in Arabic lookup 2 subtable" afii52258
Substitution2: "'init' Initial Forms in Arabic lookup 1 subtable" afii57459
EndChar

StartChar: afii57567
Encoding: 1705 1705 132
Width: 2011
GlyphClass: 2
Flags: W
AnchorPoint: "Anchor-3" 945 -480 basechar 0
AnchorPoint: "Anchor-2" 660 1515 basechar 0
LayerCount: 2
Fore
SplineSet
1944 307 m 0,0,1
 1944 209 1944 209 1872 121 c 1,2,3
 1782 0 1782 0 1591 0 c 2,4,-1
 416 0 l 2,5,6
 281 0 281 0 187.5 109.5 c 128,-1,7
 94 219 94 219 94 373 c 2,8,-1
 94 719 l 1,9,-1
 322 719 l 1,10,-1
 322 406 l 2,11,12
 322 311 322 311 342 285 c 0,13,14
 379 227 379 227 489 227 c 2,15,-1
 1585 227 l 2,16,17
 1704 227 1704 227 1704 334 c 0,18,19
 1704 385 1704 385 1669 420 c 2,20,-1
 1071 1040 l 1,21,-1
 1017 1266 l 1,22,-1
 1932 1611 l 1,23,-1
 1962 1392 l 1,24,-1
 1298 1139 l 1,25,-1
 1839 571 l 2,26,27
 1941 461 1941 461 1944 307 c 0,0,1
EndSplineSet
Substitution2: "'medi' Medial Forms in Arabic lookup 3 subtable" afii52306
Substitution2: "'fina' Terminal Forms in Arabic lookup 2 subtable" afii62964
Substitution2: "'init' Initial Forms in Arabic lookup 1 subtable" afii52305
EndChar

StartChar: afii62964
Encoding: 64399 64399 133
Width: 2234
GlyphClass: 2
Flags: W
AnchorPoint: "Anchor-3" 870 -675 basechar 0
AnchorPoint: "Anchor-2" 735 1485 basechar 0
LayerCount: 2
Fore
SplineSet
2294 0 m 1,0,1
 2038 0 2038 0 1917 162 c 1,2,3
 1855 0 1855 0 1622 0 c 2,4,-1
 422 0 l 2,5,6
 285 0 285 0 191.5 109.5 c 128,-1,7
 98 219 98 219 98 373 c 2,8,-1
 98 719 l 1,9,-1
 328 719 l 1,10,-1
 328 406 l 2,11,12
 328 311 328 311 348 285 c 0,13,14
 385 227 385 227 498 227 c 2,15,-1
 1610 227 l 2,16,17
 1724 227 1724 227 1724 311 c 0,18,19
 1724 354 1724 354 1671 416 c 2,20,-1
 1112 1040 l 1,21,-1
 1072 1264 l 1,22,-1
 1952 1604 l 1,23,-1
 1987 1396 l 1,24,-1
 1323 1149 l 1,25,-1
 1946 442 l 1,26,-1
 2111 276 l 1,27,28
 2183 227 2183 227 2294 227 c 1,29,-1
 2294 0 l 1,0,1
EndSplineSet
EndChar

StartChar: afii52305
Encoding: 64400 64400 134
Width: 1071
GlyphClass: 2
Flags: W
AnchorPoint: "Anchor-3" 510 -690 basechar 0
AnchorPoint: "Anchor-2" 315 1590 basechar 0
LayerCount: 2
Fore
SplineSet
977 311 m 0,0,1
 977 199 977 199 889 98 c 1,2,3
 791 0 791 0 612 0 c 2,4,-1
 -53 0 l 1,5,-1
 -53 227 l 1,6,-1
 612 227 l 2,7,8
 743 227 743 227 743 313 c 0,9,10
 743 352 743 352 700 410 c 1,11,-1
 98 1040 l 1,12,-1
 52 1281 l 1,13,-1
 970 1611 l 1,14,-1
 998 1390 l 1,15,-1
 328 1143 l 1,16,-1
 913 494 l 1,17,18
 977 416 977 416 977 311 c 0,0,1
EndSplineSet
EndChar

StartChar: afii52306
Encoding: 64401 64401 135
Width: 1314
GlyphClass: 2
Flags: W
AnchorPoint: "Anchor-3" 555 -810 basechar 0
AnchorPoint: "Anchor-2" 390 1605 basechar 0
LayerCount: 2
Fore
SplineSet
1337 0 m 1,0,1
 1210 0 1210 0 1104.5 44 c 128,-1,2
 999 88 999 88 936 182 c 1,3,4
 903 98 903 98 848 47 c 1,5,6
 786 0 786 0 649 0 c 2,7,-1
 -35 0 l 1,8,-1
 -35 227 l 1,9,-1
 624 227 l 2,10,11
 743 227 743 227 743 313 c 0,12,13
 743 354 743 354 690 416 c 2,14,-1
 119 1040 l 1,15,-1
 82 1298 l 1,16,-1
 986 1619 l 1,17,-1
 1022 1390 l 1,18,-1
 348 1143 l 1,19,-1
 983 442 l 2,20,21
 1122 287 1122 287 1182 250 c 1,22,-1
 1241 233 l 1,23,-1
 1337 227 l 1,24,-1
 1337 0 l 1,0,1
EndSplineSet
EndChar

StartChar: afii57509
Encoding: 1711 1711 136
Width: 2003
GlyphClass: 2
Flags: W
AnchorPoint: "Anchor-3" 930 -435 basechar 0
AnchorPoint: "Anchor-2" 495 1440 basechar 0
LayerCount: 2
Fore
SplineSet
1916 1726 m 1,0,-1
 1056 1417 l 1,1,-1
 1044 1505 l 1,2,-1
 1908 1810 l 1,3,-1
 1916 1726 l 1,0,-1
1944 307 m 0,4,5
 1944 209 1944 209 1872 121 c 1,6,7
 1782 0 1782 0 1591 0 c 2,8,-1
 416 0 l 2,9,10
 281 0 281 0 187.5 109.5 c 128,-1,11
 94 219 94 219 94 373 c 2,12,-1
 94 719 l 1,13,-1
 322 719 l 1,14,-1
 322 406 l 2,15,16
 322 311 322 311 342 285 c 0,17,18
 379 227 379 227 489 227 c 2,19,-1
 1585 227 l 2,20,21
 1704 227 1704 227 1704 334 c 0,22,23
 1704 385 1704 385 1669 420 c 2,24,-1
 1071 1040 l 1,25,-1
 1057 1285 l 1,26,-1
 1936 1606 l 1,27,-1
 1962 1392 l 1,28,-1
 1298 1139 l 1,29,-1
 1839 571 l 2,30,31
 1941 461 1941 461 1944 307 c 0,4,5
EndSplineSet
Substitution2: "'medi' Medial Forms in Arabic lookup 3 subtable" afii62966
Substitution2: "'fina' Terminal Forms in Arabic lookup 2 subtable" afii62967
Substitution2: "'init' Initial Forms in Arabic lookup 1 subtable" afii62965
EndChar

StartChar: afii62967
Encoding: 64403 64403 137
Width: 2234
GlyphClass: 2
Flags: W
AnchorPoint: "Anchor-3" 930 -570 basechar 0
AnchorPoint: "Anchor-2" 705 1650 basechar 0
LayerCount: 2
Fore
SplineSet
1937 1723 m 1,0,-1
 1053 1384 l 1,1,-1
 1031 1472 l 1,2,-1
 1931 1807 l 1,3,-1
 1937 1723 l 1,0,-1
2294 0 m 1,4,5
 2038 0 2038 0 1917 162 c 1,6,7
 1855 0 1855 0 1622 0 c 2,8,-1
 422 0 l 2,9,10
 285 0 285 0 191.5 109.5 c 128,-1,11
 98 219 98 219 98 373 c 2,12,-1
 98 719 l 1,13,-1
 328 719 l 1,14,-1
 328 406 l 2,15,16
 328 311 328 311 348 285 c 0,17,18
 385 227 385 227 498 227 c 2,19,-1
 1610 227 l 2,20,21
 1724 227 1724 227 1724 311 c 0,22,23
 1724 354 1724 354 1671 416 c 2,24,-1
 1112 1040 l 1,25,-1
 1073 1274 l 1,26,-1
 1952 1604 l 1,27,-1
 1987 1396 l 1,28,-1
 1323 1149 l 1,29,-1
 1946 442 l 1,30,-1
 2111 276 l 1,31,32
 2183 227 2183 227 2294 227 c 1,33,-1
 2294 0 l 1,4,5
EndSplineSet
EndChar

StartChar: afii62965
Encoding: 64404 64404 138
Width: 1041
GlyphClass: 2
Flags: W
AnchorPoint: "Anchor-3" 495 -675 basechar 0
AnchorPoint: "Anchor-2" 315 1860 basechar 0
LayerCount: 2
Fore
SplineSet
977 311 m 0,0,1
 977 199 977 199 889 98 c 1,2,3
 791 0 791 0 612 0 c 2,4,-1
 -53 0 l 1,5,-1
 -53 227 l 1,6,-1
 612 227 l 2,7,8
 743 227 743 227 743 313 c 0,9,10
 743 352 743 352 700 410 c 1,11,-1
 98 1040 l 1,12,-1
 51 1298 l 1,13,-1
 967 1619 l 1,14,-1
 998 1390 l 1,15,-1
 328 1143 l 1,16,-1
 913 494 l 1,17,18
 977 416 977 416 977 311 c 0,0,1
931 1721 m 1,19,-1
 62 1408 l 1,20,-1
 52 1496 l 1,21,-1
 929 1805 l 1,22,-1
 931 1721 l 1,19,-1
EndSplineSet
EndChar

StartChar: afii62966
Encoding: 64405 64405 139
Width: 1309
GlyphClass: 2
Flags: W
AnchorPoint: "Anchor-3" 495 -780 basechar 0
AnchorPoint: "Anchor-2" 375 1860 basechar 0
LayerCount: 2
Fore
SplineSet
1337 0 m 1,0,1
 1210 0 1210 0 1104.5 44 c 128,-1,2
 999 88 999 88 936 182 c 1,3,4
 903 98 903 98 848 47 c 1,5,6
 786 0 786 0 649 0 c 2,7,-1
 -35 0 l 1,8,-1
 -35 227 l 1,9,-1
 624 227 l 2,10,11
 743 227 743 227 743 313 c 0,12,13
 743 354 743 354 690 416 c 2,14,-1
 119 1040 l 1,15,-1
 82 1298 l 1,16,-1
 986 1619 l 1,17,-1
 1022 1390 l 1,18,-1
 348 1143 l 1,19,-1
 983 442 l 2,20,21
 1122 287 1122 287 1182 250 c 1,22,-1
 1241 233 l 1,23,-1
 1337 227 l 1,24,-1
 1337 0 l 1,0,1
952 1712 m 1,25,-1
 92 1399 l 1,26,-1
 77 1487 l 1,27,-1
 944 1796 l 1,28,-1
 952 1712 l 1,25,-1
EndSplineSet
EndChar

StartChar: afii57555
Encoding: 1740 1740 140
Width: 1636
GlyphClass: 2
Flags: W
AnchorPoint: "Anchor-3" 720 -1215 basechar 0
AnchorPoint: "Anchor-2" 540 960 basechar 0
LayerCount: 2
Fore
SplineSet
1561 -74 m 0,0,1
 1561 -227 1561 -227 1518 -313 c 1,2,3
 1493 -412 1493 -412 1389 -510 c 0,4,5
 1227 -666 1227 -666 997 -666 c 2,6,-1
 645 -666 l 2,7,8
 422 -666 422 -666 262 -488.5 c 128,-1,9
 102 -311 102 -311 102 -74 c 2,10,-1
 102 395 l 1,11,-1
 317 395 l 1,12,-1
 317 -104 l 2,13,14
 317 -254 317 -254 449 -365 c 1,15,16
 557 -442 557 -442 690 -442 c 2,17,-1
 987 -442 l 2,18,19
 1108 -442 1108 -442 1217 -362 c 1,20,21
 1337 -260 1337 -260 1337 -131 c 0,22,23
 1337 -27 1337 -27 1251 0 c 128,-1,24
 1165 27 1165 27 811 27 c 1,25,-1
 811 416 l 2,26,27
 811 584 811 584 930 704.5 c 128,-1,28
 1049 825 1049 825 1212 825 c 2,29,-1
 1491 825 l 1,30,-1
 1501 612 l 1,31,-1
 1221 612 l 2,32,33
 1106 612 1106 612 1051 500 c 1,34,35
 1024 410 1024 410 1024 240 c 1,36,37
 1331 240 1331 240 1440 186 c 1,38,39
 1561 121 1561 121 1561 -74 c 0,0,1
EndSplineSet
Substitution2: "'medi' Medial Forms in Arabic lookup 3 subtable" afii62832
Substitution2: "'fina' Terminal Forms in Arabic lookup 2 subtable" afii52364
Substitution2: "'init' Initial Forms in Arabic lookup 1 subtable" uniFBFE
EndChar

StartChar: afii52364
Encoding: 64509 64509 141
Width: 1636
GlyphClass: 2
Flags: W
AnchorPoint: "Anchor-3" 765 -1140 basechar 0
AnchorPoint: "Anchor-2" 660 885 basechar 0
LayerCount: 2
Fore
SplineSet
1673 0 m 1,0,-1
 1462 0 l 1,1,-1
 1473 -111 l 1,2,3
 1473 -305 1473 -305 1318 -441.5 c 128,-1,4
 1163 -578 1163 -578 973 -578 c 2,5,-1
 618 -578 l 2,6,7
 358 -578 358 -578 193 -379 c 1,8,9
 53 -193 53 -193 53 82 c 2,10,-1
 53 489 l 1,11,-1
 285 489 l 1,12,-1
 285 -10 l 2,13,14
 285 -129 285 -129 369 -233 c 1,15,16
 477 -352 477 -352 670 -352 c 2,17,-1
 963 -352 l 2,18,19
 1077 -352 1077 -352 1155 -291 c 0,20,21
 1243 -223 1243 -223 1243 -98 c 0,22,23
 1243 -35 1243 -35 1135.5 -17.5 c 128,-1,24
 1028 0 1028 0 774 0 c 1,25,-1
 754 227 l 1,26,-1
 1673 227 l 1,27,-1
 1673 0 l 1,0,-1
EndSplineSet
EndChar

StartChar: afii62945
Encoding: 65557 -1 147
Width: 2859
GlyphClass: 3
Flags: W
LayerCount: 2
Fore
SplineSet
2697 352 m 2,0,1
 2697 219 2697 219 2630 131 c 0,2,3
 2527 0 2527 0 2329 0 c 2,4,-1
 2111 0 l 2,5,6
 1980 0 1980 0 1917 14 c 0,7,8
 1855 31 1855 31 1782 92 c 1,9,10
 1700 25 1700 25 1628 10 c 0,11,12
 1569 0 1569 0 1327 0 c 1,13,14
 1190 4 1190 4 1139 41 c 1,15,16
 1112 53 1112 53 899 246 c 1,17,18
 770 -27 770 -27 479 -27 c 0,19,20
 301 -27 301 -27 172 100 c 256,21,22
 43 227 43 227 43 412 c 0,23,24
 43 537 43 537 131 666 c 0,25,26
 178 739 178 739 311 868 c 1,27,-1
 244 946 l 1,28,-1
 401 1102 l 1,29,-1
 1085 375 l 2,30,31
 1169 285 1169 285 1212 250 c 1,32,33
 1257 227 1257 227 1358 227 c 1,34,-1
 1358 225 l 1,35,-1
 1419 223 l 1,36,-1
 1497 223 l 2,37,38
 1585 223 1585 223 1622 266 c 0,39,40
 1636 281 1636 281 1649 322 c 0,41,42
 1663 362 1663 362 1663 449 c 2,43,-1
 1663 1466 l 1,44,-1
 1888 1466 l 1,45,-1
 1888 406 l 2,46,47
 1888 285 1888 285 1964 246 c 1,48,49
 2038 227 2038 227 2179 227 c 2,50,-1
 2318 227 l 2,51,52
 2408 227 2408 227 2449 285 c 1,53,54
 2474 334 2474 334 2474 449 c 2,55,-1
 2474 1466 l 1,56,-1
 2697 1466 l 1,57,-1
 2697 352 l 2,0,1
700 395 m 0,58,59
 700 453 700 453 659 520 c 1,60,-1
 477 702 l 1,61,62
 348 584 348 584 311 522 c 0,63,64
 274 463 274 463 274 395 c 0,65,66
 274 338 274 338 326 264 c 0,67,68
 379 193 379 193 483 193 c 0,69,70
 584 193 584 193 649 270 c 0,71,72
 700 328 700 328 700 395 c 0,58,59
EndSplineSet
EndChar

StartChar: afii64184
Encoding: 65010 65010 148
Width: 2859
GlyphClass: 3
Flags: W
AnchorPoint: "Anchor-1" 2430 -360 baselig 0
AnchorPoint: "Anchor-0" 2580 1680 baselig 0
AnchorPoint: "Anchor-1" 1725 -495 baselig 1
AnchorPoint: "Anchor-0" 1830 1305 baselig 1
AnchorPoint: "Anchor-1" 630 -495 baselig 2
AnchorPoint: "Anchor-0" 330 1290 baselig 2
LayerCount: 2
Fore
SplineSet
2697 352 m 2,0,1
 2697 219 2697 219 2630 131 c 0,2,3
 2527 0 2527 0 2329 0 c 2,4,-1
 2111 0 l 2,5,6
 1980 0 1980 0 1917 14 c 0,7,8
 1855 31 1855 31 1782 92 c 1,9,10
 1700 25 1700 25 1628 10 c 0,11,12
 1569 0 1569 0 1327 0 c 1,13,14
 1190 4 1190 4 1139 41 c 1,15,16
 1112 53 1112 53 899 246 c 1,17,18
 770 -27 770 -27 479 -27 c 0,19,20
 301 -27 301 -27 172 100 c 256,21,22
 43 227 43 227 43 412 c 0,23,24
 43 537 43 537 131 666 c 0,25,26
 178 739 178 739 311 868 c 1,27,-1
 244 946 l 1,28,-1
 401 1102 l 1,29,-1
 1085 375 l 2,30,31
 1169 285 1169 285 1212 250 c 1,32,33
 1257 227 1257 227 1358 227 c 1,34,-1
 1358 225 l 1,35,-1
 1419 223 l 1,36,-1
 1497 223 l 2,37,38
 1585 223 1585 223 1622 266 c 0,39,40
 1636 281 1636 281 1649 322 c 0,41,42
 1663 362 1663 362 1663 449 c 2,43,-1
 1663 1226 l 1,44,-1
 1888 1226 l 1,45,-1
 1888 406 l 2,46,47
 1888 285 1888 285 1964 246 c 1,48,49
 2038 227 2038 227 2179 227 c 2,50,-1
 2318 227 l 2,51,52
 2408 227 2408 227 2449 285 c 1,53,54
 2474 334 2474 334 2474 449 c 2,55,-1
 2474 1466 l 1,56,-1
 2697 1466 l 1,57,-1
 2697 352 l 2,0,1
700 395 m 0,58,59
 700 453 700 453 659 520 c 1,60,-1
 477 702 l 1,61,62
 348 584 348 584 311 522 c 0,63,64
 274 463 274 463 274 395 c 0,65,66
 274 338 274 338 326 264 c 0,67,68
 379 193 379 193 483 193 c 0,69,70
 584 193 584 193 649 270 c 0,71,72
 700 328 700 328 700 395 c 0,58,59
1522 1585 m 1,73,-1
 1628 1585 l 1,74,-1
 1628 1456 l 2,75,76
 1628 1425 1628 1425 1672 1422 c 128,-1,77
 1716 1419 1716 1419 1716 1456 c 2,78,-1
 1716 1585 l 1,79,-1
 1819 1585 l 1,80,-1
 1819 1456 l 2,81,82
 1819 1435 1819 1435 1834 1426 c 128,-1,83
 1849 1417 1849 1417 1878 1418 c 128,-1,84
 1907 1419 1907 1419 1907 1450 c 2,85,-1
 1907 1585 l 1,86,-1
 2017 1585 l 1,87,-1
 2017 1454 l 2,88,89
 2017 1388 2017 1388 1985 1355 c 1,90,91
 1950 1304 1950 1304 1884 1304 c 0,92,93
 1819 1304 1819 1304 1772 1355 c 1,94,95
 1741 1304 1741 1304 1649 1304 c 0,96,97
 1589 1304 1589 1304 1555.5 1346 c 128,-1,98
 1522 1388 1522 1388 1522 1454 c 2,99,-1
 1522 1585 l 1,73,-1
1811 1692 m 1,100,-1
 1707 1692 l 1,101,-1
 1707 2044 l 1,102,-1
 1811 2044 l 1,103,-1
 1811 1692 l 1,100,-1
EndSplineSet
Ligature2: "'rlig' Required Ligatures in Arabic lookup 5 subtable" afii62817 afii62818 uniFC63 afii62828
Ligature2: "'rlig' Required Ligatures in Arabic lookup 5 subtable" afii62817 afii62818 afii57457 uni0670 afii62828
EndChar

StartChar: afii57415.001
Encoding: 1575 1575 162
Width: 568
GlyphClass: 2
Flags: W
AnchorPoint: "Anchor-3" 405 -405 basechar 0
AnchorPoint: "Anchor-2" 390 1635 basechar 0
LayerCount: 2
Fore
SplineSet
477 0 m 1,0,-1
 250 0 l 1,1,-1
 250 1466 l 1,2,-1
 477 1466 l 1,3,-1
 477 0 l 1,0,-1
EndSplineSet
Substitution2: "'fina' Terminal Forms in Arabic lookup 2 subtable" afii62760
EndChar

StartChar: afii62760.001
Encoding: 65558 -1 163
Width: 655
GlyphClass: 2
Flags: W
LayerCount: 2
Fore
SplineSet
690 0 m 1,0,1
 391 0 391 0 281 111 c 1,2,3
 203 197 203 197 203 352 c 2,4,-1
 203 1434 l 1,5,-1
 432 1434 l 1,6,-1
 432 449 l 2,7,8
 432 295 432 295 473 261 c 128,-1,9
 514 227 514 227 690 227 c 1,10,-1
 690 0 l 1,0,1
EndSplineSet
EndChar

StartChar: afii57421
Encoding: 1581 1581 182
Width: 1540
GlyphClass: 2
Flags: W
AnchorPoint: "Anchor-3" 960 -1560 basechar 0
AnchorPoint: "Anchor-2" 810 1350 basechar 0
LayerCount: 2
Fore
SplineSet
1573 -1106 m 1,0,-1
 948 -1106 l 2,1,2
 586 -1106 586 -1106 360 -846 c 1,3,4
 194 -643 194 -643 194 -399 c 2,5,-1
 194 -352 l 1,6,-1
 200 -301 l 2,7,8
 235 16 235 16 528 172 c 2,9,-1
 1233 557 l 1,10,11
 1181 655 1181 655 1083 672.5 c 128,-1,12
 985 690 985 690 471 690 c 1,13,-1
 438 913 l 1,14,-1
 991 913 l 2,15,16
 1218 913 1218 913 1343 792.5 c 128,-1,17
 1468 672 1468 672 1468 442 c 1,18,-1
 719 20 l 2,19,20
 411 -152 411 -152 411 -406 c 0,21,22
 411 -588 411 -588 565 -731 c 128,-1,23
 719 -874 719 -874 887 -874 c 2,24,-1
 1552 -874 l 1,25,-1
 1573 -1106 l 1,0,-1
EndSplineSet
Substitution2: "'medi' Medial Forms in Arabic lookup 3 subtable" afii62775
Substitution2: "'fina' Terminal Forms in Arabic lookup 2 subtable" afii62776
Substitution2: "'init' Initial Forms in Arabic lookup 1 subtable" afii62774
EndChar

StartChar: afii62776
Encoding: 65186 65186 183
Width: 1513
GlyphClass: 2
Flags: W
AnchorPoint: "Anchor-3" 870 -1575 basechar 0
AnchorPoint: "Anchor-2" 825 1290 basechar 0
LayerCount: 2
Fore
SplineSet
1572 0 m 1,0,1
 1380 0 1380 0 1279 51 c 0,2,3
 1208 88 1208 88 1177 160 c 1,4,-1
 1148 270 l 1,5,-1
 698 20 l 2,6,7
 395 -152 395 -152 395 -406 c 0,8,9
 395 -588 395 -588 546.5 -731 c 128,-1,10
 698 -874 698 -874 868 -874 c 2,11,-1
 1535 -874 l 1,12,-1
 1554 -1106 l 1,13,-1
 927 -1106 l 2,14,15
 569 -1106 569 -1106 343 -846 c 1,16,17
 178 -643 178 -643 178 -399 c 2,18,-1
 178 -352 l 1,19,-1
 182 -301 l 1,20,21
 214 16 214 16 511 172 c 1,22,-1
 1216 557 l 1,23,24
 1161 655 1161 655 1062.5 672.5 c 128,-1,25
 964 690 964 690 454 690 c 1,26,-1
 421 913 l 1,27,-1
 972 913 l 2,28,29
 1202 913 1202 913 1326.5 792.5 c 128,-1,30
 1451 672 1451 672 1451 442 c 1,31,-1
 1243 324 l 1,32,33
 1253 264 1253 264 1334 245.5 c 128,-1,34
 1415 227 1415 227 1572 227 c 1,35,-1
 1572 0 l 1,0,1
EndSplineSet
EndChar

StartChar: afii62774
Encoding: 65187 65187 184
Width: 1309
GlyphClass: 2
Flags: W
AnchorPoint: "Anchor-3" 750 -690 basechar 0
AnchorPoint: "Anchor-2" 555 1260 basechar 0
LayerCount: 2
Fore
SplineSet
1264 442 m 1,0,-1
 739 145 l 2,1,2
 567 47 567 47 418.5 23.5 c 128,-1,3
 270 0 270 0 -53 0 c 1,4,-1
 -53 227 l 1,5,-1
 129 227 l 2,6,7
 260 227 260 227 303 240 c 1,8,9
 446 256 446 256 571 313 c 0,10,11
 655 348 655 348 797 436 c 1,12,-1
 1014 555 l 1,13,14
 981 641 981 641 858 672 c 1,15,16
 748 690 748 690 266 690 c 1,17,-1
 233 913 l 1,18,-1
 797 913 l 2,19,20
 1264 913 1264 913 1264 442 c 1,0,-1
EndSplineSet
EndChar

StartChar: afii62775
Encoding: 65188 65188 185
Width: 1309
GlyphClass: 2
Flags: W
AnchorPoint: "Anchor-3" 675 -720 basechar 0
AnchorPoint: "Anchor-2" 480 1305 basechar 0
LayerCount: 2
Fore
SplineSet
1346 0 m 1,0,1
 1163 0 1163 0 1077 43 c 0,2,3
 1020 72 1020 72 983 152 c 1,4,-1
 956 270 l 1,5,6
 817 182 817 182 686 119 c 0,7,8
 571 68 571 68 498 41 c 1,9,10
 342 0 342 0 -53 0 c 1,11,-1
 -53 227 l 1,12,-1
 129 227 l 2,13,14
 260 227 260 227 303 240 c 1,15,16
 446 256 446 256 571 313 c 0,17,18
 655 348 655 348 797 436 c 1,19,-1
 1014 555 l 1,20,21
 981 641 981 641 858 672 c 1,22,23
 748 690 748 690 266 690 c 1,24,-1
 233 913 l 1,25,-1
 797 913 l 2,26,27
 1020 913 1020 913 1142 792.5 c 128,-1,28
 1264 672 1264 672 1264 440 c 1,29,-1
 1051 324 l 1,30,31
 1051 227 1051 227 1346 227 c 1,32,-1
 1346 0 l 1,0,1
EndSplineSet
EndChar

StartChar: afii57423
Encoding: 1583 1583 190
Width: 1305
GlyphClass: 2
Flags: W
AnchorPoint: "Anchor-3" 510 -585 basechar 0
AnchorPoint: "Anchor-2" 495 1410 basechar 0
LayerCount: 2
Fore
SplineSet
1248 303 m 0,0,1
 1248 168 1248 168 1156 84 c 128,-1,2
 1064 0 1064 0 910 0 c 2,3,-1
 208 0 l 1,4,-1
 175 227 l 1,5,-1
 898 227 l 2,6,7
 1027 227 1027 227 1027 317 c 0,8,9
 1027 365 1027 365 988 401 c 2,10,-1
 476 946 l 1,11,-1
 629 1102 l 1,12,-1
 1148 555 l 1,13,14
 1248 442 1248 442 1248 303 c 0,0,1
EndSplineSet
Substitution2: "'fina' Terminal Forms in Arabic lookup 2 subtable" afii62780
EndChar

StartChar: afii62780
Encoding: 65194 65194 191
Width: 1569
GlyphClass: 2
Flags: W
AnchorPoint: "Anchor-3" 555 -525 basechar 0
AnchorPoint: "Anchor-2" 435 1470 basechar 0
LayerCount: 2
Fore
SplineSet
1595 0 m 1,0,-1
 1486 0 l 2,1,2
 1357 0 1357 0 1199 160 c 1,3,4
 1160 98 1160 98 1103 47 c 1,5,6
 1029 0 1029 0 890 0 c 2,7,-1
 188 0 l 1,8,-1
 155 227 l 1,9,-1
 878 227 l 2,10,11
 1007 227 1007 227 1007 313 c 0,12,13
 1007 365 1007 365 968 401 c 2,14,-1
 456 946 l 1,15,-1
 609 1102 l 1,16,-1
 1296 375 l 2,17,18
 1398 270 1398 270 1449 244 c 0,19,20
 1480 227 1480 227 1595 227 c 1,21,-1
 1595 0 l 1,0,-1
EndSplineSet
EndChar

StartChar: afii57425
Encoding: 1585 1585 194
Width: 1039
GlyphClass: 2
Flags: W
AnchorPoint: "Anchor-3" 390 -1155 basechar 0
AnchorPoint: "Anchor-2" 585 1095 basechar 0
LayerCount: 2
Fore
SplineSet
971 41 m 2,0,1
 971 -207 971 -207 806 -392.5 c 128,-1,2
 641 -578 641 -578 399 -578 c 2,3,-1
 98 -578 l 1,4,-1
 57 -344 l 1,5,-1
 313 -344 l 2,6,7
 516 -344 516 -344 635 -233 c 0,8,9
 733 -145 733 -145 733 -16 c 2,10,-1
 733 719 l 1,11,-1
 971 719 l 1,12,-1
 971 41 l 2,0,1
EndSplineSet
Substitution2: "'fina' Terminal Forms in Arabic lookup 2 subtable" afii62782
PairPos2: "'kern' Horizontal Kerning in Arabic lookup 1 subtable" afii57470 dx=0 dy=0 dh=0 dv=0 dx=0 dy=0 dh=-100 dv=0
PairPos2: "'kern' Horizontal Kerning in Arabic lookup 1 subtable" afii57415 dx=0 dy=0 dh=0 dv=0 dx=0 dy=0 dh=-150 dv=0
PairPos2: "'kern' Horizontal Kerning in Arabic lookup 1 subtable" afii62840 dx=0 dy=0 dh=0 dv=0 dx=0 dy=0 dh=-200 dv=0
PairPos2: "'kern' Horizontal Kerning in Arabic lookup 1 subtable" afii62838 dx=0 dy=0 dh=0 dv=0 dx=0 dy=0 dh=-200 dv=0
PairPos2: "'kern' Horizontal Kerning in Arabic lookup 1 subtable" afii62836 dx=0 dy=0 dh=0 dv=0 dx=0 dy=0 dh=-200 dv=0
PairPos2: "'kern' Horizontal Kerning in Arabic lookup 1 subtable" afii62834 dx=0 dy=0 dh=0 dv=0 dx=0 dy=0 dh=-200 dv=0
PairPos2: "'kern' Horizontal Kerning in Arabic lookup 1 subtable" afii57415.001 dx=0 dy=0 dh=0 dv=0 dx=0 dy=0 dh=-150 dv=0
PairPos2: "'kern' Horizontal Kerning in Arabic lookup 1 subtable" afii52400 dx=0 dy=0 dh=0 dv=0 dx=0 dy=0 dh=-250 dv=0
PairPos2: "'kern' Horizontal Kerning in Arabic lookup 0 subtable" uni0675 dx=0 dy=0 dh=0 dv=0 dx=0 dy=0 dh=-90 dv=0
PairPos2: "'kern' Horizontal Kerning in Arabic lookup 0 subtable" uni0672 dx=0 dy=0 dh=0 dv=0 dx=0 dy=0 dh=-90 dv=0
PairPos2: "'kern' Horizontal Kerning in Arabic lookup 0 subtable" afii62831 dx=0 dy=0 dh=0 dv=0 dx=0 dy=0 dh=70 dv=0
PairPos2: "'kern' Horizontal Kerning in Arabic lookup 0 subtable" afii62823 dx=0 dy=0 dh=0 dv=0 dx=0 dy=0 dh=-80 dv=0
PairPos2: "'kern' Horizontal Kerning in Arabic lookup 0 subtable" afii62817 dx=0 dy=0 dh=0 dv=0 dx=0 dy=0 dh=-50 dv=0
PairPos2: "'kern' Horizontal Kerning in Arabic lookup 0 subtable" afii57410 dx=0 dy=0 dh=0 dv=0 dx=0 dy=0 dh=-60 dv=0
PairPos2: "'kern' Horizontal Kerning in Arabic lookup 0 subtable" afii57443 dx=0 dy=0 dh=0 dv=0 dx=0 dy=0 dh=-80 dv=0
PairPos2: "'kern' Horizontal Kerning in Arabic lookup 0 subtable" afii57441 dx=0 dy=0 dh=0 dv=0 dx=0 dy=0 dh=-50 dv=0
PairPos2: "'kern' Horizontal Kerning in Arabic lookup 0 subtable" afii62799 dx=0 dy=0 dh=0 dv=0 dx=0 dy=0 dh=-50 dv=0
PairPos2: "'kern' Horizontal Kerning in Arabic lookup 0 subtable" afii57432 dx=0 dy=0 dh=0 dv=0 dx=0 dy=0 dh=-50 dv=0
PairPos2: "'kern' Horizontal Kerning in Arabic lookup 0 subtable" afii62796 dx=0 dy=0 dh=0 dv=0 dx=0 dy=0 dh=-50 dv=0
PairPos2: "'kern' Horizontal Kerning in Arabic lookup 0 subtable" afii57431 dx=0 dy=0 dh=0 dv=0 dx=0 dy=0 dh=-50 dv=0
PairPos2: "'kern' Horizontal Kerning in Arabic lookup 0 subtable" afii62793 dx=0 dy=0 dh=0 dv=0 dx=0 dy=0 dh=-70 dv=0
PairPos2: "'kern' Horizontal Kerning in Arabic lookup 0 subtable" afii57430 dx=0 dy=0 dh=0 dv=0 dx=0 dy=0 dh=-80 dv=0
PairPos2: "'kern' Horizontal Kerning in Arabic lookup 0 subtable" afii62790 dx=0 dy=0 dh=0 dv=0 dx=0 dy=0 dh=-70 dv=0
PairPos2: "'kern' Horizontal Kerning in Arabic lookup 0 subtable" afii57429 dx=0 dy=0 dh=0 dv=0 dx=0 dy=0 dh=-80 dv=0
PairPos2: "'kern' Horizontal Kerning in Arabic lookup 0 subtable" afii62787 dx=0 dy=0 dh=0 dv=0 dx=0 dy=0 dh=-70 dv=0
PairPos2: "'kern' Horizontal Kerning in Arabic lookup 0 subtable" afii57428 dx=0 dy=0 dh=0 dv=0 dx=0 dy=0 dh=-80 dv=0
PairPos2: "'kern' Horizontal Kerning in Arabic lookup 0 subtable" afii62784 dx=0 dy=0 dh=0 dv=0 dx=0 dy=0 dh=-70 dv=0
PairPos2: "'kern' Horizontal Kerning in Arabic lookup 0 subtable" afii57427 dx=0 dy=0 dh=0 dv=0 dx=0 dy=0 dh=-80 dv=0
PairPos2: "'kern' Horizontal Kerning in Arabic lookup 0 subtable" afii62777 dx=0 dy=0 dh=0 dv=0 dx=0 dy=0 dh=-80 dv=0
PairPos2: "'kern' Horizontal Kerning in Arabic lookup 0 subtable" afii62774 dx=0 dy=0 dh=0 dv=0 dx=0 dy=0 dh=-80 dv=0
PairPos2: "'kern' Horizontal Kerning in Arabic lookup 0 subtable" afii62771 dx=0 dy=0 dh=0 dv=0 dx=0 dy=0 dh=-80 dv=0
PairPos2: "'kern' Horizontal Kerning in Arabic lookup 0 subtable" afii62768 dx=0 dy=0 dh=0 dv=0 dx=0 dy=0 dh=-80 dv=0
PairPos2: "'kern' Horizontal Kerning in Arabic lookup 0 subtable" afii57419 dx=0 dy=0 dh=0 dv=0 dx=0 dy=0 dh=-50 dv=0
PairPos2: "'kern' Horizontal Kerning in Arabic lookup 0 subtable" afii62765 dx=0 dy=0 dh=0 dv=0 dx=0 dy=0 dh=-80 dv=0
PairPos2: "'kern' Horizontal Kerning in Arabic lookup 0 subtable" afii57418 dx=0 dy=0 dh=0 dv=0 dx=0 dy=0 dh=-50 dv=0
PairPos2: "'kern' Horizontal Kerning in Arabic lookup 0 subtable" afii62761 dx=0 dy=0 dh=0 dv=0 dx=0 dy=0 dh=70 dv=0
PairPos2: "'kern' Horizontal Kerning in Arabic lookup 0 subtable" afii57416 dx=0 dy=0 dh=0 dv=0 dx=0 dy=0 dh=-50 dv=0
PairPos2: "'kern' Horizontal Kerning in Arabic lookup 0 subtable" afii62757 dx=0 dy=0 dh=0 dv=0 dx=0 dy=0 dh=-80 dv=0
PairPos2: "'kern' Horizontal Kerning in Arabic lookup 0 subtable" afii57413 dx=0 dy=0 dh=0 dv=0 dx=0 dy=0 dh=80 dv=0
PairPos2: "'kern' Horizontal Kerning in Arabic lookup 0 subtable" afii57411 dx=0 dy=0 dh=0 dv=0 dx=0 dy=0 dh=-90 dv=0
PairPos2: "'kern' Horizontal Kerning in Arabic lookup 0 subtable" afii52399 dx=0 dy=0 dh=0 dv=0 dx=0 dy=0 dh=-50 dv=0
PairPos2: "'kern' Horizontal Kerning in Arabic lookup 0 subtable" afii62965 dx=0 dy=0 dh=0 dv=0 dx=0 dy=0 dh=-60 dv=0
PairPos2: "'kern' Horizontal Kerning in Arabic lookup 0 subtable" afii52305 dx=0 dy=0 dh=0 dv=0 dx=0 dy=0 dh=-60 dv=0
PairPos2: "'kern' Horizontal Kerning in Arabic lookup 0 subtable" afii57567 dx=0 dy=0 dh=0 dv=0 dx=0 dy=0 dh=-60 dv=0
PairPos2: "'kern' Horizontal Kerning in Arabic lookup 0 subtable" afii62959 dx=0 dy=0 dh=0 dv=0 dx=0 dy=0 dh=-80 dv=0
PairPos2: "'kern' Horizontal Kerning in Arabic lookup 0 subtable" afii57505 dx=0 dy=0 dh=0 dv=0 dx=0 dy=0 dh=-50 dv=0
PairPos2: "'kern' Horizontal Kerning in Arabic lookup 0 subtable" afii62956 dx=0 dy=0 dh=0 dv=0 dx=0 dy=0 dh=70 dv=0
PairPos2: "'kern' Horizontal Kerning in Arabic lookup 0 subtable" afii57506 dx=0 dy=0 dh=0 dv=0 dx=0 dy=0 dh=-50 dv=0
EndChar

StartChar: afii62782
Encoding: 65198 65198 195
Width: 1163
GlyphClass: 2
Flags: W
AnchorPoint: "Anchor-3" 360 -1170 basechar 0
AnchorPoint: "Anchor-2" 630 1110 basechar 0
LayerCount: 2
Fore
SplineSet
1200 0 m 1,0,1
 1030 0 1030 0 956 109 c 1,2,3
 956 -207 956 -207 778 -412 c 1,4,5
 612 -578 612 -578 379 -578 c 2,6,-1
 84 -578 l 1,7,-1
 43 -352 l 1,8,-1
 358 -352 l 2,9,10
 500 -352 500 -352 613.5 -256 c 128,-1,11
 727 -160 727 -160 727 -16 c 2,12,-1
 727 719 l 1,13,-1
 952 719 l 1,14,-1
 952 389 l 2,15,16
 952 227 952 227 1200 227 c 1,17,-1
 1200 0 l 1,0,1
EndSplineSet
PairPos2: "'kern' Horizontal Kerning in Arabic lookup 1 subtable" afii57470 dx=0 dy=0 dh=0 dv=0 dx=0 dy=0 dh=-100 dv=0
PairPos2: "'kern' Horizontal Kerning in Arabic lookup 1 subtable" afii57415 dx=0 dy=0 dh=0 dv=0 dx=0 dy=0 dh=-150 dv=0
PairPos2: "'kern' Horizontal Kerning in Arabic lookup 1 subtable" afii62840 dx=0 dy=0 dh=0 dv=0 dx=0 dy=0 dh=-200 dv=0
PairPos2: "'kern' Horizontal Kerning in Arabic lookup 1 subtable" afii62838 dx=0 dy=0 dh=0 dv=0 dx=0 dy=0 dh=-200 dv=0
PairPos2: "'kern' Horizontal Kerning in Arabic lookup 1 subtable" afii62836 dx=0 dy=0 dh=0 dv=0 dx=0 dy=0 dh=-200 dv=0
PairPos2: "'kern' Horizontal Kerning in Arabic lookup 1 subtable" afii62834 dx=0 dy=0 dh=0 dv=0 dx=0 dy=0 dh=-200 dv=0
PairPos2: "'kern' Horizontal Kerning in Arabic lookup 1 subtable" afii57415.001 dx=0 dy=0 dh=0 dv=0 dx=0 dy=0 dh=-150 dv=0
PairPos2: "'kern' Horizontal Kerning in Arabic lookup 1 subtable" afii52400 dx=0 dy=0 dh=0 dv=0 dx=0 dy=0 dh=-250 dv=0
PairPos2: "'kern' Horizontal Kerning in Arabic lookup 0 subtable" uni0675 dx=0 dy=0 dh=0 dv=0 dx=0 dy=0 dh=-70 dv=0
PairPos2: "'kern' Horizontal Kerning in Arabic lookup 0 subtable" uni0672 dx=0 dy=0 dh=0 dv=0 dx=0 dy=0 dh=-70 dv=0
PairPos2: "'kern' Horizontal Kerning in Arabic lookup 0 subtable" afii62831 dx=0 dy=0 dh=0 dv=0 dx=0 dy=0 dh=150 dv=0
PairPos2: "'kern' Horizontal Kerning in Arabic lookup 0 subtable" afii62823 dx=0 dy=0 dh=0 dv=0 dx=0 dy=0 dh=-70 dv=0
PairPos2: "'kern' Horizontal Kerning in Arabic lookup 0 subtable" afii57443 dx=0 dy=0 dh=0 dv=0 dx=0 dy=0 dh=-50 dv=0
PairPos2: "'kern' Horizontal Kerning in Arabic lookup 0 subtable" afii62768 dx=0 dy=0 dh=0 dv=0 dx=0 dy=0 dh=-70 dv=0
PairPos2: "'kern' Horizontal Kerning in Arabic lookup 0 subtable" afii62765 dx=0 dy=0 dh=0 dv=0 dx=0 dy=0 dh=-70 dv=0
PairPos2: "'kern' Horizontal Kerning in Arabic lookup 0 subtable" afii62761 dx=0 dy=0 dh=0 dv=0 dx=0 dy=0 dh=150 dv=0
PairPos2: "'kern' Horizontal Kerning in Arabic lookup 0 subtable" afii62757 dx=0 dy=0 dh=0 dv=0 dx=0 dy=0 dh=-70 dv=0
PairPos2: "'kern' Horizontal Kerning in Arabic lookup 0 subtable" afii57413 dx=0 dy=0 dh=0 dv=0 dx=0 dy=0 dh=100 dv=0
PairPos2: "'kern' Horizontal Kerning in Arabic lookup 0 subtable" afii57411 dx=0 dy=0 dh=0 dv=0 dx=0 dy=0 dh=-70 dv=0
PairPos2: "'kern' Horizontal Kerning in Arabic lookup 0 subtable" afii62956 dx=0 dy=0 dh=0 dv=0 dx=0 dy=0 dh=150 dv=0
EndChar

StartChar: afii57427
Encoding: 1587 1587 198
Width: 2807
GlyphClass: 2
Flags: W
AnchorPoint: "Anchor-3" 1305 -1005 basechar 0
AnchorPoint: "Anchor-2" 1965 1200 basechar 0
LayerCount: 2
Fore
SplineSet
2746 365 m 2,0,1
 2746 186 2746 186 2657 80.5 c 128,-1,2
 2568 -25 2568 -25 2437 -25 c 0,3,4
 2281 -25 2281 -25 2116 131 c 1,5,6
 2001 -25 2001 -25 1841 -25 c 0,7,8
 1724 -25 1724 -25 1585 72 c 1,9,10
 1585 -209 1585 -209 1421 -393.5 c 128,-1,11
 1257 -578 1257 -578 1020 -578 c 2,12,-1
 670 -578 l 2,13,14
 446 -578 446 -578 277.5 -402.5 c 128,-1,15
 109 -227 109 -227 109 14 c 2,16,-1
 109 489 l 1,17,-1
 332 489 l 1,18,-1
 332 4 l 2,19,20
 332 -145 332 -145 434.5 -248.5 c 128,-1,21
 537 -352 537 -352 700 -352 c 2,22,-1
 993 -352 l 2,23,24
 1155 -352 1155 -352 1256.5 -252 c 128,-1,25
 1358 -152 1358 -152 1358 4 c 2,26,-1
 1358 719 l 1,27,-1
 1585 719 l 1,28,-1
 1585 379 l 2,29,30
 1585 291 1585 291 1659 238 c 0,31,32
 1716 193 1716 193 1784 193 c 0,33,34
 1935 193 1935 193 1935 338 c 2,35,-1
 1935 719 l 1,36,-1
 2167 719 l 1,37,-1
 2167 381 l 2,38,39
 2167 303 2167 303 2236 238 c 1,40,41
 2298 193 2298 193 2359 193 c 0,42,43
 2517 193 2517 193 2517 338 c 2,44,-1
 2517 719 l 1,45,-1
 2746 719 l 1,46,-1
 2746 365 l 2,0,1
EndSplineSet
Substitution2: "'medi' Medial Forms in Arabic lookup 3 subtable" afii62785
Substitution2: "'fina' Terminal Forms in Arabic lookup 2 subtable" afii62786
Substitution2: "'init' Initial Forms in Arabic lookup 1 subtable" afii62784
EndChar

StartChar: afii62786
Encoding: 65202 65202 199
Width: 2916
GlyphClass: 2
Flags: W
AnchorPoint: "Anchor-3" 1575 -990 basechar 0
AnchorPoint: "Anchor-2" 1785 1245 basechar 0
LayerCount: 2
Fore
SplineSet
2959 0 m 1,0,-1
 2865 4 l 2,1,2
 2822 4 2822 4 2798 14 c 1,3,4
 2699 31 2699 31 2642 125 c 1,5,6
 2542 -25 2542 -25 2361 -25 c 0,7,8
 2189 -25 2189 -25 2062 131 c 1,9,10
 1935 -31 1935 -31 1778 -31 c 0,11,12
 1649 -31 1649 -31 1540 72 c 1,13,14
 1540 -209 1540 -209 1376 -393.5 c 128,-1,15
 1212 -578 1212 -578 977 -578 c 2,16,-1
 618 -578 l 2,17,18
 395 -578 395 -578 226 -402.5 c 128,-1,19
 57 -227 57 -227 57 14 c 2,20,-1
 57 489 l 1,21,-1
 285 489 l 1,22,-1
 285 4 l 2,23,24
 285 -145 285 -145 389.5 -248.5 c 128,-1,25
 494 -352 494 -352 649 -352 c 2,26,-1
 946 -352 l 2,27,28
 1106 -352 1106 -352 1208.5 -252 c 128,-1,29
 1311 -152 1311 -152 1311 4 c 2,30,-1
 1311 719 l 1,31,-1
 1540 719 l 1,32,-1
 1540 379 l 2,33,34
 1540 301 1540 301 1612 238 c 0,35,36
 1669 193 1669 193 1737 193 c 0,37,38
 1888 193 1888 193 1888 338 c 2,39,-1
 1888 719 l 1,40,-1
 2122 719 l 1,41,-1
 2122 381 l 2,42,43
 2122 303 2122 303 2189 238 c 1,44,45
 2247 193 2247 193 2314 193 c 0,46,47
 2474 193 2474 193 2474 338 c 2,48,-1
 2474 719 l 1,49,-1
 2699 719 l 1,50,-1
 2699 365 l 2,51,52
 2699 291 2699 291 2781 246 c 1,53,-1
 2853 233 l 1,54,-1
 2959 227 l 1,55,-1
 2959 0 l 1,0,-1
EndSplineSet
EndChar

StartChar: afii62784
Encoding: 65203 65203 200
Width: 1845
GlyphClass: 2
Flags: W
AnchorPoint: "Anchor-3" 945 -660 basechar 0
AnchorPoint: "Anchor-2" 1020 1260 basechar 0
LayerCount: 2
Fore
SplineSet
1763 365 m 2,0,1
 1763 176 1763 176 1671 74.5 c 128,-1,2
 1579 -27 1579 -27 1444 -27 c 0,3,4
 1278 -27 1278 -27 1128 129 c 1,5,6
 997 -25 997 -25 848 -25 c 0,7,8
 700 -25 700 -25 537 160 c 1,9,10
 479 98 479 98 399 41 c 1,11,12
 324 0 324 0 240 0 c 2,13,-1
 -51 0 l 1,14,-1
 -51 227 l 1,15,-1
 219 227 l 2,16,17
 303 227 303 227 344 265 c 128,-1,18
 385 303 385 303 385 399 c 2,19,-1
 385 719 l 1,20,-1
 604 719 l 1,21,-1
 604 381 l 2,22,23
 604 303 604 303 676 238 c 1,24,25
 737 193 737 193 807 193 c 0,26,27
 961 193 961 193 961 338 c 2,28,-1
 961 719 l 1,29,-1
 1182 719 l 1,30,-1
 1182 381 l 2,31,32
 1182 295 1182 295 1257 238 c 0,33,34
 1317 193 1317 193 1382 193 c 0,35,36
 1540 193 1540 193 1540 338 c 2,37,-1
 1540 719 l 1,38,-1
 1763 719 l 1,39,-1
 1763 365 l 2,0,1
EndSplineSet
EndChar

StartChar: afii62785
Encoding: 65204 65204 201
Width: 1985
GlyphClass: 2
Flags: W
AnchorPoint: "Anchor-3" 930 -735 basechar 0
AnchorPoint: "Anchor-2" 990 1170 basechar 0
LayerCount: 2
Fore
SplineSet
2013 0 m 1,0,-1
 1919 4 l 2,1,2
 1872 4 1872 4 1849 14 c 1,3,4
 1753 37 1753 37 1704 125 c 1,5,6
 1597 -27 1597 -27 1444 -27 c 0,7,8
 1280 -27 1280 -27 1128 129 c 1,9,10
 989 -27 989 -27 801 -27 c 0,11,12
 612 -27 612 -27 489 135 c 1,13,14
 432 53 432 53 276 16 c 1,15,16
 182 0 182 0 -63 0 c 1,17,-1
 -63 227 l 1,18,19
 240 227 240 227 304.5 254 c 128,-1,20
 369 281 369 281 369 426 c 2,21,-1
 369 719 l 1,22,-1
 592 719 l 1,23,-1
 592 379 l 2,24,25
 592 291 592 291 666 238 c 0,26,27
 727 193 727 193 791 193 c 0,28,29
 942 193 942 193 942 338 c 2,30,-1
 942 719 l 1,31,-1
 1169 719 l 1,32,-1
 1169 381 l 2,33,34
 1169 295 1169 295 1241 238 c 0,35,36
 1300 193 1300 193 1368 193 c 0,37,38
 1524 193 1524 193 1524 338 c 2,39,-1
 1524 719 l 1,40,-1
 1751 719 l 1,41,-1
 1751 365 l 2,42,43
 1751 291 1751 291 1835 246 c 1,44,-1
 1907 233 l 1,45,-1
 2013 227 l 1,46,-1
 2013 0 l 1,0,-1
EndSplineSet
EndChar

StartChar: afii57429
Encoding: 1589 1589 206
Width: 2890
GlyphClass: 2
Flags: W
AnchorPoint: "Anchor-3" 1350 -1095 basechar 0
AnchorPoint: "Anchor-2" 1665 1245 basechar 0
LayerCount: 2
Fore
SplineSet
2824 406 m 0,0,1
 2824 238 2824 238 2722.5 119 c 128,-1,2
 2621 0 2621 0 2419 0 c 2,3,-1
 1800 0 l 2,4,5
 1606 0 1606 0 1559 121 c 1,6,7
 1559 -178 1559 -178 1396 -378 c 128,-1,8
 1233 -578 1233 -578 989 -578 c 2,9,-1
 641 -578 l 2,10,11
 412 -578 412 -578 245 -390.5 c 128,-1,12
 78 -203 78 -203 78 41 c 2,13,-1
 78 489 l 1,14,-1
 303 489 l 1,15,-1
 303 -16 l 2,16,17
 303 -125 303 -125 416.5 -234.5 c 128,-1,18
 530 -344 530 -344 662 -344 c 2,19,-1
 981 -344 l 2,20,21
 1112 -344 1112 -344 1219.5 -239.5 c 128,-1,22
 1327 -135 1327 -135 1327 -16 c 2,23,-1
 1327 719 l 1,24,-1
 1561 719 l 1,25,-1
 1561 379 l 2,26,27
 1561 227 1561 227 1782 227 c 1,28,29
 1907 557 1907 557 2077 735 c 128,-1,30
 2247 913 2247 913 2419 913 c 0,31,32
 2501 913 2501 913 2595 858 c 0,33,34
 2699 801 2699 801 2761 670 c 1,35,-1
 2808 537 l 1,36,37
 2824 477 2824 477 2824 406 c 0,0,1
2601 432 m 0,38,39
 2601 551 2601 551 2515 662 c 1,40,41
 2505 686 2505 686 2464 686 c 0,42,43
 2365 686 2365 686 2232 543.5 c 128,-1,44
 2099 401 2099 401 2013 227 c 1,45,-1
 2458 227 l 2,46,47
 2517 227 2517 227 2559 289.5 c 128,-1,48
 2601 352 2601 352 2601 432 c 0,38,39
EndSplineSet
Substitution2: "'medi' Medial Forms in Arabic lookup 3 subtable" afii62791
Substitution2: "'fina' Terminal Forms in Arabic lookup 2 subtable" afii62792
Substitution2: "'init' Initial Forms in Arabic lookup 1 subtable" afii62790
EndChar

StartChar: afii62792
Encoding: 65210 65210 207
Width: 2859
GlyphClass: 2
Flags: W
AnchorPoint: "Anchor-3" 1530 -1020 basechar 0
AnchorPoint: "Anchor-2" 1635 1335 basechar 0
LayerCount: 2
Fore
SplineSet
2900 0 m 1,0,-1
 1862 0 l 2,1,2
 1606 0 1606 0 1559 121 c 1,3,4
 1559 -217 1559 -217 1389 -410 c 0,5,6
 1237 -578 1237 -578 983 -578 c 2,7,-1
 629 -578 l 2,8,9
 391 -578 391 -578 233 -395 c 0,10,11
 166 -313 166 -313 119 -197 c 0,12,13
 78 -88 78 -88 78 41 c 2,14,-1
 78 489 l 1,15,-1
 297 489 l 1,16,-1
 297 -16 l 2,17,18
 297 -145 297 -145 400.5 -248.5 c 128,-1,19
 504 -352 504 -352 645 -352 c 2,20,-1
 967 -352 l 2,21,22
 1098 -352 1098 -352 1221 -227 c 0,23,24
 1325 -121 1325 -121 1325 -16 c 2,25,-1
 1325 719 l 1,26,-1
 1554 719 l 1,27,-1
 1554 379 l 2,28,29
 1554 227 1554 227 1772 227 c 1,30,31
 2044 915 2044 915 2398 915 c 0,32,33
 2501 915 2501 915 2600 856 c 128,-1,34
 2699 797 2699 797 2753.5 689.5 c 128,-1,35
 2808 582 2808 582 2808 440 c 0,36,37
 2808 348 2808 348 2771 227 c 1,38,-1
 2900 227 l 1,39,-1
 2900 0 l 1,0,-1
2572 449 m 0,40,41
 2572 594 2572 594 2505 662 c 0,42,43
 2494 670 2494 670 2437 682 c 1,44,45
 2331 682 2331 682 2206 537 c 1,46,47
 2111 436 2111 436 2003 227 c 1,48,-1
 2447 227 l 2,49,50
 2572 227 2572 227 2572 449 c 0,40,41
EndSplineSet
EndChar

StartChar: afii62790
Encoding: 65211 65211 208
Width: 1882
GlyphClass: 2
Flags: W
AnchorPoint: "Anchor-3" 825 -615 basechar 0
AnchorPoint: "Anchor-2" 795 1335 basechar 0
LayerCount: 2
Fore
SplineSet
1839 442 m 0,0,1
 1839 342 1839 342 1805.5 225.5 c 128,-1,2
 1772 109 1772 109 1720 68 c 0,3,4
 1638 0 1638 0 1440 0 c 2,5,-1
 858 0 l 2,6,7
 623 0 623 0 535 182 c 1,8,9
 399 0 399 0 223 0 c 2,10,-1
 -51 0 l 1,11,-1
 -51 227 l 1,12,-1
 203 227 l 2,13,14
 362 227 362 227 362 399 c 2,15,-1
 362 719 l 1,16,-1
 588 719 l 1,17,-1
 588 422 l 2,18,19
 588 227 588 227 811 227 c 1,20,21
 936 557 936 557 1100 735 c 128,-1,22
 1264 913 1264 913 1444 913 c 0,23,24
 1518 913 1518 913 1618 858 c 0,25,26
 1839 733 1839 733 1839 442 c 0,0,1
1612 449 m 0,27,28
 1612 592 1612 592 1540 662 c 0,29,30
 1528 670 1528 670 1473 682 c 1,31,32
 1378 682 1378 682 1241 537 c 0,33,34
 1135 422 1135 422 1038 227 c 1,35,-1
 1483 227 l 2,36,37
 1612 227 1612 227 1612 449 c 0,27,28
EndSplineSet
EndChar

StartChar: afii62791
Encoding: 65212 65212 209
Width: 1985
GlyphClass: 2
Flags: W
AnchorPoint: "Anchor-3" 855 -735 basechar 0
AnchorPoint: "Anchor-2" 900 1320 basechar 0
LayerCount: 2
Fore
SplineSet
2013 0 m 1,0,-1
 858 0 l 2,1,2
 623 0 623 0 535 182 c 1,3,4
 399 0 399 0 223 0 c 2,5,-1
 -51 0 l 1,6,-1
 -51 227 l 1,7,-1
 203 227 l 2,8,9
 362 227 362 227 362 399 c 2,10,-1
 362 719 l 1,11,-1
 588 719 l 1,12,-1
 588 422 l 2,13,14
 588 227 588 227 811 227 c 1,15,16
 936 557 936 557 1100 735 c 128,-1,17
 1264 913 1264 913 1444 913 c 0,18,19
 1528 913 1528 913 1622 858 c 0,20,21
 1839 729 1839 729 1839 442 c 0,22,23
 1839 352 1839 352 1808 227 c 1,24,-1
 2013 227 l 1,25,-1
 2013 0 l 1,0,-1
1612 449 m 0,26,27
 1612 592 1612 592 1540 662 c 0,28,29
 1528 670 1528 670 1473 682 c 1,30,31
 1378 682 1378 682 1241 537 c 0,32,33
 1135 422 1135 422 1038 227 c 1,34,-1
 1483 227 l 2,35,36
 1612 227 1612 227 1612 449 c 0,26,27
EndSplineSet
EndChar

StartChar: afii57431
Encoding: 1591 1591 214
Width: 1301
GlyphClass: 2
Flags: W
AnchorPoint: "Anchor-3" 555 -525 basechar 0
AnchorPoint: "Anchor-2" 900 1350 basechar 0
LayerCount: 2
Fore
SplineSet
1260 416 m 0,0,1
 1260 244 1260 244 1169 129 c 0,2,3
 1071 0 1071 0 895 0 c 2,4,-1
 102 0 l 1,5,-1
 57 227 l 1,6,-1
 246 227 l 1,7,-1
 246 1466 l 1,8,-1
 473 1466 l 1,9,-1
 473 649 l 1,10,11
 686 913 686 913 864 913 c 0,12,13
 932 913 932 913 1038 858 c 0,14,15
 1143 801 1143 801 1196 672 c 1,16,17
 1260 547 1260 547 1260 416 c 0,0,1
1028 457 m 0,18,19
 1028 602 1028 602 956 662 c 0,20,21
 946 670 946 670 889 682 c 1,22,23
 797 682 797 682 662 537 c 1,24,25
 537 416 537 416 457 227 c 1,26,-1
 895 227 l 2,27,28
 942 227 942 227 993 297 c 1,29,30
 1028 362 1028 362 1028 457 c 0,18,19
EndSplineSet
Substitution2: "'medi' Medial Forms in Arabic lookup 3 subtable" afii62797
Substitution2: "'fina' Terminal Forms in Arabic lookup 2 subtable" afii62798
Substitution2: "'init' Initial Forms in Arabic lookup 1 subtable" afii62796
EndChar

StartChar: afii62798
Encoding: 65218 65218 215
Width: 1325
GlyphClass: 2
Flags: W
AnchorPoint: "Anchor-3" 585 -570 basechar 0
AnchorPoint: "Anchor-2" 915 1455 basechar 0
LayerCount: 2
Fore
SplineSet
1348 0 m 1,0,-1
 98 0 l 1,1,-1
 51 227 l 1,2,-1
 244 227 l 1,3,-1
 244 1466 l 1,4,-1
 473 1466 l 1,5,-1
 473 649 l 1,6,7
 682 913 682 913 864 913 c 0,8,9
 930 913 930 913 1038 858 c 1,10,11
 1253 733 1253 733 1253 426 c 2,12,-1
 1253 395 l 1,13,-1
 1247 338 l 2,14,15
 1247 301 1247 301 1223 227 c 1,16,-1
 1348 227 l 1,17,-1
 1348 0 l 1,0,-1
1028 457 m 0,18,19
 1028 602 1028 602 956 662 c 0,20,21
 946 670 946 670 889 682 c 1,22,23
 797 682 797 682 662 537 c 1,24,25
 537 416 537 416 457 227 c 1,26,-1
 895 227 l 2,27,28
 942 227 942 227 993 297 c 1,29,30
 1028 362 1028 362 1028 457 c 0,18,19
EndSplineSet
EndChar

StartChar: afii62796
Encoding: 65219 65219 216
Width: 1249
GlyphClass: 2
Flags: W
AnchorPoint: "Anchor-3" 495 -660 basechar 0
AnchorPoint: "Anchor-2" 795 1470 basechar 0
LayerCount: 2
Fore
SplineSet
1165 416 m 0,0,1
 1165 244 1165 244 1075 129 c 0,2,3
 977 0 977 0 797 0 c 2,4,-1
 -43 0 l 1,5,-1
 -43 227 l 1,6,-1
 152 227 l 1,7,-1
 152 1466 l 1,8,-1
 379 1466 l 1,9,-1
 379 651 l 1,10,11
 584 913 584 913 768 913 c 0,12,13
 842 913 842 913 943 857 c 128,-1,14
 1044 801 1044 801 1104.5 676 c 128,-1,15
 1165 551 1165 551 1165 416 c 0,0,1
930 446 m 0,16,17
 930 602 930 602 854 662 c 0,18,19
 846 670 846 670 791 682 c 1,20,21
 696 682 696 682 557 537 c 0,22,23
 442 416 442 416 354 227 c 1,24,-1
 801 227 l 2,25,26
 930 227 930 227 930 446 c 0,16,17
EndSplineSet
EndChar

StartChar: afii62797
Encoding: 65220 65220 217
Width: 1202
GlyphClass: 2
Flags: W
AnchorPoint: "Anchor-3" 555 -645 basechar 0
AnchorPoint: "Anchor-2" 765 1395 basechar 0
LayerCount: 2
Fore
SplineSet
1227 0 m 1,0,-1
 -63 0 l 1,1,-1
 -63 227 l 1,2,-1
 102 227 l 1,3,-1
 102 1466 l 1,4,-1
 328 1466 l 1,5,-1
 328 649 l 1,6,7
 537 913 537 913 727 913 c 0,8,9
 791 913 791 913 893 858 c 0,10,11
 1108 733 1108 733 1108 432 c 0,12,13
 1108 313 1108 313 1075 227 c 1,14,-1
 1227 227 l 1,15,-1
 1227 0 l 1,0,-1
883 457 m 0,16,17
 883 602 883 602 815 662 c 0,18,19
 805 670 805 670 748 682 c 1,20,21
 651 682 651 682 516 537 c 0,22,23
 399 416 399 416 311 227 c 1,24,-1
 754 227 l 2,25,26
 801 227 801 227 852 297 c 1,27,28
 883 362 883 362 883 457 c 0,16,17
EndSplineSet
EndChar

StartChar: afii57433
Encoding: 1593 1593 222
Width: 1525
GlyphClass: 2
Flags: W
AnchorPoint: "Anchor-3" 960 -1620 basechar 0
AnchorPoint: "Anchor-2" 915 1230 basechar 0
LayerCount: 2
Fore
SplineSet
1497 -1106 m 1,0,-1
 895 -1106 l 2,1,2
 577 -1106 577 -1106 354 -883 c 0,3,4
 151 -676 151 -676 151 -401 c 0,5,6
 151 -199 151 -199 268 -29 c 128,-1,7
 385 141 385 141 630 244 c 1,8,9
 557 381 557 381 557 510 c 0,10,11
 557 692 557 692 678 807 c 1,12,13
 739 854 739 854 822 883.5 c 128,-1,14
 905 913 905 913 995 913 c 0,15,16
 1175 913 1175 913 1378 739 c 1,17,-1
 1269 565 l 1,18,19
 1077 700 1077 700 958 700 c 0,20,21
 833 700 833 700 796 573 c 0,22,23
 786 526 786 526 782 524 c 1,24,-1
 782 487 l 2,25,26
 782 422 782 422 811 352 c 0,27,28
 868 227 868 227 972 227 c 2,29,-1
 1425 227 l 1,30,-1
 1456 0 l 1,31,-1
 698 0 l 2,32,33
 557 0 557 0 469 -119 c 128,-1,34
 381 -238 381 -238 381 -406 c 0,35,36
 381 -588 381 -588 500.5 -731 c 128,-1,37
 620 -874 620 -874 841 -874 c 2,38,-1
 1462 -874 l 1,39,-1
 1497 -1106 l 1,0,-1
EndSplineSet
Substitution2: "'medi' Medial Forms in Arabic lookup 3 subtable" afii62803
Substitution2: "'fina' Terminal Forms in Arabic lookup 2 subtable" afii62804
Substitution2: "'init' Initial Forms in Arabic lookup 1 subtable" afii62802
EndChar

StartChar: afii62804
Encoding: 65226 65226 223
Width: 1515
GlyphClass: 2
Flags: W
AnchorPoint: "Anchor-3" 960 -1575 basechar 0
AnchorPoint: "Anchor-2" 975 1275 basechar 0
LayerCount: 2
Fore
SplineSet
1566 0 m 1,0,1
 1321 0 1321 0 1224 20 c 0,2,3
 1030 53 1030 53 936 166 c 1,4,5
 385 -63 385 -63 385 -412 c 0,6,7
 385 -578 385 -578 540 -739 c 1,8,9
 684 -874 684 -874 848 -874 c 2,10,-1
 1515 -874 l 1,11,-1
 1536 -1106 l 1,12,-1
 907 -1106 l 2,13,14
 600 -1106 600 -1106 385 -883 c 1,15,16
 272 -778 272 -778 220 -654 c 128,-1,17
 168 -530 168 -530 168 -391 c 0,18,19
 168 -176 168 -176 308 5 c 128,-1,20
 448 186 448 186 766 328 c 1,21,-1
 458 623 l 1,22,-1
 540 764 l 1,23,-1
 614 913 l 1,24,-1
 1099 913 l 2,25,26
 1390 913 1390 913 1425 662 c 1,27,28
 1425 584 1425 584 1409 545 c 1,29,30
 1400 504 1400 504 1368 457 c 0,31,32
 1306 369 1306 369 1134 270 c 1,33,34
 1233 227 1233 227 1566 227 c 1,35,-1
 1566 0 l 1,0,1
1196 623 m 0,36,37
 1196 641 1196 641 1181 655 c 0,38,39
 1155 680 1155 680 1083 692 c 1,40,-1
 718 692 l 1,41,-1
 968 426 l 1,42,43
 1196 545 1196 545 1196 623 c 0,36,37
EndSplineSet
EndChar

StartChar: afii62802
Encoding: 65227 65227 224
Width: 1149
GlyphClass: 2
Flags: W
AnchorPoint: "Anchor-3" 600 -675 basechar 0
AnchorPoint: "Anchor-2" 570 1230 basechar 0
LayerCount: 2
Fore
SplineSet
1102 0 m 1,0,-1
 -51 0 l 1,1,-1
 -51 227 l 1,2,-1
 274 227 l 1,3,4
 203 389 203 389 203 510 c 0,5,6
 203 690 203 690 342 817 c 0,7,8
 395 862 395 862 477 889 c 1,9,-1
 555 905 l 1,10,-1
 659 913 l 1,11,12
 750 913 750 913 842 868 c 1,13,14
 893 848 893 848 926 817 c 1,15,16
 973 791 973 791 1018 743 c 1,17,-1
 905 565 l 1,18,19
 729 702 729 702 602 702 c 0,20,21
 479 702 479 702 436 582 c 1,22,-1
 420 524 l 1,23,-1
 420 483 l 2,24,25
 420 416 420 416 449 352 c 0,26,27
 500 227 500 227 604 227 c 2,28,-1
 1061 227 l 1,29,-1
 1102 0 l 1,0,-1
EndSplineSet
EndChar

StartChar: afii62803
Encoding: 65228 65228 225
Width: 1055
GlyphClass: 2
Flags: W
AnchorPoint: "Anchor-3" 450 -630 basechar 0
AnchorPoint: "Anchor-2" 510 1245 basechar 0
LayerCount: 2
Fore
SplineSet
1096 0 m 1,0,1
 868 0 868 0 775 21.5 c 128,-1,2
 682 43 682 43 535 166 c 1,3,4
 406 57 406 57 246 14 c 1,5,6
 160 0 160 0 -53 0 c 1,7,-1
 -53 227 l 1,8,9
 264 227 264 227 348 311 c 1,10,-1
 31 623 l 1,11,-1
 104 764 l 1,12,-1
 182 913 l 1,13,-1
 670 913 l 2,14,15
 963 913 963 913 989 662 c 1,16,17
 989 584 989 584 981 552 c 128,-1,18
 973 520 973 520 936 459 c 1,19,20
 883 385 883 385 719 281 c 1,21,22
 852 227 852 227 1096 227 c 1,23,-1
 1096 0 l 1,0,1
743 618 m 0,24,25
 743 641 743 641 730 656.5 c 128,-1,26
 717 672 717 672 639 692 c 1,27,-1
 274 692 l 1,28,-1
 524 430 l 1,29,30
 743 537 743 537 743 618 c 0,24,25
EndSplineSet
EndChar

StartChar: afii57443
Encoding: 1603 1603 238
Width: 1945
GlyphClass: 2
Flags: W
AnchorPoint: "Anchor-3" 870 -630 basechar 0
AnchorPoint: "Anchor-2" 900 1500 basechar 0
LayerCount: 2
Fore
SplineSet
1892 352 m 2,0,1
 1892 219 1892 219 1829 131 c 0,2,3
 1731 0 1731 0 1528 0 c 2,4,-1
 416 0 l 2,5,6
 281 0 281 0 182 111 c 1,7,8
 94 219 94 219 94 373 c 2,9,-1
 94 719 l 1,10,-1
 322 719 l 1,11,-1
 322 406 l 2,12,13
 322 311 322 311 342 285 c 0,14,15
 379 227 379 227 489 227 c 2,16,-1
 1513 227 l 2,17,18
 1608 227 1608 227 1649 285 c 1,19,20
 1673 334 1673 334 1673 449 c 2,21,-1
 1673 1466 l 1,22,-1
 1892 1466 l 1,23,-1
 1892 352 l 2,0,1
1255 946 m 1,24,-1
 817 725 l 1,25,-1
 763 854 l 1,26,-1
 860 905 l 1,27,28
 821 939 821 939 801.5 978 c 128,-1,29
 782 1017 782 1017 782 1067 c 0,30,31
 782 1107 782 1107 797.5 1145.5 c 128,-1,32
 813 1184 813 1184 845 1216 c 0,33,34
 877 1252 877 1252 918 1270 c 128,-1,35
 959 1288 959 1288 1007 1288 c 1,36,37
 1032 1283 1032 1283 1069 1271 c 128,-1,38
 1106 1259 1106 1259 1154 1239 c 1,39,-1
 1089 1102 l 1,40,41
 1032 1145 1032 1145 1001 1145 c 0,42,43
 988 1145 988 1145 975.5 1140 c 128,-1,44
 963 1135 963 1135 954 1122 c 2,45,-1
 956 1126 l 1,46,47
 927 1089 927 1089 927 1067 c 0,48,49
 927 1001 927 1001 984 1001 c 0,50,51
 1017 1001 1017 1001 1068 1021.5 c 128,-1,52
 1119 1042 1119 1042 1187 1079 c 1,53,-1
 1255 946 l 1,24,-1
EndSplineSet
Substitution2: "'medi' Medial Forms in Arabic lookup 3 subtable" afii52306
Substitution2: "'fina' Terminal Forms in Arabic lookup 2 subtable" afii62816
Substitution2: "'init' Initial Forms in Arabic lookup 1 subtable" afii52305
EndChar

StartChar: afii62816
Encoding: 65242 65242 239
Width: 2071
GlyphClass: 2
Flags: W
AnchorPoint: "Anchor-3" 855 -675 basechar 0
AnchorPoint: "Anchor-2" 795 1515 basechar 0
LayerCount: 2
Fore
SplineSet
422 0 m 0,0,1
 285 0 285 0 188 111 c 0,2,3
 98 219 98 219 98 373 c 2,4,-1
 98 719 l 1,5,-1
 328 719 l 1,6,-1
 328 406 l 2,7,8
 328 311 328 311 348 285 c 0,9,10
 385 227 385 227 498 227 c 2,11,-1
 1362 223 l 1,12,-1
 1436 223 l 2,13,14
 1528 223 1528 223 1565 266 c 0,15,16
 1579 281 1579 281 1589 322 c 1,17,18
 1606 362 1606 362 1606 449 c 2,19,-1
 1606 1466 l 1,20,-1
 1835 1466 l 1,21,-1
 1835 406 l 2,22,23
 1835 285 1835 285 1907 246 c 1,24,25
 1980 227 1980 227 2126 227 c 1,26,-1
 2126 0 l 1,27,-1
 2054 0 l 2,28,29
 1923 0 1923 0 1860 14 c 0,30,31
 1800 31 1800 31 1724 92 c 1,32,33
 1642 25 1642 25 1571 10 c 0,34,35
 1511 0 1511 0 422 0 c 0,0,1
1184 951 m 1,36,-1
 746 730 l 1,37,-1
 693 859 l 1,38,-1
 789 910 l 1,39,40
 751 944 751 944 731 983.5 c 128,-1,41
 711 1023 711 1023 711 1072 c 0,42,43
 711 1112 711 1112 727 1151 c 128,-1,44
 743 1190 743 1190 775 1222 c 0,45,46
 840 1293 840 1293 937 1293 c 1,47,48
 961 1288 961 1288 998.5 1276 c 128,-1,49
 1036 1264 1036 1264 1084 1244 c 1,50,-1
 1019 1107 l 1,51,52
 964 1150 964 1150 930 1150 c 0,53,54
 918 1150 918 1150 905.5 1145 c 128,-1,55
 893 1140 893 1140 883 1127 c 2,56,-1
 885 1131 l 1,57,58
 857 1094 857 1094 857 1072 c 0,59,60
 857 1007 857 1007 914 1007 c 0,61,62
 946 1007 946 1007 997.5 1027 c 128,-1,63
 1049 1047 1049 1047 1117 1084 c 1,64,-1
 1184 951 l 1,36,-1
EndSplineSet
EndChar

StartChar: afii57444
Encoding: 1604 1604 242
Width: 1668
GlyphClass: 2
Flags: W
AnchorPoint: "Anchor-3" 720 -1230 basechar 0
AnchorPoint: "Anchor-2" 960 1515 basechar 0
LayerCount: 2
Fore
SplineSet
1606 31 m 2,0,1
 1606 -244 1606 -244 1423 -416 c 0,2,3
 1249 -578 1249 -578 1034 -578 c 2,4,-1
 682 -578 l 2,5,6
 473 -578 473 -578 297 -392.5 c 128,-1,7
 121 -207 121 -207 121 14 c 2,8,-1
 121 489 l 1,9,-1
 352 489 l 1,10,-1
 352 -16 l 2,11,12
 352 -156 352 -156 465 -250 c 128,-1,13
 578 -344 578 -344 727 -344 c 2,14,-1
 1018 -344 l 2,15,16
 1143 -344 1143 -344 1247 -250 c 1,17,18
 1376 -152 1376 -152 1376 -16 c 2,19,-1
 1376 1466 l 1,20,-1
 1606 1466 l 1,21,-1
 1606 31 l 2,0,1
EndSplineSet
Substitution2: "'medi' Medial Forms in Arabic lookup 3 subtable" afii62818
Substitution2: "'fina' Terminal Forms in Arabic lookup 2 subtable" afii62819
Substitution2: "'init' Initial Forms in Arabic lookup 1 subtable" afii62817
EndChar

StartChar: afii62817
Encoding: 65247 65247 243
Width: 552
GlyphClass: 2
Flags: W
AnchorPoint: "Anchor-3" 270 -615 basechar 0
AnchorPoint: "Anchor-2" 330 1635 basechar 0
LayerCount: 2
Fore
SplineSet
494 352 m 2,0,1
 494 219 494 219 426 131 c 0,2,3
 328 0 328 0 129 0 c 2,4,-1
 -43 0 l 1,5,-1
 -43 227 l 1,6,-1
 115 227 l 2,7,8
 207 227 207 227 246 285 c 1,9,10
 270 334 270 334 270 449 c 2,11,-1
 270 1466 l 1,12,-1
 494 1466 l 1,13,-1
 494 352 l 2,0,1
EndSplineSet
EndChar

StartChar: afii62818
Encoding: 65248 65248 244
Width: 758
GlyphClass: 2
Flags: W
AnchorPoint: "Anchor-3" 300 -660 basechar 0
AnchorPoint: "Anchor-2" 420 1665 basechar 0
LayerCount: 2
Fore
SplineSet
807 0 m 1,0,-1
 737 0 l 2,1,2
 604 0 604 0 543.5 15.5 c 128,-1,3
 483 31 483 31 410 92 c 1,4,5
 328 25 328 25 256 10 c 0,6,7
 197 0 197 0 -43 0 c 1,8,-1
 -43 227 l 1,9,-1
 121 226 l 2,10,11
 213 226 213 226 250 269 c 0,12,13
 264 284 264 284 275.5 323 c 128,-1,14
 287 362 287 362 287 449 c 2,15,-1
 287 1466 l 1,16,-1
 516 1466 l 1,17,-1
 516 406 l 2,18,19
 516 285 516 285 591 256 c 128,-1,20
 666 227 666 227 807 227 c 1,21,-1
 807 0 l 1,0,-1
EndSplineSet
EndChar

StartChar: afii57445
Encoding: 1605 1605 245
Width: 1434
GlyphClass: 2
Flags: W
AnchorPoint: "Anchor-3" 885 -660 basechar 0
AnchorPoint: "Anchor-2" 765 1245 basechar 0
LayerCount: 2
Fore
SplineSet
1378 381 m 1,0,1
 1378 213 1378 213 1258.5 103.5 c 128,-1,2
 1139 -6 1139 -6 983 -6 c 256,3,4
 827 -6 827 -6 702.5 101.5 c 128,-1,5
 578 209 578 209 578 412 c 2,6,-1
 578 690 l 1,7,-1
 537 692 l 2,8,9
 467 692 467 692 394.5 628.5 c 128,-1,10
 322 565 322 565 322 467 c 2,11,-1
 322 -578 l 1,12,-1
 98 -578 l 1,13,-1
 98 436 l 2,14,15
 98 666 98 666 226 789.5 c 128,-1,16
 354 913 354 913 547 913 c 2,17,-1
 1014 913 l 2,18,19
 1237 913 1237 913 1332 754 c 1,20,21
 1389 639 1389 639 1378 381 c 1,0,1
1159 395 m 0,22,23
 1159 604 1159 604 1118 641 c 0,24,25
 1065 690 1065 690 797 690 c 1,26,-1
 797 373 l 2,27,28
 797 311 797 311 854 264 c 1,29,30
 920 219 920 219 983 219 c 0,31,32
 1159 219 1159 219 1159 395 c 0,22,23
EndSplineSet
Substitution2: "'medi' Medial Forms in Arabic lookup 3 subtable" afii62821
Substitution2: "'fina' Terminal Forms in Arabic lookup 2 subtable" afii62822
Substitution2: "'init' Initial Forms in Arabic lookup 1 subtable" afii62820
EndChar

StartChar: afii62822
Encoding: 65250 65250 246
Width: 1602
GlyphClass: 2
Flags: W
AnchorPoint: "Anchor-3" 750 -570 basechar 0
AnchorPoint: "Anchor-2" 825 1200 basechar 0
LayerCount: 2
Fore
SplineSet
1626 0 m 1,0,1
 1497 0 1497 0 1415 27 c 1,2,3
 1352 61 1352 61 1280 166 c 1,4,5
 1206 -16 1206 -16 989 -16 c 0,6,7
 827 -16 827 -16 707 98 c 1,8,9
 571 213 571 213 571 412 c 2,10,-1
 571 690 l 1,11,12
 469 690 469 690 393 622.5 c 128,-1,13
 317 555 317 555 317 467 c 2,14,-1
 317 -578 l 1,15,-1
 98 -578 l 1,16,-1
 98 436 l 2,17,18
 98 662 98 662 219 797 c 1,19,20
 348 913 348 913 541 913 c 2,21,-1
 1008 913 l 2,22,23
 1372 913 1372 913 1372 379 c 0,24,25
 1372 227 1372 227 1626 227 c 1,26,-1
 1626 0 l 1,0,1
1153 395 m 0,27,28
 1153 598 1153 598 1112 635 c 0,29,30
 1057 690 1057 690 795 690 c 1,31,-1
 795 369 l 2,32,33
 795 297 795 297 849 255 c 128,-1,34
 903 213 903 213 977 213 c 0,35,36
 1044 213 1044 213 1098.5 257 c 128,-1,37
 1153 301 1153 301 1153 395 c 0,27,28
EndSplineSet
EndChar

StartChar: afii62820
Encoding: 65251 65251 247
Width: 1062
GlyphClass: 2
Flags: W
AnchorPoint: "Anchor-3" 465 -780 basechar 0
AnchorPoint: "Anchor-2" 585 1275 basechar 0
LayerCount: 2
Fore
SplineSet
989 442 m 0,0,1
 989 229 989 229 893 104 c 0,2,3
 786 -35 786 -35 594 -35 c 0,4,5
 449 -35 449 -35 338 53 c 1,6,7
 213 0 213 0 -47 0 c 1,8,-1
 -47 227 l 1,9,10
 141 227 141 227 176 266 c 0,11,12
 188 285 188 285 188 442 c 0,13,14
 188 641 188 641 293.5 777 c 128,-1,15
 399 913 399 913 594 913 c 0,16,17
 780 913 780 913 884.5 776 c 128,-1,18
 989 639 989 639 989 442 c 0,0,1
795 442 m 0,19,20
 795 690 795 690 594 690 c 0,21,22
 395 690 395 690 395 442 c 0,23,24
 395 193 395 193 594 193 c 0,25,26
 795 193 795 193 795 442 c 0,19,20
EndSplineSet
EndChar

StartChar: afii57446
Encoding: 1606 1606 248
Width: 1645
GlyphClass: 2
Flags: W
AnchorPoint: "Anchor-3" 720 -1110 basechar 0
AnchorPoint: "Anchor-2" 810 1410 basechar 0
LayerCount: 2
Fore
SplineSet
702 1047 m 0,0,1
 702 1078 702 1078 714 1106 c 128,-1,2
 726 1134 726 1134 747 1155 c 128,-1,3
 768 1176 768 1176 796 1188.5 c 128,-1,4
 824 1201 824 1201 856 1201 c 0,5,6
 887 1201 887 1201 915 1188.5 c 128,-1,7
 943 1176 943 1176 964 1155 c 128,-1,8
 985 1134 985 1134 997 1106 c 128,-1,9
 1009 1078 1009 1078 1009 1047 c 0,10,11
 1009 1015 1009 1015 997 987.5 c 128,-1,12
 985 960 985 960 964 939 c 128,-1,13
 943 918 943 918 915 906 c 128,-1,14
 887 894 887 894 856 894 c 0,15,16
 824 894 824 894 796 906 c 128,-1,17
 768 918 768 918 747 939 c 128,-1,18
 726 960 726 960 714 987.5 c 128,-1,19
 702 1015 702 1015 702 1047 c 0,0,1
1571 37 m 2,20,21
 1571 -233 1571 -233 1393 -420 c 1,22,23
 1227 -578 1227 -578 997 -578 c 2,24,-1
 645 -578 l 2,25,26
 430 -578 430 -578 264 -398.5 c 128,-1,27
 98 -219 98 -219 98 14 c 2,28,-1
 98 489 l 1,29,-1
 322 489 l 1,30,-1
 322 -16 l 2,31,32
 322 -145 322 -145 424 -248.5 c 128,-1,33
 526 -352 526 -352 690 -352 c 2,34,-1
 983 -352 l 2,35,36
 1124 -352 1124 -352 1235 -257 c 128,-1,37
 1346 -162 1346 -162 1346 -16 c 2,38,-1
 1346 719 l 1,39,-1
 1571 719 l 1,40,-1
 1571 37 l 2,20,21
EndSplineSet
Substitution2: "'medi' Medial Forms in Arabic lookup 3 subtable" afii62824
Substitution2: "'fina' Terminal Forms in Arabic lookup 2 subtable" afii62825
Substitution2: "'init' Initial Forms in Arabic lookup 1 subtable" afii62823
EndChar

StartChar: afii62825
Encoding: 65254 65254 249
Width: 1804
GlyphClass: 2
Flags: W
AnchorPoint: "Anchor-3" 705 -1095 basechar 0
AnchorPoint: "Anchor-2" 795 1380 basechar 0
LayerCount: 2
Fore
SplineSet
654 1037 m 0,0,1
 654 1068 654 1068 666 1096 c 128,-1,2
 678 1124 678 1124 699 1145 c 128,-1,3
 720 1166 720 1166 748 1178.5 c 128,-1,4
 776 1191 776 1191 808 1191 c 0,5,6
 839 1191 839 1191 867 1178.5 c 128,-1,7
 895 1166 895 1166 916 1145 c 128,-1,8
 937 1124 937 1124 949 1096 c 128,-1,9
 961 1068 961 1068 961 1037 c 0,10,11
 961 1005 961 1005 949 977.5 c 128,-1,12
 937 950 937 950 916 929 c 128,-1,13
 895 908 895 908 867 896 c 128,-1,14
 839 884 839 884 808 884 c 0,15,16
 776 884 776 884 748 896 c 128,-1,17
 720 908 720 908 699 929 c 128,-1,18
 678 950 678 950 666 977.5 c 128,-1,19
 654 1005 654 1005 654 1037 c 0,0,1
1829 0 m 1,20,21
 1642 0 1642 0 1575 109 c 1,22,23
 1575 -207 1575 -207 1395 -412 c 1,24,25
 1233 -578 1233 -578 997 -578 c 2,26,-1
 645 -578 l 2,27,28
 430 -578 430 -578 264 -398.5 c 128,-1,29
 98 -219 98 -219 98 14 c 2,30,-1
 98 489 l 1,31,-1
 322 489 l 1,32,-1
 322 -16 l 2,33,34
 322 -145 322 -145 424 -248.5 c 128,-1,35
 526 -352 526 -352 690 -352 c 2,36,-1
 983 -352 l 2,37,38
 1124 -352 1124 -352 1235 -257 c 128,-1,39
 1346 -162 1346 -162 1346 -16 c 2,40,-1
 1346 719 l 1,41,-1
 1571 719 l 1,42,-1
 1571 389 l 2,43,44
 1571 227 1571 227 1829 227 c 1,45,-1
 1829 0 l 1,20,21
EndSplineSet
EndChar

StartChar: afii62828
Encoding: 65258 65258 253
Width: 1413
GlyphClass: 2
Flags: W
AnchorPoint: "Anchor-3" 465 -555 basechar 0
AnchorPoint: "Anchor-2" 390 1350 basechar 0
LayerCount: 2
Fore
SplineSet
1462 0 m 1,0,1
 1300 0 1300 0 1243 41 c 1,2,3
 1216 53 1216 53 1003 246 c 1,4,5
 874 -27 874 -27 583 -27 c 0,6,7
 405 -27 405 -27 276 100 c 128,-1,8
 147 227 147 227 147 412 c 0,9,10
 147 537 147 537 235 666 c 0,11,12
 282 739 282 739 415 868 c 1,13,-1
 348 946 l 1,14,-1
 505 1102 l 1,15,-1
 1189 375 l 2,16,17
 1273 285 1273 285 1316 250 c 1,18,19
 1361 227 1361 227 1462 227 c 1,20,-1
 1462 0 l 1,0,1
804 395 m 0,21,22
 804 453 804 453 763 520 c 1,23,-1
 581 702 l 1,24,25
 452 584 452 584 415 523.5 c 128,-1,26
 378 463 378 463 378 395 c 0,27,28
 378 338 378 338 430.5 265.5 c 128,-1,29
 483 193 483 193 587 193 c 0,30,31
 688 193 688 193 753 270 c 0,32,33
 804 328 804 328 804 395 c 0,21,22
EndSplineSet
EndChar

StartChar: afii57448
Encoding: 1608 1608 254
Width: 1054
GlyphClass: 2
Flags: W
AnchorPoint: "Anchor-3" 495 -1125 basechar 0
AnchorPoint: "Anchor-2" 540 1170 basechar 0
LayerCount: 2
Fore
SplineSet
989 -31 m 2,0,1
 989 -229 989 -229 822 -403.5 c 128,-1,2
 655 -578 655 -578 416 -578 c 2,3,-1
 125 -578 l 1,4,-1
 94 -352 l 1,5,-1
 381 -352 l 2,6,7
 551 -352 551 -352 657.5 -245.5 c 128,-1,8
 764 -139 764 -139 764 0 c 1,9,10
 500 0 500 0 358 72 c 0,11,12
 172 162 172 162 172 430 c 0,13,14
 172 719 172 719 311 842 c 1,15,16
 401 915 401 915 584 915 c 0,17,18
 842 915 842 915 940 700 c 1,19,20
 989 571 989 571 989 256 c 2,21,-1
 989 -31 l 2,0,1
764 227 m 1,22,-1
 764 467 l 2,23,24
 764 686 764 686 584 686 c 0,25,26
 500 686 500 686 457 641 c 0,27,28
 412 588 412 588 412 442 c 0,29,30
 412 313 412 313 478.5 270 c 128,-1,31
 545 227 545 227 764 227 c 1,22,-1
EndSplineSet
Substitution2: "'fina' Terminal Forms in Arabic lookup 2 subtable" afii62829
PairPos2: "'kern' Horizontal Kerning in Arabic lookup 1 subtable" afii52400 dx=0 dy=0 dh=0 dv=0 dx=0 dy=0 dh=-100 dv=0
PairPos2: "'kern' Horizontal Kerning in Arabic lookup 0 subtable" afii62831 dx=0 dy=0 dh=0 dv=0 dx=0 dy=0 dh=60 dv=0
PairPos2: "'kern' Horizontal Kerning in Arabic lookup 0 subtable" afii62761 dx=0 dy=0 dh=0 dv=0 dx=0 dy=0 dh=60 dv=0
PairPos2: "'kern' Horizontal Kerning in Arabic lookup 0 subtable" afii57413 dx=0 dy=0 dh=0 dv=0 dx=0 dy=0 dh=100 dv=0
PairPos2: "'kern' Horizontal Kerning in Arabic lookup 0 subtable" afii62956 dx=0 dy=0 dh=0 dv=0 dx=0 dy=0 dh=60 dv=0
EndChar

StartChar: afii62829
Encoding: 65262 65262 255
Width: 1133
GlyphClass: 2
Flags: W
AnchorPoint: "Anchor-3" 510 -1020 basechar 0
AnchorPoint: "Anchor-2" 510 1230 basechar 0
LayerCount: 2
Fore
SplineSet
1169 0 m 1,0,-1
 1014 0 l 1,1,2
 1014 -227 1014 -227 842 -412 c 0,3,4
 768 -487 768 -487 657.5 -532.5 c 128,-1,5
 547 -578 547 -578 426 -578 c 2,6,-1
 131 -578 l 1,7,-1
 98 -352 l 1,8,-1
 389 -352 l 2,9,10
 557 -352 557 -352 665.5 -245.5 c 128,-1,11
 774 -139 774 -139 774 0 c 1,12,13
 504 0 504 0 369 72 c 1,14,15
 182 162 182 162 182 430 c 0,16,17
 182 719 182 719 322 842 c 1,18,19
 410 913 410 913 592 913 c 0,20,21
 852 913 852 913 956 692 c 1,22,23
 1014 551 1014 551 1014 227 c 1,24,-1
 1169 227 l 1,25,-1
 1169 0 l 1,0,-1
784 227 m 1,26,-1
 784 446 l 2,27,28
 784 582 784 582 707 641 c 1,29,30
 655 686 655 686 592 686 c 0,31,32
 504 686 504 686 467 641 c 1,33,34
 416 588 416 588 416 442 c 0,35,36
 416 317 416 317 488.5 272 c 128,-1,37
 561 227 561 227 784 227 c 1,26,-1
EndSplineSet
PairPos2: "'kern' Horizontal Kerning in Arabic lookup 1 subtable" afii52400 dx=0 dy=0 dh=0 dv=0 dx=0 dy=0 dh=-100 dv=0
PairPos2: "'kern' Horizontal Kerning in Arabic lookup 0 subtable" afii62831 dx=0 dy=0 dh=0 dv=0 dx=0 dy=0 dh=60 dv=0
PairPos2: "'kern' Horizontal Kerning in Arabic lookup 0 subtable" afii62761 dx=0 dy=0 dh=0 dv=0 dx=0 dy=0 dh=60 dv=0
PairPos2: "'kern' Horizontal Kerning in Arabic lookup 0 subtable" afii57413 dx=0 dy=0 dh=0 dv=0 dx=0 dy=0 dh=80 dv=0
PairPos2: "'kern' Horizontal Kerning in Arabic lookup 0 subtable" afii62956 dx=0 dy=0 dh=0 dv=0 dx=0 dy=0 dh=60 dv=0
EndChar

StartChar: afii62840
Encoding: 65275 65275 268
Width: 1275
GlyphClass: 3
Flags: W
AnchorPoint: "Anchor-1" 960 -435 baselig 0
AnchorPoint: "Anchor-0" 1050 1665 baselig 0
AnchorPoint: "Anchor-1" 315 -480 baselig 1
AnchorPoint: "Anchor-0" 300 1665 baselig 1
LayerCount: 2
Fore
SplineSet
1182 352 m 2,0,1
 1182 219 1182 219 1122 131 c 1,2,3
 1024 0 1024 0 825 0 c 2,4,-1
 608 0 l 2,5,6
 162 0 162 0 162 352 c 2,7,-1
 162 1466 l 1,8,-1
 391 1466 l 1,9,-1
 391 449 l 2,10,11
 391 285 391 285 432 254 c 1,12,13
 459 227 459 227 608 227 c 2,14,-1
 811 227 l 2,15,16
 899 227 899 227 942 285 c 1,17,18
 963 334 963 334 963 449 c 2,19,-1
 963 1466 l 1,20,-1
 1182 1466 l 1,21,-1
 1182 352 l 2,0,1
EndSplineSet
Ligature2: "'rlig' Required Ligatures in Arabic lookup 6 subtable" afii62817 afii62760
Substitution2: "'fina' Terminal Forms in Arabic lookup 2 subtable" afii62841
EndChar

StartChar: afii62841
Encoding: 65276 65276 269
Width: 1337
GlyphClass: 3
Flags: W
AnchorPoint: "Anchor-1" 885 -435 baselig 0
AnchorPoint: "Anchor-0" 1035 1650 baselig 0
AnchorPoint: "Anchor-1" 360 -450 baselig 1
AnchorPoint: "Anchor-0" 270 1635 baselig 1
LayerCount: 2
Fore
SplineSet
1376 0 m 1,0,1
 1176 0 1176 0 1065 152 c 1,2,3
 950 0 950 0 758 0 c 2,4,-1
 275 0 l 2,5,6
 96 0 96 0 115 227 c 1,7,-1
 739 227 l 2,8,9
 836 227 836 227 872 285 c 1,10,11
 895 334 895 334 895 449 c 2,12,-1
 895 1466 l 1,13,-1
 1124 1466 l 1,14,-1
 1124 426 l 2,15,16
 1124 303 1124 303 1192 264 c 1,17,18
 1243 227 1243 227 1376 227 c 1,19,-1
 1376 0 l 1,0,1
346 347 m 1,20,-1
 120 347 l 1,21,-1
 120 1466 l 1,22,-1
 346 1466 l 1,23,-1
 346 378 l 1,24,-1
 346 347 l 1,20,-1
EndSplineSet
Ligature2: "'rlig' Required Ligatures in Arabic lookup 6 subtable" afii62818 afii62760
EndChar

StartChar: afii59759
Encoding: 3663 3663 276
Width: 1233
GlyphClass: 2
Flags: W
LayerCount: 2
Fore
SplineSet
616 983 m 0,0,1
 823 983 823 983 969.5 836.5 c 128,-1,2
 1116 690 1116 690 1116 483 c 0,3,4
 1116 277 1116 277 969.5 130.5 c 128,-1,5
 823 -16 823 -16 616 -16 c 0,6,7
 410 -16 410 -16 263.5 130.5 c 128,-1,8
 117 277 117 277 117 483 c 0,9,10
 117 690 117 690 263.5 836.5 c 128,-1,11
 410 983 410 983 616 983 c 0,0,1
616 147 m 0,12,13
 758 147 758 147 849 242 c 128,-1,14
 940 337 940 337 940 483 c 256,15,16
 940 629 940 629 849 724 c 128,-1,17
 758 819 758 819 616 819 c 0,18,19
 475 819 475 819 384 724 c 128,-1,20
 293 629 293 629 293 483 c 256,21,22
 293 337 293 337 384 242 c 128,-1,23
 475 147 475 147 616 147 c 0,12,13
616 598 m 0,24,25
 664 598 664 598 697.5 565 c 128,-1,26
 731 532 731 532 731 485 c 256,27,28
 731 438 731 438 697.5 404.5 c 128,-1,29
 664 371 664 371 616 371 c 0,30,31
 569 371 569 371 535.5 404.5 c 128,-1,32
 502 438 502 438 502 485 c 256,33,34
 502 532 502 532 535.5 565 c 128,-1,35
 569 598 569 598 616 598 c 0,24,25
EndSplineSet
EndChar

StartChar: afii59760
Encoding: 3664 3664 277
Width: 1233
GlyphClass: 2
Flags: W
LayerCount: 2
Fore
SplineSet
616 924 m 0,0,1
 834 924 834 924 975 794.5 c 128,-1,2
 1116 665 1116 665 1116 453 c 0,3,4
 1116 242 1116 242 975 113 c 128,-1,5
 834 -16 834 -16 616 -16 c 0,6,7
 399 -16 399 -16 258 113 c 128,-1,8
 117 242 117 242 117 453 c 0,9,10
 117 665 117 665 258 794.5 c 128,-1,11
 399 924 399 924 616 924 c 0,0,1
616 150 m 0,12,13
 765 150 765 150 852.5 231 c 128,-1,14
 940 312 940 312 940 453 c 256,15,16
 940 594 940 594 852 677 c 128,-1,17
 764 760 764 760 616 760 c 0,18,19
 469 760 469 760 381 677 c 128,-1,20
 293 594 293 594 293 453 c 0,21,22
 293 310 293 310 381.5 230 c 128,-1,23
 470 150 470 150 616 150 c 0,12,13
EndSplineSet
EndChar

StartChar: glyph279
Encoding: 65559 -1 279
Width: 0
GlyphClass: 2
Flags: W
LayerCount: 2
Fore
SplineSet
36 1831 m 1,0,-1
 36 863 l 1,1,-1
 -36 863 l 1,2,-1
 -36 1831 l 1,3,-1
 36 1831 l 1,0,-1
36 543 m 1,4,-1
 36 -423 l 1,5,-1
 -36 -423 l 1,6,-1
 -36 543 l 1,7,-1
 36 543 l 1,4,-1
EndSplineSet
EndChar

StartChar: glyph280
Encoding: 65560 -1 280
Width: 0
GlyphClass: 2
Flags: W
LayerCount: 2
Fore
SplineSet
-234 -423 m 1,0,-1
 -234 -352 l 1,1,-1
 -36 -352 l 1,2,-1
 -36 1760 l 1,3,-1
 -234 1760 l 1,4,-1
 -234 1831 l 1,5,-1
 234 1831 l 1,6,-1
 234 1760 l 1,7,-1
 36 1760 l 1,8,-1
 36 -352 l 1,9,-1
 234 -352 l 1,10,-1
 234 -423 l 1,11,-1
 -234 -423 l 1,0,-1
EndSplineSet
EndChar

StartChar: glyph281
Encoding: 65561 -1 281
Width: 0
GlyphClass: 2
Flags: W
LayerCount: 2
Fore
SplineSet
224 1646 m 1,0,-1
 36 1504 l 1,1,-1
 36 -423 l 1,2,-1
 -36 -423 l 1,3,-1
 -36 1831 l 1,4,-1
 224 1646 l 1,0,-1
EndSplineSet
EndChar

StartChar: glyph282
Encoding: 65562 -1 282
Width: 0
GlyphClass: 2
Flags: W
LayerCount: 2
Fore
SplineSet
36 1831 m 1,0,-1
 36 -423 l 1,1,-1
 -36 -423 l 1,2,-1
 -36 1504 l 1,3,-1
 -224 1646 l 1,4,-1
 36 1831 l 1,0,-1
EndSplineSet
EndChar

StartChar: glyph283
Encoding: 65563 -1 283
Width: 0
GlyphClass: 2
Flags: W
LayerCount: 2
Fore
SplineSet
36 1831 m 1,0,-1
 36 -352 l 1,1,-1
 234 -352 l 1,2,-1
 234 -423 l 1,3,-1
 -36 -423 l 1,4,-1
 -36 1831 l 1,5,-1
 36 1831 l 1,0,-1
EndSplineSet
EndChar

StartChar: glyph284
Encoding: 65564 -1 284
Width: 0
GlyphClass: 2
Flags: W
LayerCount: 2
Fore
SplineSet
224 1646 m 1,0,-1
 36 1504 l 1,1,-1
 36 -423 l 1,2,-1
 -36 -423 l 1,3,-1
 -36 1504 l 1,4,-1
 -224 1641 l 1,5,-1
 0 1831 l 1,6,-1
 224 1646 l 1,0,-1
EndSplineSet
EndChar

StartChar: uni0670
Encoding: 1648 1648 297
Width: 0
GlyphClass: 4
Flags: W
AnchorPoint: "Anchor-2" 0 0 mark 0
AnchorPoint: "Anchor-0" 0 0 mark 0
LayerCount: 2
Fore
SplineSet
57 3 m 1,0,-1
 -47 3 l 1,1,-1
 -47 355 l 1,2,-1
 57 355 l 1,3,-1
 57 3 l 1,0,-1
EndSplineSet
EndChar

StartChar: glyph298
Encoding: 65565 -1 298
Width: 666
GlyphClass: 2
Flags: W
LayerCount: 2
Fore
SplineSet
360 1529 m 2,0,1
 399 1558 399 1558 433.5 1564 c 128,-1,2
 468 1570 468 1570 494.5 1556.5 c 128,-1,3
 521 1543 521 1543 537 1511 c 128,-1,4
 553 1479 553 1479 554 1433 c 2,5,-1
 552 1334 l 1,6,-1
 153 1334 l 1,7,-1
 153 1407 l 1,8,-1
 221 1407 l 1,9,-1
 360 1529 l 2,0,1
321 1407 m 1,10,-1
 480 1407 l 1,11,-1
 480 1444 l 2,12,13
 478 1479 478 1479 455.5 1489.5 c 128,-1,14
 433 1500 433 1500 395 1472 c 1,15,-1
 321 1407 l 1,10,-1
EndSplineSet
EndChar

StartChar: glyph299
Encoding: 65566 -1 299
Width: 1700
GlyphClass: 2
Flags: W
LayerCount: 2
Fore
SplineSet
1622 37 m 1,0,-1
 1618 -47 l 1,1,-1
 1612 -145 l 1,2,3
 1579 -369 1579 -369 1403 -504 c 1,4,5
 1243 -618 1243 -618 1057 -618 c 2,6,-1
 709 -618 l 2,7,8
 473 -618 473 -618 316.5 -442 c 128,-1,9
 160 -266 160 -266 160 -16 c 2,10,-1
 160 296 l 1,11,-1
 373 296 l 1,12,-1
 373 -25 l 2,13,14
 373 -186 373 -186 473 -293.5 c 128,-1,15
 573 -401 573 -401 727 -401 c 2,16,-1
 1044 -401 l 2,17,18
 1192 -401 1192 -401 1298.5 -294.5 c 128,-1,19
 1405 -188 1405 -188 1405 -1 c 1,20,21
 1085 -10 1085 -10 999 16 c 0,22,23
 817 78 817 78 817 324 c 0,24,25
 817 487 817 487 932 592 c 0,26,27
 1038 686 1038 686 1192 686 c 0,28,29
 1362 686 1362 686 1477 578 c 0,30,31
 1544 514 1544 514 1583 426 c 128,-1,32
 1622 338 1622 338 1622 238 c 2,33,-1
 1622 37 l 1,0,-1
1403 223 m 1,34,35
 1403 329 1403 329 1327 401 c 0,36,37
 1268 459 1268 459 1180 459 c 0,38,39
 1124 459 1124 459 1065 430 c 1,40,41
 1018 391 1018 391 1018 338 c 0,42,43
 1018 250 1018 250 1076.5 230.5 c 128,-1,44
 1135 211 1135 211 1403 223 c 1,34,35
EndSplineSet
EndChar

StartChar: uni06DD
Encoding: 1757 1757 388
Width: 2300
GlyphClass: 2
Flags: W
LayerCount: 2
Fore
SplineSet
2250 715 m 256,0,1
 2250 469 2250 469 2146 249 c 0,2,3
 2046 35 2046 35 1867 -119 c 1,4,5
 1870 -133 1870 -133 1870 -148 c 0,6,7
 1870 -203 1870 -203 1831 -241.5 c 128,-1,8
 1792 -280 1792 -280 1737 -280 c 0,9,10
 1697 -280 1697 -280 1664 -258 c 1,11,12
 1424 -385 1424 -385 1149 -385 c 0,13,14
 876 -385 876 -385 636 -258 c 1,15,16
 603 -280 603 -280 563 -280 c 0,17,18
 508 -280 508 -280 469 -241.5 c 128,-1,19
 430 -203 430 -203 430 -148 c 0,20,21
 430 -133 430 -133 433 -119 c 1,22,23
 254 35 254 35 154 249 c 0,24,25
 50 469 50 469 50 715 c 256,26,27
 50 961 50 961 154 1181 c 0,28,29
 254 1394 254 1394 433 1548 c 1,30,31
 430 1562 430 1562 430 1577 c 0,32,33
 430 1632 430 1632 469 1670.5 c 128,-1,34
 508 1709 508 1709 563 1709 c 0,35,36
 603 1709 603 1709 636 1687 c 1,37,38
 876 1814 876 1814 1151 1814 c 0,39,40
 1424 1814 1424 1814 1664 1687 c 1,41,42
 1697 1709 1697 1709 1737 1709 c 0,43,44
 1792 1709 1792 1709 1831 1670.5 c 128,-1,45
 1870 1632 1870 1632 1870 1577 c 0,46,47
 1870 1562 1870 1562 1867 1548 c 1,48,49
 2046 1394 2046 1394 2146 1181 c 0,50,51
 2250 961 2250 961 2250 715 c 256,0,1
1816 1576 m 0,52,53
 1816 1609 1816 1609 1793 1632 c 128,-1,54
 1770 1655 1770 1655 1738 1655 c 256,55,56
 1706 1655 1706 1655 1682.5 1631.5 c 128,-1,57
 1659 1608 1659 1608 1659 1576 c 256,58,59
 1659 1544 1659 1544 1682 1521 c 128,-1,60
 1705 1498 1705 1498 1738 1498 c 0,61,62
 1770 1498 1770 1498 1793 1521 c 128,-1,63
 1816 1544 1816 1544 1816 1576 c 0,52,53
1602 1595 m 1,64,65
 1390 1704 1390 1704 1151 1704 c 0,66,67
 910 1704 910 1704 698 1595 c 1,68,-1
 1602 1595 l 1,64,65
641 1576 m 256,69,70
 641 1608 641 1608 617.5 1631.5 c 128,-1,71
 594 1655 594 1655 562 1655 c 256,72,73
 530 1655 530 1655 507 1632 c 128,-1,74
 484 1609 484 1609 484 1576 c 0,75,76
 484 1544 484 1544 507 1521 c 128,-1,77
 530 1498 530 1498 562 1498 c 0,78,79
 595 1498 595 1498 618 1521 c 128,-1,80
 641 1544 641 1544 641 1576 c 256,69,70
2140 714 m 0,81,82
 2140 933 2140 933 2048 1131 c 0,83,84
 1960 1321 1960 1321 1801 1460 c 1,85,86
 1772 1444 1772 1444 1737 1444 c 0,87,88
 1681 1444 1681 1444 1642 1485 c 1,89,-1
 658 1485 l 1,90,91
 619 1444 619 1444 563 1444 c 0,92,93
 528 1444 528 1444 499 1460 c 1,94,95
 340 1321 340 1321 252 1131 c 0,96,97
 160 933 160 933 160 714 c 0,98,99
 160 265 160 265 499 -31 c 1,100,101
 528 -15 528 -15 563 -15 c 0,102,103
 619 -15 619 -15 658 -56 c 1,104,-1
 1642 -56 l 1,105,106
 1681 -15 1681 -15 1737 -15 c 0,107,108
 1772 -15 1772 -15 1801 -31 c 1,109,110
 2140 265 2140 265 2140 714 c 0,81,82
1816 -147 m 0,111,112
 1816 -115 1816 -115 1793 -92 c 128,-1,113
 1770 -69 1770 -69 1738 -69 c 0,114,115
 1705 -69 1705 -69 1682 -92 c 128,-1,116
 1659 -115 1659 -115 1659 -147 c 256,117,118
 1659 -179 1659 -179 1682.5 -202.5 c 128,-1,119
 1706 -226 1706 -226 1738 -226 c 256,120,121
 1770 -226 1770 -226 1793 -203 c 128,-1,122
 1816 -180 1816 -180 1816 -147 c 0,111,112
1602 -166 m 1,123,-1
 698 -166 l 1,124,125
 910 -275 910 -275 1151 -275 c 0,126,127
 1390 -275 1390 -275 1602 -166 c 1,123,-1
641 -147 m 256,128,129
 641 -115 641 -115 618 -92 c 128,-1,130
 595 -69 595 -69 562 -69 c 0,131,132
 530 -69 530 -69 507 -92 c 128,-1,133
 484 -115 484 -115 484 -147 c 0,134,135
 484 -180 484 -180 507 -203 c 128,-1,136
 530 -226 530 -226 562 -226 c 256,137,138
 594 -226 594 -226 617.5 -202.5 c 128,-1,139
 641 -179 641 -179 641 -147 c 256,128,129
EndSplineSet
EndChar

StartChar: uni06DE
Encoding: 1758 1758 389
Width: 2221
GlyphClass: 2
Flags: W
LayerCount: 2
Fore
SplineSet
2171 750 m 1,0,-1
 1861 439 l 1,1,-1
 1861 0 l 1,2,-1
 1421 0 l 1,3,-1
 1111 -311 l 1,4,-1
 800 0 l 1,5,-1
 361 0 l 1,6,-1
 361 439 l 1,7,-1
 50 750 l 1,8,-1
 361 1061 l 1,9,-1
 361 1500 l 1,10,-1
 800 1500 l 1,11,-1
 1111 1811 l 1,12,-1
 1421 1500 l 1,13,-1
 1861 1500 l 1,14,-1
 1861 1061 l 1,15,-1
 2171 750 l 1,0,-1
436 364 m 1,16,-1
 436 75 l 1,17,-1
 725 75 l 1,18,-1
 436 364 l 1,16,-1
725 1425 m 1,19,-1
 436 1425 l 1,20,-1
 436 1136 l 1,21,-1
 725 1425 l 1,19,-1
1786 1136 m 1,22,-1
 1786 1425 l 1,23,-1
 1496 1425 l 1,24,-1
 1786 1136 l 1,22,-1
1786 75 m 1,25,-1
 1786 364 l 1,26,-1
 1496 75 l 1,27,-1
 1786 75 l 1,25,-1
906 0 m 1,28,-1
 1111 -205 l 1,29,-1
 1315 0 l 1,30,-1
 906 0 l 1,28,-1
361 955 m 1,31,-1
 156 750 l 1,32,-1
 361 545 l 1,33,-1
 361 955 l 1,31,-1
1315 1500 m 1,34,-1
 1111 1705 l 1,35,-1
 906 1500 l 1,36,-1
 1315 1500 l 1,34,-1
1786 1030 m 1,37,-1
 1390 1425 l 1,38,-1
 831 1425 l 1,39,-1
 436 1030 l 1,40,-1
 436 470 l 1,41,-1
 831 75 l 1,42,-1
 1390 75 l 1,43,-1
 1786 470 l 1,44,-1
 1786 1030 l 1,37,-1
2065 750 m 1,45,-1
 1861 955 l 1,46,-1
 1861 545 l 1,47,-1
 2065 750 l 1,45,-1
1328 750 m 256,48,49
 1328 660 1328 660 1264.5 596 c 128,-1,50
 1201 532 1201 532 1111 532 c 256,51,52
 1021 532 1021 532 957 596 c 128,-1,53
 893 660 893 660 893 750 c 256,54,55
 893 840 893 840 957 903.5 c 128,-1,56
 1021 967 1021 967 1111 967 c 256,57,58
 1201 967 1201 967 1264.5 903.5 c 128,-1,59
 1328 840 1328 840 1328 750 c 256,48,49
1253 750 m 256,60,61
 1253 809 1253 809 1211 850.5 c 128,-1,62
 1169 892 1169 892 1110 892 c 256,63,64
 1051 892 1051 892 1009 850.5 c 128,-1,65
 967 809 967 809 967 750 c 256,66,67
 967 691 967 691 1009 649 c 128,-1,68
 1051 607 1051 607 1110 607 c 256,69,70
 1169 607 1169 607 1211 649 c 128,-1,71
 1253 691 1253 691 1253 750 c 256,60,61
EndSplineSet
EndChar

StartChar: uni06DF
Encoding: 1759 1759 390
Width: 0
GlyphClass: 2
Flags: W
LayerCount: 2
Fore
SplineSet
75 1429 m 256,0,1
 75 1398 75 1398 53 1376 c 128,-1,2
 31 1354 31 1354 0 1354 c 256,3,4
 -31 1354 -31 1354 -53 1376 c 128,-1,5
 -75 1398 -75 1398 -75 1429 c 256,6,7
 -75 1460 -75 1460 -53 1482 c 128,-1,8
 -31 1504 -31 1504 0 1504 c 256,9,10
 31 1504 31 1504 53 1482 c 128,-1,11
 75 1460 75 1460 75 1429 c 256,0,1
EndSplineSet
EndChar

StartChar: uni06E9
Encoding: 1769 1769 391
Width: 1229
GlyphClass: 2
Flags: W
LayerCount: 2
Fore
SplineSet
1179 0 m 1,0,-1
 50 0 l 1,1,-1
 278 261 l 1,2,-1
 278 849 l 1,3,-1
 50 1108 l 1,4,-1
 614 1676 l 1,5,-1
 1179 1108 l 1,6,-1
 951 849 l 1,7,-1
 951 261 l 1,8,-1
 1179 0 l 1,0,-1
1101 1108 m 1,9,-1
 614 1598 l 1,10,-1
 128 1108 l 1,11,-1
 338 871 l 1,12,-1
 338 239 l 1,13,-1
 178 56 l 1,14,-1
 1051 56 l 1,15,-1
 891 239 l 1,16,-1
 891 871 l 1,17,-1
 1101 1108 l 1,9,-1
995 1108 m 1,18,-1
 845 937 l 1,19,-1
 845 131 l 1,20,-1
 384 131 l 1,21,-1
 384 937 l 1,22,-1
 234 1108 l 1,23,-1
 614 1489 l 1,24,-1
 995 1108 l 1,18,-1
922 1108 m 1,25,-1
 614 1416 l 1,26,-1
 307 1108 l 1,27,-1
 433 968 l 1,28,-1
 433 186 l 1,29,-1
 796 186 l 1,30,-1
 796 968 l 1,31,-1
 922 1108 l 1,25,-1
833 1108 m 1,32,-1
 745 1011 l 1,33,-1
 745 267 l 1,34,-1
 484 267 l 1,35,-1
 484 1011 l 1,36,-1
 396 1108 l 1,37,-1
 614 1331 l 1,38,-1
 833 1108 l 1,32,-1
780 1108 m 1,39,-1
 614 1278 l 1,40,-1
 449 1108 l 1,41,-1
 523 1027 l 1,42,-1
 523 309 l 1,43,-1
 705 309 l 1,44,-1
 705 1027 l 1,45,-1
 780 1108 l 1,39,-1
EndSplineSet
EndChar

StartChar: uni06EB
Encoding: 1771 1771 393
Width: 0
GlyphClass: 2
Flags: W
LayerCount: 2
Fore
SplineSet
168 1522 m 1,0,-1
 -1 1354 l 1,1,-1
 -168 1521 l 1,2,-1
 1 1689 l 1,3,-1
 168 1522 l 1,0,-1
104 1522 m 1,4,-1
 0 1626 l 1,5,-1
 -104 1521 l 1,6,-1
 0 1417 l 1,7,-1
 104 1522 l 1,4,-1
EndSplineSet
EndChar

StartChar: comma
Encoding: 44 44 402
Width: 259
Flags: W
LayerCount: 2
Fore
SplineSet
231 169 m 1,0,-1
 74 -166 l 1,1,-1
 -9 -166 l 1,2,-1
 86 169 l 1,3,-1
 231 169 l 1,0,-1
EndSplineSet
EndChar

StartChar: afii57407
Encoding: 1567 1567 403
Width: 1028
GlyphClass: 2
Flags: W
LayerCount: 2
Fore
SplineSet
940 983 m 1,0,-1
 719 983 l 1,1,2
 719 1268 719 1268 516 1268 c 0,3,4
 422 1268 422 1268 373 1206 c 1,5,6
 332 1163 332 1163 332 1102 c 0,7,8
 332 1038 332 1038 358 993 c 1,9,-1
 473 868 l 1,10,11
 571 770 571 770 602 700 c 1,12,-1
 629 584 l 1,13,-1
 641 430 l 1,14,-1
 422 430 l 1,15,16
 422 565 422 565 385 641 c 0,17,18
 369 672 369 672 276 768 c 1,19,20
 172 868 172 868 139 926 c 0,21,22
 98 997 98 997 98 1092 c 0,23,24
 98 1270 98 1270 215 1370 c 128,-1,25
 332 1470 332 1470 508 1470 c 0,26,27
 680 1470 680 1470 797 1378 c 0,28,29
 885 1309 885 1309 915 1206 c 1,30,-1
 930 1112 l 1,31,-1
 940 983 l 1,0,-1
676 139 m 0,32,33
 676 88 676 88 633 37 c 1,34,35
 584 0 584 0 524 0 c 0,36,37
 467 0 467 0 416 37 c 1,38,39
 373 78 373 78 373 139 c 0,40,41
 373 266 373 266 524 266 c 0,42,43
 676 266 676 266 676 139 c 0,32,33
EndSplineSet
EndChar

StartChar: afii57392
Encoding: 1776 1776 404
Width: 754
Flags: W
LayerCount: 2
Fore
SplineSet
141 629 m 0,0,1
 141 677 141 677 160 720 c 128,-1,2
 179 763 179 763 212 795 c 128,-1,3
 245 827 245 827 289.5 845.5 c 128,-1,4
 334 864 334 864 385 864 c 0,5,6
 434 864 434 864 478 845.5 c 128,-1,7
 522 827 522 827 555 795 c 128,-1,8
 588 763 588 763 607.5 720 c 128,-1,9
 627 677 627 677 627 629 c 0,10,11
 627 579 627 579 607.5 535.5 c 128,-1,12
 588 492 588 492 555 459.5 c 128,-1,13
 522 427 522 427 478 408 c 128,-1,14
 434 389 434 389 385 389 c 0,15,16
 334 389 334 389 289.5 408 c 128,-1,17
 245 427 245 427 212 459.5 c 128,-1,18
 179 492 179 492 160 535.5 c 128,-1,19
 141 579 141 579 141 629 c 0,0,1
262 627 m 0,20,21
 262 602 262 602 271.5 580.5 c 128,-1,22
 281 559 281 559 297.5 543.5 c 128,-1,23
 314 528 314 528 336 519 c 128,-1,24
 358 510 358 510 383 510 c 256,25,26
 408 510 408 510 430.5 519 c 128,-1,27
 453 528 453 528 469 543.5 c 128,-1,28
 485 559 485 559 494.5 580.5 c 128,-1,29
 504 602 504 602 504 627 c 0,30,31
 504 651 504 651 494.5 672.5 c 128,-1,32
 485 694 485 694 469 710 c 128,-1,33
 453 726 453 726 430.5 735.5 c 128,-1,34
 408 745 408 745 383 745 c 256,35,36
 358 745 358 745 336 735.5 c 128,-1,37
 314 726 314 726 297.5 710 c 128,-1,38
 281 694 281 694 271.5 672.5 c 128,-1,39
 262 651 262 651 262 627 c 0,20,21
EndSplineSet
EndChar

StartChar: afii57393
Encoding: 1777 1777 405
Width: 690
Flags: W
LayerCount: 2
Fore
SplineSet
494 0 m 1,0,-1
 270 0 l 1,1,-1
 270 700 l 2,2,3
 270 868 270 868 246 1057 c 1,4,5
 229 1153 229 1153 209 1233 c 0,6,7
 199 1268 199 1268 187.5 1317 c 128,-1,8
 176 1366 176 1366 160 1415 c 1,9,-1
 379 1487 l 1,10,-1
 457 1176 l 1,11,12
 494 926 494 926 494 700 c 2,13,-1
 494 0 l 1,0,-1
EndSplineSet
EndChar

StartChar: afii57394
Encoding: 1778 1778 406
Width: 1241
Flags: W
LayerCount: 2
Fore
SplineSet
1081 1096 m 1,0,1
 1092 913 1092 913 958.5 836.5 c 128,-1,2
 825 760 825 760 743 774 c 1,3,4
 655 760 655 760 537 831 c 1,5,-1
 541 4 l 1,6,-1
 313 4 l 1,7,-1
 313 670 l 2,8,9
 313 874 313 874 288.5 1069 c 128,-1,10
 264 1264 264 1264 207 1415 c 1,11,-1
 426 1491 l 1,12,-1
 516 1112 l 2,13,14
 551 971 551 971 686 971 c 0,15,16
 758 971 758 971 810 1019 c 128,-1,17
 862 1067 862 1067 862 1153 c 1,18,-1
 827 1423 l 1,19,-1
 903 1446 l 1,20,-1
 1040 1493 l 1,21,22
 1085 1180 1085 1180 1081 1096 c 1,0,1
EndSplineSet
EndChar

StartChar: afii57395
Encoding: 1779 1779 407
Width: 1565
Flags: W
LayerCount: 2
Fore
SplineSet
1473 1118 m 1,0,1
 1473 997 1473 997 1382 889 c 1,2,3
 1280 795 1280 795 1145 795 c 1,4,5
 961 780 961 780 862 950 c 1,6,7
 811 786 811 786 654.5 777 c 128,-1,8
 498 768 498 768 399 842 c 1,9,-1
 401 4 l 1,10,-1
 176 4 l 1,11,-1
 176 670 l 2,12,13
 176 1096 176 1096 63 1415 c 1,14,-1
 287 1491 l 1,15,-1
 375 1112 l 1,16,17
 412 971 412 971 545 971 c 0,18,19
 612 971 612 971 670.5 1019 c 128,-1,20
 729 1067 729 1067 729 1153 c 1,21,-1
 682 1423 l 1,22,-1
 899 1501 l 1,23,24
 950 1237 950 1237 950 1098 c 1,25,-1
 946 1038 l 1,26,27
 1004 963 1004 963 1087 963 c 0,28,29
 1155 963 1155 963 1204 1012 c 128,-1,30
 1253 1061 1253 1061 1253 1153 c 1,31,-1
 1217 1423 l 1,32,-1
 1434 1491 l 1,33,-1
 1470 1182 l 1,34,-1
 1473 1118 l 1,0,1
EndSplineSet
EndChar

StartChar: afii62843
Encoding: 1780 1780 408
Width: 1534
Flags: W
LayerCount: 2
Fore
SplineSet
1366 848 m 1,0,1
 1241 795 1241 795 1128 764 c 0,2,3
 1081 754 1081 754 1021 743.5 c 128,-1,4
 961 733 961 733 905 733 c 0,5,6
 707 733 707 733 500 825 c 1,7,-1
 500 4 l 1,8,-1
 281 4 l 1,9,-1
 281 686 l 2,10,11
 281 848 281 848 254 1030 c 0,12,13
 246 1077 246 1077 243 1115 c 128,-1,14
 240 1153 240 1153 219 1212 c 1,15,-1
 168 1415 l 1,16,-1
 385 1491 l 1,17,-1
 446 1243 l 1,18,-1
 487 1044 l 1,19,-1
 602 983 l 1,20,21
 602 1128 602 1128 623.5 1211 c 128,-1,22
 645 1294 645 1294 707 1368 c 0,23,24
 821 1501 821 1501 1010 1501 c 0,25,26
 1153 1501 1153 1501 1298 1430 c 1,27,-1
 1221 1237 l 1,28,-1
 1217 1231 l 1,29,30
 1124 1300 1124 1300 1028 1300 c 0,31,32
 915 1300 915 1300 842 1206 c 1,33,34
 831 1182 831 1182 817 1165 c 1,35,36
 797 1124 797 1124 797 1085 c 1,37,-1
 807 1030 l 1,38,39
 838 932 838 932 971 932 c 0,40,41
 1102 932 1102 932 1294 1034 c 1,42,-1
 1366 848 l 1,0,1
EndSplineSet
EndChar

StartChar: afii62844
Encoding: 1781 1781 409
Width: 1778
Flags: W
LayerCount: 2
Fore
SplineSet
1622 412 m 0,0,1
 1622 240 1622 240 1491 115 c 1,2,3
 1366 10 1366 10 1182 10 c 0,4,5
 1010 10 1010 10 893 98 c 1,6,7
 733 6 733 6 588 6 c 0,8,9
 420 6 420 6 314.5 128 c 128,-1,10
 209 250 209 250 209 440 c 0,11,12
 209 727 209 727 436 1004 c 2,13,-1
 682 1309 l 1,14,-1
 594 1372 l 1,15,-1
 739 1548 l 1,16,17
 1622 885 1622 885 1622 412 c 0,0,1
1384 459 m 0,18,19
 1384 545 1384 545 1321 666 c 0,20,21
 1200 885 1200 885 852 1174 c 1,22,23
 449 750 449 750 449 473 c 0,24,25
 449 373 449 373 500 313.5 c 128,-1,26
 551 254 551 254 633 254 c 0,27,28
 727 254 727 254 780 328 c 0,29,30
 817 381 817 381 817 457 c 1,31,-1
 807 537 l 1,32,-1
 1034 537 l 1,33,-1
 1044 500 l 1,34,-1
 1049 453 l 1,35,-1
 1044 369 l 2,36,37
 1044 342 1044 342 1024 297 c 1,38,39
 1096 256 1096 256 1174 256 c 0,40,41
 1305 256 1305 256 1362 354 c 1,42,43
 1384 406 1384 406 1384 459 c 0,18,19
EndSplineSet
EndChar

StartChar: afii62845
Encoding: 1782 1782 410
Width: 1331
Flags: W
LayerCount: 2
Fore
SplineSet
1118 899 m 1,0,1
 1049 836 1049 836 940 713 c 1,2,-1
 750 477 l 1,3,4
 565 233 565 233 416 -27 c 1,5,-1
 217 98 l 1,6,7
 324 297 324 297 633 707 c 1,8,9
 416 707 416 707 295 836 c 1,10,11
 186 946 186 946 186 1112 c 0,12,13
 186 1331 186 1331 369 1470 c 1,14,15
 473 1530 473 1530 584 1530 c 0,16,17
 717 1530 717 1530 874 1450 c 1,18,-1
 805 1243 l 1,19,20
 702 1300 702 1300 618 1300 c 0,21,22
 510 1300 510 1300 442 1202 c 0,23,24
 416 1159 416 1159 416 1112 c 256,25,26
 416 1065 416 1065 440 1024 c 0,27,28
 487 926 487 926 614 926 c 0,29,30
 682 926 682 926 764 953.5 c 128,-1,31
 846 981 846 981 932 1038 c 1,32,-1
 1118 899 l 1,0,1
EndSplineSet
EndChar

StartChar: afii57399
Encoding: 1783 1783 411
Width: 1534
Flags: W
LayerCount: 2
Fore
SplineSet
156 1399 m 1,0,-1
 260 1446 l 1,1,-1
 342 1501 l 1,2,3
 551 1153 551 1153 634 956.5 c 128,-1,4
 717 760 717 760 801 446 c 1,5,6
 879 791 879 791 946.5 934 c 128,-1,7
 1014 1077 1014 1077 1068 1191 c 128,-1,8
 1122 1305 1122 1305 1237 1501 c 1,9,-1
 1325 1446 l 1,10,-1
 1423 1395 l 1,11,12
 1176 989 1176 989 1058 613.5 c 128,-1,13
 940 238 940 238 885 14 c 1,14,-1
 709 14 l 1,15,16
 516 838 516 838 156 1399 c 1,0,-1
EndSplineSet
EndChar

StartChar: afii57400
Encoding: 1784 1784 412
Width: 1534
Flags: W
LayerCount: 2
Fore
SplineSet
1409 115 m 1,0,-1
 1305 68 l 1,1,-1
 1223 14 l 1,2,3
 1014 362 1014 362 931 558 c 128,-1,4
 848 754 848 754 764 1067 c 1,5,6
 686 723 686 723 616.5 566.5 c 128,-1,7
 547 410 547 410 494.5 309.5 c 128,-1,8
 442 209 442 209 328 14 c 1,9,-1
 240 68 l 1,10,-1
 141 119 l 1,11,12
 389 524 389 524 507 901 c 128,-1,13
 625 1278 625 1278 680 1501 c 1,14,-1
 854 1501 l 1,15,16
 1049 676 1049 676 1409 115 c 1,0,-1
EndSplineSet
EndChar

StartChar: afii57401
Encoding: 1785 1785 413
Width: 1270
Flags: W
LayerCount: 2
Fore
SplineSet
1014 4 m 1,0,-1
 791 4 l 1,1,-1
 791 786 l 1,2,-1
 655 743 l 1,3,4
 375 692 375 692 266 831 c 1,5,6
 182 926 182 926 182 1071 c 0,7,8
 182 1300 182 1300 305 1400.5 c 128,-1,9
 428 1501 428 1501 559 1504 c 128,-1,10
 690 1507 690 1507 808 1439.5 c 128,-1,11
 926 1372 926 1372 965 1212.5 c 128,-1,12
 1004 1053 1004 1053 1009 957.5 c 128,-1,13
 1014 862 1014 862 1014 748 c 2,14,-1
 1014 4 l 1,0,-1
772 1018 m 1,15,16
 764 1133 764 1133 733 1201.5 c 128,-1,17
 702 1270 702 1270 591.5 1275 c 128,-1,18
 481 1280 481 1280 435 1216.5 c 128,-1,19
 389 1153 389 1153 407.5 1057 c 128,-1,20
 426 961 426 961 544 951.5 c 128,-1,21
 662 942 662 942 772 1018 c 1,15,16
EndSplineSet
EndChar

StartChar: afii57392.001
Encoding: 1632 1632 414
Width: 754
Flags: W
LayerCount: 2
Fore
SplineSet
141 629 m 0,0,1
 141 677 141 677 160 720 c 128,-1,2
 179 763 179 763 212 795 c 128,-1,3
 245 827 245 827 289.5 845.5 c 128,-1,4
 334 864 334 864 385 864 c 0,5,6
 434 864 434 864 478 845.5 c 128,-1,7
 522 827 522 827 555 795 c 128,-1,8
 588 763 588 763 607.5 720 c 128,-1,9
 627 677 627 677 627 629 c 0,10,11
 627 579 627 579 607.5 535.5 c 128,-1,12
 588 492 588 492 555 459.5 c 128,-1,13
 522 427 522 427 478 408 c 128,-1,14
 434 389 434 389 385 389 c 0,15,16
 334 389 334 389 289.5 408 c 128,-1,17
 245 427 245 427 212 459.5 c 128,-1,18
 179 492 179 492 160 535.5 c 128,-1,19
 141 579 141 579 141 629 c 0,0,1
262 627 m 0,20,21
 262 602 262 602 271.5 580.5 c 128,-1,22
 281 559 281 559 297.5 543.5 c 128,-1,23
 314 528 314 528 336 519 c 128,-1,24
 358 510 358 510 383 510 c 256,25,26
 408 510 408 510 430.5 519 c 128,-1,27
 453 528 453 528 469 543.5 c 128,-1,28
 485 559 485 559 494.5 580.5 c 128,-1,29
 504 602 504 602 504 627 c 0,30,31
 504 651 504 651 494.5 672.5 c 128,-1,32
 485 694 485 694 469 710 c 128,-1,33
 453 726 453 726 430.5 735.5 c 128,-1,34
 408 745 408 745 383 745 c 256,35,36
 358 745 358 745 336 735.5 c 128,-1,37
 314 726 314 726 297.5 710 c 128,-1,38
 281 694 281 694 271.5 672.5 c 128,-1,39
 262 651 262 651 262 627 c 0,20,21
EndSplineSet
EndChar

StartChar: afii57393.001
Encoding: 1633 1633 415
Width: 690
Flags: W
LayerCount: 2
Fore
SplineSet
494 0 m 1,0,-1
 270 0 l 1,1,-1
 270 700 l 2,2,3
 270 868 270 868 246 1057 c 1,4,5
 229 1153 229 1153 209 1233 c 0,6,7
 199 1268 199 1268 187.5 1317 c 128,-1,8
 176 1366 176 1366 160 1415 c 1,9,-1
 379 1487 l 1,10,-1
 457 1176 l 1,11,12
 494 926 494 926 494 700 c 2,13,-1
 494 0 l 1,0,-1
EndSplineSet
EndChar

StartChar: afii57394.001
Encoding: 1634 1634 416
Width: 1241
Flags: W
LayerCount: 2
Fore
SplineSet
1081 1096 m 1,0,1
 1092 913 1092 913 958.5 836.5 c 128,-1,2
 825 760 825 760 743 774 c 1,3,4
 655 760 655 760 537 831 c 1,5,-1
 541 4 l 1,6,-1
 313 4 l 1,7,-1
 313 670 l 2,8,9
 313 874 313 874 288.5 1069 c 128,-1,10
 264 1264 264 1264 207 1415 c 1,11,-1
 426 1491 l 1,12,-1
 516 1112 l 2,13,14
 551 971 551 971 686 971 c 0,15,16
 758 971 758 971 810 1019 c 128,-1,17
 862 1067 862 1067 862 1153 c 1,18,-1
 827 1423 l 1,19,-1
 903 1446 l 1,20,-1
 1040 1493 l 1,21,22
 1085 1180 1085 1180 1081 1096 c 1,0,1
EndSplineSet
EndChar

StartChar: afii57395.001
Encoding: 1635 1635 417
Width: 1565
Flags: W
LayerCount: 2
Fore
SplineSet
1473 1118 m 1,0,1
 1473 997 1473 997 1382 889 c 1,2,3
 1280 795 1280 795 1145 795 c 1,4,5
 961 780 961 780 862 950 c 1,6,7
 811 786 811 786 654.5 777 c 128,-1,8
 498 768 498 768 399 842 c 1,9,-1
 401 4 l 1,10,-1
 176 4 l 1,11,-1
 176 670 l 2,12,13
 176 1096 176 1096 63 1415 c 1,14,-1
 287 1491 l 1,15,-1
 375 1112 l 1,16,17
 412 971 412 971 545 971 c 0,18,19
 612 971 612 971 670.5 1019 c 128,-1,20
 729 1067 729 1067 729 1153 c 1,21,-1
 682 1423 l 1,22,-1
 899 1501 l 1,23,24
 950 1237 950 1237 950 1098 c 1,25,-1
 946 1038 l 1,26,27
 1004 963 1004 963 1087 963 c 0,28,29
 1155 963 1155 963 1204 1012 c 128,-1,30
 1253 1061 1253 1061 1253 1153 c 1,31,-1
 1217 1423 l 1,32,-1
 1434 1491 l 1,33,-1
 1470 1182 l 1,34,-1
 1473 1118 l 1,0,1
EndSplineSet
EndChar

StartChar: afii57396
Encoding: 1636 1636 418
Width: 1315
Flags: W
LayerCount: 2
Fore
SplineSet
623 981 m 1,0,1
 707 981 707 981 903 1087 c 1,2,-1
 981 899 l 1,3,4
 791 805 791 805 668 737.5 c 128,-1,5
 545 670 545 670 470 615.5 c 128,-1,6
 395 561 395 561 363.5 517 c 128,-1,7
 332 473 332 473 328 422 c 1,8,9
 328 362 328 362 374 300 c 128,-1,10
 420 238 420 238 514 219 c 1,11,-1
 1063 209 l 1,12,-1
 1049 0 l 1,13,-1
 555 6 l 1,14,15
 432 -4 432 -4 338 35 c 128,-1,16
 244 74 244 74 186.5 141.5 c 128,-1,17
 129 209 129 209 106.5 299 c 128,-1,18
 84 389 84 389 107.5 483.5 c 128,-1,19
 131 578 131 578 200.5 671 c 128,-1,20
 270 764 270 764 391 836 c 1,21,22
 313 895 313 895 247.5 991 c 128,-1,23
 182 1087 182 1087 182 1196 c 2,24,-1
 182 1217 l 2,25,26
 182 1288 182 1288 211 1351.5 c 128,-1,27
 240 1415 240 1415 307 1473 c 1,28,-1
 307 1477 l 1,29,30
 436 1585 436 1585 584 1585 c 0,31,32
 729 1585 729 1585 899 1513 c 1,33,34
 893 1501 893 1501 883.5 1475.5 c 128,-1,35
 874 1450 874 1450 854 1389 c 0,36,37
 846 1372 846 1372 844 1365 c 128,-1,38
 842 1358 842 1358 836 1331 c 1,39,40
 754 1362 754 1362 701.5 1373 c 128,-1,41
 649 1384 649 1384 614 1384 c 0,42,43
 535 1384 535 1384 473.5 1336 c 128,-1,44
 412 1288 412 1288 412 1200 c 0,45,46
 412 1155 412 1155 426 1112 c 1,47,48
 453 1055 453 1055 499 1019 c 128,-1,49
 545 983 545 983 614 981 c 2,50,-1
 623 981 l 1,51,-1
 623 981 l 1,0,1
EndSplineSet
EndChar

StartChar: afii57397
Encoding: 1637 1637 419
Width: 1591
Flags: W
LayerCount: 2
Fore
SplineSet
1409 385 m 0,0,1
 1409 227 1409 227 1315 126 c 128,-1,2
 1221 25 1221 25 1068 3.5 c 128,-1,3
 915 -18 915 -18 848.5 -20.5 c 128,-1,4
 782 -23 782 -23 671.5 -17.5 c 128,-1,5
 561 -12 561 -12 434 28 c 128,-1,6
 307 68 307 68 209 164 c 1,7,8
 152 250 152 250 145.5 359.5 c 128,-1,9
 139 469 139 469 174 570.5 c 128,-1,10
 209 672 209 672 270.5 780.5 c 128,-1,11
 332 889 332 889 405.5 990.5 c 128,-1,12
 479 1092 479 1092 541 1159 c 1,13,-1
 547 1174 l 1,14,-1
 541 1221 l 1,15,-1
 530 1241 l 1,16,-1
 504 1257 l 1,17,-1
 614 1395 l 1,18,19
 1409 795 1409 795 1409 385 c 0,0,1
1169 430 m 0,20,21
 1169 545 1169 545 1063.5 688 c 128,-1,22
 958 831 958 831 719 1028 c 1,23,24
 618 909 618 909 553.5 821 c 128,-1,25
 489 733 489 733 446 652 c 128,-1,26
 403 571 403 571 389 490.5 c 128,-1,27
 375 410 375 410 401 322 c 1,28,29
 442 264 442 264 525 231.5 c 128,-1,30
 608 199 608 199 766 199 c 0,31,32
 926 199 926 199 1028 227 c 0,33,34
 1169 268 1169 268 1169 430 c 0,20,21
EndSplineSet
EndChar

StartChar: afii57398
Encoding: 1638 1638 420
Width: 1223
Flags: W
LayerCount: 2
Fore
SplineSet
750 1049 m 1,0,1
 623 983 623 983 499 989 c 128,-1,2
 375 995 375 995 281.5 1055.5 c 128,-1,3
 188 1116 188 1116 138 1223.5 c 128,-1,4
 88 1331 88 1331 113 1466 c 1,5,-1
 358 1466 l 1,6,7
 330 1286 330 1286 460 1247 c 128,-1,8
 590 1208 590 1208 692.5 1261.5 c 128,-1,9
 795 1315 795 1315 848 1501 c 1,10,-1
 1071 1470 l 1,11,12
 1030 1356 1030 1356 1005.5 1192 c 128,-1,13
 981 1028 981 1028 966.5 849 c 128,-1,14
 952 670 952 670 947 493.5 c 128,-1,15
 942 317 942 317 942 182 c 2,16,-1
 942 88 l 2,17,18
 942 57 942 57 946 -6 c 1,19,-1
 717 6 l 1,20,21
 713 53 713 53 711 91 c 128,-1,22
 709 129 709 129 708 158.5 c 128,-1,23
 707 188 707 188 707 219 c 2,24,-1
 707 385 l 2,25,26
 709 473 709 473 716 645 c 128,-1,27
 723 817 723 817 750 1049 c 1,0,1
EndSplineSet
EndChar

StartChar: afii57399.001
Encoding: 1639 1639 421
Width: 1534
Flags: W
LayerCount: 2
Fore
SplineSet
156 1399 m 1,0,-1
 260 1446 l 1,1,-1
 342 1501 l 1,2,3
 551 1153 551 1153 634 956.5 c 128,-1,4
 717 760 717 760 801 446 c 1,5,6
 879 791 879 791 946.5 934 c 128,-1,7
 1014 1077 1014 1077 1068 1191 c 128,-1,8
 1122 1305 1122 1305 1237 1501 c 1,9,-1
 1325 1446 l 1,10,-1
 1423 1395 l 1,11,12
 1176 989 1176 989 1058 613.5 c 128,-1,13
 940 238 940 238 885 14 c 1,14,-1
 709 14 l 1,15,16
 516 838 516 838 156 1399 c 1,0,-1
EndSplineSet
EndChar

StartChar: afii57400.001
Encoding: 1640 1640 422
Width: 1534
Flags: W
LayerCount: 2
Fore
SplineSet
1409 115 m 1,0,-1
 1305 68 l 1,1,-1
 1223 14 l 1,2,3
 1014 362 1014 362 931 558 c 128,-1,4
 848 754 848 754 764 1067 c 1,5,6
 686 723 686 723 616.5 566.5 c 128,-1,7
 547 410 547 410 494.5 309.5 c 128,-1,8
 442 209 442 209 328 14 c 1,9,-1
 240 68 l 1,10,-1
 141 119 l 1,11,12
 389 524 389 524 507 901 c 128,-1,13
 625 1278 625 1278 680 1501 c 1,14,-1
 854 1501 l 1,15,16
 1049 676 1049 676 1409 115 c 1,0,-1
EndSplineSet
EndChar

StartChar: afii57401.001
Encoding: 1641 1641 423
Width: 1270
Flags: W
LayerCount: 2
Fore
SplineSet
1014 4 m 1,0,-1
 791 4 l 1,1,-1
 791 786 l 1,2,-1
 655 743 l 1,3,4
 375 692 375 692 266 831 c 1,5,6
 182 926 182 926 182 1071 c 0,7,8
 182 1300 182 1300 305 1400.5 c 128,-1,9
 428 1501 428 1501 559 1504 c 128,-1,10
 690 1507 690 1507 808 1439.5 c 128,-1,11
 926 1372 926 1372 965 1212.5 c 128,-1,12
 1004 1053 1004 1053 1009 957.5 c 128,-1,13
 1014 862 1014 862 1014 748 c 2,14,-1
 1014 4 l 1,0,-1
772 1018 m 1,15,16
 764 1133 764 1133 733 1201.5 c 128,-1,17
 702 1270 702 1270 591.5 1275 c 128,-1,18
 481 1280 481 1280 435 1216.5 c 128,-1,19
 389 1153 389 1153 407.5 1057 c 128,-1,20
 426 961 426 961 544 951.5 c 128,-1,21
 662 942 662 942 772 1018 c 1,15,16
EndSplineSet
EndChar

StartChar: guillemotleft
Encoding: 171 171 424
Width: 840
Flags: W
LayerCount: 2
Fore
SplineSet
483 411 m 2,0,1
 483 490 483 490 498 564.5 c 128,-1,2
 513 639 513 639 560.5 719.5 c 128,-1,3
 608 800 608 800 725 837 c 1,4,5
 737 831 737 831 713 785 c 0,6,7
 676 706 676 706 653 610 c 0,8,9
 629 516 629 516 629 406 c 2,10,-1
 629 403 l 2,11,12
 629 293 629 293 653 198 c 0,13,14
 676 103 676 103 713 24 c 0,15,16
 737 -22 737 -22 725 -28 c 1,17,18
 608 8 608 8 560 89 c 0,19,20
 513 169 513 169 498 243.5 c 128,-1,21
 483 318 483 318 483 398 c 2,22,-1
 483 411 l 2,0,1
203 411 m 2,23,24
 203 490 203 490 218 564.5 c 128,-1,25
 233 639 233 639 280.5 719.5 c 128,-1,26
 328 800 328 800 445 837 c 1,27,28
 457 831 457 831 433 785 c 0,29,30
 396 706 396 706 373 610 c 0,31,32
 349 516 349 516 349 406 c 2,33,-1
 349 403 l 2,34,35
 349 293 349 293 373 198 c 0,36,37
 396 103 396 103 433 24 c 0,38,39
 457 -22 457 -22 445 -28 c 1,40,41
 328 8 328 8 280 89 c 0,42,43
 233 169 233 169 218 243.5 c 128,-1,44
 203 318 203 318 203 398 c 2,45,-1
 203 411 l 2,23,24
EndSplineSet
EndChar

StartChar: guillemotright
Encoding: 187 187 425
Width: 825
Flags: W
LayerCount: 2
Fore
SplineSet
457 398 m 2,0,1
 457 318 457 318 442 243.5 c 128,-1,2
 427 169 427 169 380 89 c 0,3,4
 332 8 332 8 215 -28 c 1,5,6
 203 -22 203 -22 227 24 c 0,7,8
 264 103 264 103 287 198 c 0,9,10
 311 293 311 293 311 403 c 2,11,-1
 311 406 l 2,12,13
 311 516 311 516 287 610 c 0,14,15
 264 706 264 706 227 785 c 0,16,17
 203 831 203 831 215 837 c 1,18,19
 332 800 332 800 379.5 719.5 c 128,-1,20
 427 639 427 639 442 564.5 c 128,-1,21
 457 490 457 490 457 411 c 2,22,-1
 457 398 l 2,0,1
737 398 m 2,23,24
 737 318 737 318 722 243.5 c 128,-1,25
 707 169 707 169 660 89 c 0,26,27
 612 8 612 8 495 -28 c 1,28,29
 483 -22 483 -22 507 24 c 0,30,31
 544 103 544 103 567 198 c 0,32,33
 591 293 591 293 591 403 c 2,34,-1
 591 406 l 2,35,36
 591 516 591 516 567 610 c 0,37,38
 544 706 544 706 507 785 c 0,39,40
 483 831 483 831 495 837 c 1,41,42
 612 800 612 800 659.5 719.5 c 128,-1,43
 707 639 707 639 722 564.5 c 128,-1,44
 737 490 737 490 737 411 c 2,45,-1
 737 398 l 2,23,24
EndSplineSet
EndChar

StartChar: quoteleft
Encoding: 8216 8216 426
Width: 516
Flags: W
LayerCount: 2
Fore
SplineSet
111 1104 m 0,0,1
 115 1196 115 1196 176.5 1285.5 c 128,-1,2
 238 1375 238 1375 313 1411 c 1,3,-1
 356 1327 l 1,4,5
 336 1315 336 1315 305 1281.5 c 128,-1,6
 274 1248 274 1248 258 1196 c 1,7,8
 350 1155 350 1155 348 1080 c 0,9,10
 348 1057 348 1057 338.5 1036 c 128,-1,11
 329 1015 329 1015 313.5 999 c 128,-1,12
 298 983 298 983 277 974 c 128,-1,13
 256 965 256 965 233 965 c 0,14,15
 205 965 205 965 182.5 977.5 c 128,-1,16
 160 990 160 990 144 1009.5 c 128,-1,17
 128 1029 128 1029 119.5 1054 c 128,-1,18
 111 1079 111 1079 111 1104 c 0,0,1
EndSplineSet
EndChar

StartChar: quoteright
Encoding: 8217 8217 427
Width: 575
Flags: W
LayerCount: 2
Fore
SplineSet
416 1276 m 0,0,1
 412 1184 412 1184 350.5 1095 c 128,-1,2
 289 1006 289 1006 213 969 c 1,3,-1
 170 1051 l 1,4,5
 190 1063 190 1063 221 1097 c 128,-1,6
 252 1131 252 1131 268 1184 c 1,7,8
 176 1223 176 1223 178 1301 c 0,9,10
 178 1324 178 1324 187 1344.5 c 128,-1,11
 196 1365 196 1365 212 1380 c 128,-1,12
 228 1395 228 1395 249 1404 c 128,-1,13
 270 1413 270 1413 293 1413 c 0,14,15
 321 1413 321 1413 344 1401 c 128,-1,16
 367 1389 367 1389 383 1370 c 128,-1,17
 399 1351 399 1351 407.5 1326 c 128,-1,18
 416 1301 416 1301 416 1276 c 0,0,1
EndSplineSet
EndChar

StartChar: afii57451
Encoding: 1611 1611 428
Width: 0
GlyphClass: 4
Flags: W
AnchorPoint: "Anchor-2" 0 0 mark 0
AnchorPoint: "Anchor-0" 0 0 mark 0
LayerCount: 2
Fore
SplineSet
-289 281 m 1,0,-1
 256 422 l 1,1,-1
 256 324 l 1,2,-1
 -289 185 l 1,3,-1
 -289 281 l 1,0,-1
-289 101 m 1,4,-1
 256 242 l 1,5,-1
 256 144 l 1,6,-1
 -289 5 l 1,7,-1
 -289 101 l 1,4,-1
EndSplineSet
EndChar

StartChar: afii57454
Encoding: 1614 1614 429
Width: 0
GlyphClass: 4
Flags: W
AnchorPoint: "Anchor-2" 0 0 mark 0
AnchorPoint: "Anchor-0" 0 0 mark 0
LayerCount: 2
Fore
SplineSet
-289 101 m 1,0,-1
 256 242 l 1,1,-1
 256 144 l 1,2,-1
 -289 5 l 1,3,-1
 -289 101 l 1,0,-1
EndSplineSet
EndChar

StartChar: afii57455
Encoding: 1615 1615 430
Width: 0
GlyphClass: 4
Flags: W
AnchorPoint: "Anchor-2" 0 0 mark 0
AnchorPoint: "Anchor-0" 0 0 mark 0
LayerCount: 2
Fore
SplineSet
225 431 m 0,0,1
 226 299 226 299 127 233 c 1,2,-1
 -281 2 l 1,3,-1
 -341 104 l 1,4,-1
 -47 269 l 1,5,6
 -139 317 -139 317 -141 415 c 0,7,8
 -143 485 -143 485 -100 541 c 128,-1,9
 -57 597 -57 597 21 612 c 1,10,11
 102 620 102 620 164 567 c 128,-1,12
 226 514 226 514 225 431 c 0,0,1
-31 423 m 0,13,14
 -31 392 -31 392 -10 371 c 128,-1,15
 11 350 11 350 42 350 c 0,16,17
 72 350 72 350 93.5 371 c 128,-1,18
 115 392 115 392 115 423 c 0,19,20
 115 453 115 453 93.5 474.5 c 128,-1,21
 72 496 72 496 42 496 c 0,22,23
 11 496 11 496 -10 474.5 c 128,-1,24
 -31 453 -31 453 -31 423 c 0,13,14
EndSplineSet
EndChar

StartChar: afii57452
Encoding: 1612 1612 431
Width: 0
GlyphClass: 4
Flags: W
AnchorPoint: "Anchor-2" 0 0 mark 0
AnchorPoint: "Anchor-0" 0 0 mark 0
LayerCount: 2
Fore
SplineSet
221 416 m 0,0,1
 222 284 222 284 123 218 c 1,2,-1
 -285 -13 l 1,3,-1
 -345 89 l 1,4,5
 -252 140 -252 140 -242 160 c 0,6,7
 -225 217 -225 217 -278 222 c 0,8,9
 -315 222 -315 222 -401 205 c 1,10,-1
 -416 311 l 1,11,12
 -154 360 -154 360 -142 199 c 1,13,-1
 -51 254 l 1,14,15
 -143 302 -143 302 -145 400 c 0,16,17
 -147 470 -147 470 -104 526 c 128,-1,18
 -61 582 -61 582 17 597 c 1,19,20
 98 605 98 605 160 552 c 128,-1,21
 222 499 222 499 221 416 c 0,0,1
-35 408 m 0,22,23
 -35 377 -35 377 -14 356 c 128,-1,24
 7 335 7 335 38 335 c 0,25,26
 68 335 68 335 89.5 356 c 128,-1,27
 111 377 111 377 111 408 c 0,28,29
 111 438 111 438 89.5 459.5 c 128,-1,30
 68 481 68 481 38 481 c 0,31,32
 7 481 7 481 -14 459.5 c 128,-1,33
 -35 438 -35 438 -35 408 c 0,22,23
EndSplineSet
EndChar

StartChar: afii57456
Encoding: 1616 1616 432
Width: 0
GlyphClass: 4
Flags: W
AnchorPoint: "Anchor-3" 0 0 mark 0
AnchorPoint: "Anchor-1" 0 0 mark 0
LayerCount: 2
Fore
SplineSet
-289 101 m 1,0,-1
 256 242 l 1,1,-1
 256 144 l 1,2,-1
 -289 5 l 1,3,-1
 -289 101 l 1,0,-1
EndSplineSet
EndChar

StartChar: afii57457
Encoding: 1617 1617 433
Width: 0
GlyphClass: 4
Flags: W
AnchorPoint: "Anchor-2" 0 0 mark 0
AnchorPoint: "Anchor-0" 0 0 mark 0
LayerCount: 2
Fore
SplineSet
-252 278 m 1,0,-1
 -156 278 l 1,1,-1
 -156 142 l 2,2,3
 -153 111 -153 111 -102.5 108 c 128,-1,4
 -52 105 -52 105 -52 142 c 2,5,-1
 -52 278 l 1,6,-1
 44 278 l 1,7,-1
 44 142 l 2,8,9
 44 121 44 121 60 111 c 128,-1,10
 76 101 76 101 111 103 c 128,-1,11
 146 105 146 105 146 135 c 2,12,-1
 146 278 l 1,13,-1
 246 278 l 1,14,-1
 246 147 l 1,15,16
 242 81 242 81 220 58 c 0,17,18
 178 10 178 10 113 12 c 0,19,20
 47 12 47 12 0 58 c 1,21,22
 -31 7 -31 7 -123 7 c 0,23,24
 -184 7 -184 7 -218 44 c 128,-1,25
 -252 81 -252 81 -252 147 c 2,26,-1
 -252 278 l 1,0,-1
EndSplineSet
EndChar

StartChar: afii57458
Encoding: 1618 1618 434
Width: 0
GlyphClass: 4
Flags: W
AnchorPoint: "Anchor-2" 0 0 mark 0
AnchorPoint: "Anchor-0" 0 0 mark 0
LayerCount: 2
Fore
SplineSet
-228 245 m 256,0,1
 -228 296 -228 296 -210.5 340.5 c 128,-1,2
 -193 385 -193 385 -162.5 417.5 c 128,-1,3
 -132 450 -132 450 -90 469.5 c 128,-1,4
 -48 489 -48 489 1 489 c 256,5,6
 50 489 50 489 92 469.5 c 128,-1,7
 134 450 134 450 165 417.5 c 128,-1,8
 196 385 196 385 213.5 340.5 c 128,-1,9
 231 296 231 296 231 245 c 256,10,11
 231 194 231 194 213.5 150 c 128,-1,12
 196 106 196 106 165 74.5 c 128,-1,13
 134 43 134 43 92 24.5 c 128,-1,14
 50 6 50 6 1 6 c 256,15,16
 -48 6 -48 6 -90 24.5 c 128,-1,17
 -132 43 -132 43 -162.5 74.5 c 128,-1,18
 -193 106 -193 106 -210.5 150 c 128,-1,19
 -228 194 -228 194 -228 245 c 256,0,1
-120 241 m 0,20,21
 -120 187 -120 187 -83 149 c 128,-1,22
 -46 111 -46 111 5 111 c 0,23,24
 55 111 55 111 92 149 c 128,-1,25
 129 187 129 187 129 241 c 0,26,27
 129 297 129 297 92 336.5 c 128,-1,28
 55 376 55 376 5 376 c 0,29,30
 -46 376 -46 376 -83 336.5 c 128,-1,31
 -120 297 -120 297 -120 241 c 0,20,21
EndSplineSet
EndChar

StartChar: exclam
Encoding: 33 33 437
Width: 437
GlyphClass: 2
Flags: W
LayerCount: 2
Fore
SplineSet
397 109 m 256,0,1
 397 64 397 64 364.5 31.5 c 128,-1,2
 332 -1 332 -1 287 -1 c 256,3,4
 242 -1 242 -1 209.5 31.5 c 128,-1,5
 177 64 177 64 177 109 c 256,6,7
 177 154 177 154 209.5 186 c 128,-1,8
 242 218 242 218 287 218 c 256,9,10
 332 218 332 218 364.5 186 c 128,-1,11
 397 154 397 154 397 109 c 256,0,1
397 325 m 1,12,-1
 177 325 l 1,13,-1
 177 1456 l 1,14,-1
 397 1456 l 1,15,-1
 397 325 l 1,12,-1
EndSplineSet
EndChar

StartChar: afii64060
Encoding: 64830 64830 438
Width: 860
GlyphClass: 2
Flags: W
LayerCount: 2
Fore
SplineSet
455 -78 m 1,0,1
 122 362 122 362 122 772 c 0,2,3
 122 987 122 987 216 1204 c 1,4,5
 244 1290 244 1290 297.5 1384.5 c 128,-1,6
 351 1479 351 1479 455 1599 c 1,7,-1
 596 1599 l 1,8,9
 522 1462 522 1462 474 1356.5 c 128,-1,10
 426 1251 426 1251 406 1176 c 0,11,12
 342 969 342 969 342 725 c 0,13,14
 342 358 342 358 598 -78 c 1,15,-1
 455 -78 l 1,0,1
EndSplineSet
EndChar

StartChar: afii64061
Encoding: 64831 64831 439
Width: 758
GlyphClass: 2
Flags: W
LayerCount: 2
Fore
SplineSet
122 -78 m 1,0,1
 378 358 378 358 378 725 c 0,2,3
 378 969 378 969 314 1176 c 0,4,5
 294 1251 294 1251 246 1356.5 c 128,-1,6
 198 1462 198 1462 124 1599 c 1,7,-1
 265 1599 l 1,8,9
 369 1479 369 1479 422.5 1384.5 c 128,-1,10
 476 1290 476 1290 504 1204 c 1,11,12
 598 987 598 987 598 772 c 0,13,14
 598 362 598 362 265 -78 c 1,15,-1
 122 -78 l 1,0,1
EndSplineSet
EndChar

StartChar: afii62821
Encoding: 65252 65252 440
Width: 1149
GlyphClass: 2
Flags: W
AnchorPoint: "Anchor-3" 480 -525 basechar 0
AnchorPoint: "Anchor-2" 570 1200 basechar 0
LayerCount: 2
Fore
SplineSet
1180 0 m 1,0,1
 1057 0 1057 0 997 27 c 0,2,3
 950 51 950 51 899 131 c 1,4,5
 797 -35 797 -35 584 -35 c 0,6,7
 516 -35 516 -35 412 20 c 1,8,9
 328 72 328 72 285 131 c 1,10,11
 260 0 260 0 -61 0 c 1,12,-1
 -61 227 l 1,13,14
 129 227 129 227 162 266 c 0,15,16
 178 285 178 285 178 442 c 0,17,18
 178 641 178 641 281.5 777 c 128,-1,19
 385 913 385 913 584 913 c 0,20,21
 768 913 768 913 875.5 776 c 128,-1,22
 983 639 983 639 983 442 c 0,23,24
 983 303 983 303 1011.5 265 c 128,-1,25
 1040 227 1040 227 1180 227 c 1,26,-1
 1180 0 l 1,0,1
778 442 m 0,27,28
 778 690 778 690 582 690 c 0,29,30
 381 690 381 690 381 442 c 0,31,32
 381 193 381 193 582 193 c 0,33,34
 778 193 778 193 778 442 c 0,27,28
EndSplineSet
EndChar

StartChar: uni25CC
Encoding: 9676 9676 441
Width: 911
Flags: W
AnchorPoint: "Anchor-3" 480 -390 basechar 0
AnchorPoint: "Anchor-2" 465 975 basechar 0
LayerCount: 2
Fore
SplineSet
771 629 m 256,0,1
 771 592 771 592 734 592 c 0,2,3
 695 592 695 592 695 629 c 256,4,5
 695 666 695 666 734 666 c 0,6,7
 771 666 771 666 771 629 c 256,0,1
658 703 m 0,8,9
 658 666 658 666 621 666 c 0,10,11
 582 666 582 666 582 703 c 0,12,13
 582 742 582 742 621 742 c 0,14,15
 658 742 658 742 658 703 c 0,8,9
847 516 m 0,16,17
 847 477 847 477 808 477 c 0,18,19
 771 477 771 477 771 516 c 0,20,21
 771 553 771 553 810 553 c 0,22,23
 847 553 847 553 847 516 c 0,16,17
873 384 m 256,24,25
 873 347 873 347 836 347 c 0,26,27
 797 347 797 347 797 384 c 256,28,29
 797 421 797 421 836 421 c 0,30,31
 873 421 873 421 873 384 c 256,24,25
525 731 m 0,32,33
 525 692 525 692 488 692 c 256,34,35
 451 692 451 692 451 731 c 0,36,37
 451 768 451 768 488 768 c 256,38,39
 525 768 525 768 525 731 c 0,32,33
847 251 m 0,40,41
 847 214 847 214 808 214 c 0,42,43
 771 214 771 214 771 251 c 0,44,45
 771 290 771 290 808 290 c 0,46,47
 847 290 847 290 847 251 c 0,40,41
394 703 m 0,48,49
 394 666 394 666 356 666 c 0,50,51
 319 666 319 666 319 703 c 0,52,53
 319 742 319 742 356 742 c 0,54,55
 394 742 394 742 394 703 c 0,48,49
282 629 m 256,56,57
 282 592 282 592 243 592 c 0,58,59
 206 592 206 592 206 627 c 0,60,61
 206 666 206 666 243 666 c 0,62,63
 282 666 282 666 282 629 c 256,56,57
771 138 m 0,64,65
 771 101 771 101 734 101 c 256,66,67
 697 101 697 101 697 138 c 0,68,69
 697 177 697 177 734 177 c 256,70,71
 771 177 771 177 771 138 c 0,64,65
658 64 m 0,72,73
 658 27 658 27 621 27 c 256,74,75
 584 27 584 27 584 64 c 0,76,77
 584 103 584 103 621 103 c 256,78,79
 658 103 658 103 658 64 c 0,72,73
206 516 m 0,80,81
 206 477 206 477 171 477 c 0,82,83
 132 477 132 477 132 516 c 0,84,85
 132 553 132 553 169 553 c 256,86,87
 206 553 206 553 206 516 c 0,80,81
180 384 m 256,88,89
 180 347 180 347 143 347 c 0,90,91
 104 347 104 347 104 384 c 256,92,93
 104 421 104 421 143 421 c 0,94,95
 180 421 180 421 180 384 c 256,88,89
525 38 m 0,96,97
 525 -1 525 -1 488 -1 c 256,98,99
 451 -1 451 -1 451 38 c 0,100,101
 451 75 451 75 488 75 c 256,102,103
 525 75 525 75 525 38 c 0,96,97
394 66 m 0,104,105
 394 27 394 27 356 27 c 0,106,107
 319 27 319 27 319 64 c 0,108,109
 319 103 319 103 356 103 c 0,110,111
 394 103 394 103 394 66 c 0,104,105
206 251 m 0,112,113
 206 214 206 214 169 214 c 256,114,115
 132 214 132 214 132 251 c 0,116,117
 132 290 132 290 169 290 c 256,118,119
 206 290 206 290 206 251 c 0,112,113
282 138 m 0,120,121
 282 101 282 101 245 101 c 0,122,123
 206 101 206 101 206 138 c 0,124,125
 206 177 206 177 243 177 c 0,126,127
 282 177 282 177 282 138 c 0,120,121
EndSplineSet
EndChar

StartChar: afii62819
Encoding: 65246 65246 442
Width: 1788
GlyphClass: 2
Flags: W
AnchorPoint: "Anchor-3" 810 -1155 basechar 0
AnchorPoint: "Anchor-2" 855 1470 basechar 0
LayerCount: 2
Fore
SplineSet
1839 0 m 1,0,1
 1653 0 1653 0 1579 109 c 1,2,3
 1579 -207 1579 -207 1399 -412 c 1,4,5
 1237 -578 1237 -578 999 -578 c 2,6,-1
 649 -578 l 2,7,8
 432 -578 432 -578 265 -398.5 c 128,-1,9
 98 -219 98 -219 98 14 c 2,10,-1
 98 489 l 1,11,-1
 324 489 l 1,12,-1
 324 -16 l 2,13,14
 324 -145 324 -145 427 -248.5 c 128,-1,15
 530 -352 530 -352 692 -352 c 2,16,-1
 983 -352 l 2,17,18
 1128 -352 1128 -352 1238 -257 c 128,-1,19
 1348 -162 1348 -162 1348 -16 c 2,20,-1
 1348 1466 l 1,21,-1
 1575 1466 l 1,22,-1
 1575 389 l 2,23,24
 1575 227 1575 227 1839 227 c 1,25,-1
 1839 0 l 1,0,1
EndSplineSet
EndChar

StartChar: braceright
Encoding: 125 125 445
Width: 547
GlyphClass: 2
Flags: W
LayerCount: 2
Fore
SplineSet
502 359 m 1,0,1
 439 357 439 357 401 325 c 128,-1,2
 363 293 363 293 349 238 c 0,3,4
 337 184 337 184 334 49 c 0,5,6
 334 -84 334 -84 331 -126 c 0,7,8
 325 -176 325 -176 312.5 -211 c 128,-1,9
 300 -246 300 -246 282 -271 c 128,-1,10
 264 -296 264 -296 239 -311.5 c 128,-1,11
 214 -327 214 -327 182 -336 c 0,12,13
 166 -340 166 -340 141.5 -342 c 128,-1,14
 117 -344 117 -344 82 -344 c 2,15,-1
 38 -344 l 1,16,-1
 38 -219 l 1,17,-1
 62 -219 l 2,18,19
 146 -219 146 -219 172 -189 c 0,20,21
 200 -158 200 -158 200 -54 c 0,22,23
 200 146 200 146 206 200 c 0,24,25
 220 289 220 289 258.5 342 c 128,-1,26
 297 395 297 395 367 424 c 1,27,28
 274 470 274 470 238 541 c 0,29,30
 200 612 200 612 200 785 c 0,31,32
 200 863 200 863 199 909 c 128,-1,33
 198 955 198 955 197 971 c 0,34,35
 194 998 194 998 186.5 1016 c 128,-1,36
 179 1034 179 1034 164 1045 c 128,-1,37
 149 1056 149 1056 124 1061 c 128,-1,38
 99 1066 99 1066 62 1066 c 2,39,-1
 38 1066 l 1,40,-1
 38 1193 l 1,41,-1
 82 1193 l 2,42,43
 121 1193 121 1193 149.5 1189.5 c 128,-1,44
 178 1186 178 1186 197 1180 c 0,45,46
 248 1161 248 1161 281 1120.5 c 128,-1,47
 314 1080 314 1080 325 1016 c 0,48,49
 334 954 334 954 334 810 c 0,50,51
 337 666 337 666 349 610 c 0,52,53
 361 556 361 556 400 522 c 0,54,55
 440 491 440 491 502 490 c 1,56,-1
 502 359 l 1,0,1
EndSplineSet
EndChar

StartChar: uni0656
Encoding: 1622 1622 452
Width: 0
GlyphClass: 4
Flags: W
AnchorPoint: "Anchor-3" 0 0 mark 0
AnchorPoint: "Anchor-1" 0 0 mark 0
LayerCount: 2
Fore
SplineSet
57 3 m 1,0,-1
 -47 3 l 1,1,-1
 -47 355 l 1,2,-1
 57 355 l 1,3,-1
 57 3 l 1,0,-1
EndSplineSet
EndChar

StartChar: E005
Encoding: 65578 -1 470
Width: 476
GlyphClass: 3
Flags: W
LayerCount: 2
Fore
SplineSet
476 0 m 1,0,-1
 -69 0 l 1,1,-1
 -69 216 l 1,2,-1
 476 216 l 1,3,-1
 476 0 l 1,0,-1
EndSplineSet
EndChar

StartChar: afii57470
Encoding: 1726 1726 480
Width: 1455
Flags: W
AnchorPoint: "Anchor-3" 555 -630 basechar 0
AnchorPoint: "Anchor-2" 525 1440 basechar 0
LayerCount: 2
Fore
SplineSet
1384 301 m 0,0,1
 1384 217 1384 217 1327 115 c 1,2,3
 1200 -92 1200 -92 1014 -92 c 0,4,5
 836 -92 836 -92 541 82 c 1,6,7
 422 20 422 20 354 14 c 2,8,-1
 213 4 l 1,9,-1
 -41 0 l 1,10,-1
 -41 227 l 1,11,-1
 276 227 l 1,12,13
 217 303 217 303 182 385 c 1,14,-1
 160 459 l 1,15,-1
 156 541 l 1,16,17
 156 700 156 700 262.5 807.5 c 128,-1,18
 369 915 369 915 516 915 c 0,19,20
 670 915 670 915 797 795 c 1,21,-1
 649 946 l 1,22,-1
 821 1102 l 1,23,24
 1384 557 1384 557 1384 301 c 0,0,1
1149 287 m 1,25,26
 1149 428 1149 428 844 737 c 1,27,28
 915 657 915 657 915 514 c 0,29,30
 915 295 915 295 778 219 c 1,31,32
 903 150 903 150 997 150 c 0,33,34
 1075 150 1075 150 1124 207 c 0,35,36
 1128 217 1128 217 1133.5 228.5 c 128,-1,37
 1139 240 1139 240 1149 287 c 1,25,26
696 526 m 0,38,39
 696 594 696 594 642 650.5 c 128,-1,40
 588 707 588 707 500 707 c 1,41,42
 372 689 372 689 365 541 c 1,43,44
 365 395 365 395 547 324 c 1,45,46
 696 389 696 389 696 526 c 0,38,39
EndSplineSet
Substitution2: "'medi' Medial Forms in Arabic lookup 3 subtable" afii62827
Substitution2: "'fina' Terminal Forms in Arabic lookup 2 subtable" afii62827
Substitution2: "'init' Initial Forms in Arabic lookup 1 subtable" afii57470
EndChar

StartChar: at
Encoding: 64 64 489
Width: 1663
Flags: W
LayerCount: 2
Fore
SplineSet
929 131 m 1,0,1
 875 70 875 70 812 34 c 128,-1,2
 749 -2 749 -2 683 -2 c 0,3,4
 613 -2 613 -2 546 38.5 c 128,-1,5
 479 79 479 79 436 167 c 0,6,7
 394 254 394 254 394 357 c 0,8,9
 394 420 394 420 409.5 483.5 c 128,-1,10
 425 547 425 547 458 611 c 0,11,12
 526 739 526 739 621 803 c 0,13,14
 669 835 669 835 716.5 850.5 c 128,-1,15
 764 866 764 866 810 866 c 0,16,17
 879 866 879 866 942 830 c 128,-1,18
 1005 794 1005 794 1050 719 c 1,19,-1
 1078 844 l 1,20,-1
 1221 844 l 1,21,-1
 1106 308 l 2,22,23
 1082 195 1082 195 1082 183 c 0,24,25
 1082 163 1082 163 1098 147 c 128,-1,26
 1114 131 1114 131 1137 131 c 0,27,28
 1178 131 1178 131 1249 178 c 0,29,30
 1295 210 1295 210 1331.5 254.5 c 128,-1,31
 1368 299 1368 299 1393.5 351 c 128,-1,32
 1419 403 1419 403 1432.5 460 c 128,-1,33
 1446 517 1446 517 1446 574 c 0,34,35
 1446 640 1446 640 1429 703 c 128,-1,36
 1412 766 1412 766 1378 822.5 c 128,-1,37
 1344 879 1344 879 1292.5 926 c 128,-1,38
 1241 973 1241 973 1173 1008 c 0,39,40
 1039 1078 1039 1078 875 1078 c 0,41,42
 781 1078 781 1078 694 1055.5 c 128,-1,43
 607 1033 607 1033 532 990 c 128,-1,44
 457 947 457 947 395.5 884 c 128,-1,45
 334 821 334 821 292 739 c 0,46,47
 206 576 206 576 206 388 c 0,48,49
 206 190 206 190 290.5 49.5 c 128,-1,50
 375 -91 375 -91 538 -159 c 0,51,52
 702 -226 702 -226 896 -226 c 0,53,54
 1001 -226 1001 -226 1089 -207 c 128,-1,55
 1177 -188 1177 -188 1247.5 -155.5 c 128,-1,56
 1318 -123 1318 -123 1371.5 -79.5 c 128,-1,57
 1425 -36 1425 -36 1460 14 c 1,58,-1
 1604 14 l 1,59,60
 1584 -28 1584 -28 1548 -71.5 c 128,-1,61
 1512 -115 1512 -115 1463.5 -156 c 128,-1,62
 1415 -197 1415 -197 1355.5 -233 c 128,-1,63
 1296 -269 1296 -269 1227 -294 c 0,64,65
 1159 -320 1159 -320 1077 -332 c 128,-1,66
 995 -344 995 -344 898 -344 c 0,67,68
 765 -346 765 -346 647 -319 c 128,-1,69
 529 -292 529 -292 433 -240.5 c 128,-1,70
 337 -189 337 -189 266 -115.5 c 128,-1,71
 195 -42 195 -42 156 49 c 0,72,73
 122 124 122 124 105.5 205.5 c 128,-1,74
 89 287 89 287 89 375 c 0,75,76
 89 473 89 473 108 565.5 c 128,-1,77
 127 658 127 658 169 747 c 0,78,79
 268 964 268 964 446.5 1079 c 128,-1,80
 625 1194 625 1194 882 1194 c 0,81,82
 1081 1194 1081 1194 1238 1113.5 c 128,-1,83
 1395 1033 1395 1033 1488 872 c 0,84,85
 1526 801 1526 801 1545.5 726 c 128,-1,86
 1565 651 1565 651 1565 570 c 0,87,88
 1565 338 1565 338 1401 159 c 0,89,90
 1257 -3 1257 -3 1083 -3 c 0,91,92
 1028 -3 1028 -3 994 14.5 c 128,-1,93
 960 32 960 32 944 62 c 0,94,95
 933 81 933 81 929 131 c 1,0,1
542 347 m 0,96,97
 542 293 542 293 556 250 c 128,-1,98
 570 207 570 207 593.5 177 c 128,-1,99
 617 147 617 147 648 131.5 c 128,-1,100
 679 116 679 116 713 116 c 0,101,102
 758 116 758 116 807 142.5 c 128,-1,103
 856 169 856 169 901 223 c 0,104,105
 924 250 924 250 943 284 c 128,-1,106
 962 318 962 318 975.5 356.5 c 128,-1,107
 989 395 989 395 996.5 436.5 c 128,-1,108
 1004 478 1004 478 1004 519 c 0,109,110
 1004 573 1004 573 989.5 615.5 c 128,-1,111
 975 658 975 658 950 688 c 128,-1,112
 925 718 925 718 891.5 733.5 c 128,-1,113
 858 749 858 749 819 749 c 0,114,115
 768 749 768 749 723.5 723 c 128,-1,116
 679 697 679 697 636 638 c 0,117,118
 614 609 614 609 596.5 572.5 c 128,-1,119
 579 536 579 536 567 497.5 c 128,-1,120
 555 459 555 459 548.5 420 c 128,-1,121
 542 381 542 381 542 347 c 0,96,97
EndSplineSet
EndChar

StartChar: A
Encoding: 65 65 490
Width: 1093
Flags: W
LayerCount: 2
Fore
SplineSet
447 1173 m 1,0,-1
 614 1173 l 1,1,-1
 1094 0 l 1,2,-1
 919 0 l 1,3,-1
 782 355 l 1,4,-1
 292 355 l 1,5,-1
 162 0 l 1,6,-1
 -2 0 l 1,7,-1
 447 1173 l 1,0,-1
734 482 m 1,8,-1
 611 806 l 2,9,10
 583 881 583 881 562 941.5 c 128,-1,11
 541 1002 541 1002 527 1050 c 1,12,13
 516 993 516 993 501 937 c 128,-1,14
 486 881 486 881 466 826 c 2,15,-1
 336 482 l 1,16,-1
 734 482 l 1,8,-1
EndSplineSet
EndChar

StartChar: B
Encoding: 66 66 491
Width: 1093
Flags: W
LayerCount: 2
Fore
SplineSet
120 1173 m 1,0,-1
 560 1173 l 2,1,2
 694 1173 694 1173 775.5 1137 c 128,-1,3
 857 1101 857 1101 902 1027 c 0,4,5
 949 955 949 955 949 874 c 0,6,7
 949 799 949 799 908 732 c 128,-1,8
 867 665 867 665 785 624 c 1,9,10
 892 593 892 593 949 518.5 c 128,-1,11
 1006 444 1006 444 1006 341 c 0,12,13
 1006 299 1006 299 996.5 260 c 128,-1,14
 987 221 987 221 970.5 187 c 128,-1,15
 954 153 954 153 932 125 c 128,-1,16
 910 97 910 97 885 77 c 0,17,18
 834 39 834 39 757.5 19.5 c 128,-1,19
 681 0 681 0 567 0 c 2,20,-1
 120 0 l 1,21,-1
 120 1173 l 1,0,-1
530 680 m 2,22,23
 581 680 581 680 617.5 683.5 c 128,-1,24
 654 687 654 687 677 693 c 0,25,26
 736 712 736 712 766 753 c 128,-1,27
 796 794 796 794 796 854 c 0,28,29
 796 913 796 913 768.5 957 c 128,-1,30
 741 1001 741 1001 688 1018 c 0,31,32
 662 1026 662 1026 617.5 1030 c 128,-1,33
 573 1034 573 1034 510 1034 c 2,34,-1
 275 1034 l 1,35,-1
 275 680 l 1,36,-1
 530 680 l 2,22,23
567 138 m 2,37,38
 605 138 605 138 631 139 c 128,-1,39
 657 140 657 140 674 144 c 0,40,41
 711 151 711 151 742.5 165.5 c 128,-1,42
 774 180 774 180 797 204 c 128,-1,43
 820 228 820 228 833 262 c 128,-1,44
 846 296 846 296 846 341 c 0,45,46
 846 407 846 407 812 455 c 128,-1,47
 778 503 778 503 718 522 c 0,48,49
 688 533 688 533 645.5 537.5 c 128,-1,50
 603 542 603 542 546 542 c 2,51,-1
 275 542 l 1,52,-1
 275 138 l 1,53,-1
 567 138 l 2,37,38
EndSplineSet
EndChar

StartChar: C
Encoding: 67 67 492
Width: 1183
Flags: W
LayerCount: 2
Fore
SplineSet
1119 372 m 1,0,1
 1095 276 1095 276 1050 202.5 c 128,-1,2
 1005 129 1005 129 943 79.5 c 128,-1,3
 881 30 881 30 802.5 5 c 128,-1,4
 724 -20 724 -20 633 -20 c 0,5,6
 445 -20 445 -20 325 57 c 128,-1,7
 205 134 205 134 142 280 c 0,8,9
 82 427 82 427 82 594 c 1,10,11
 78 732 78 732 120 844 c 128,-1,12
 162 956 162 956 237.5 1034 c 128,-1,13
 313 1112 313 1112 415.5 1153.5 c 128,-1,14
 518 1195 518 1195 636 1193 c 0,15,16
 724 1193 724 1193 798.5 1170 c 128,-1,17
 873 1147 873 1147 932 1103.5 c 128,-1,18
 991 1060 991 1060 1033 996.5 c 128,-1,19
 1075 933 1075 933 1098 852 c 1,20,-1
 946 816 l 1,21,22
 904 944 904 944 827.5 1002 c 128,-1,23
 751 1060 751 1060 633 1060 c 0,24,25
 564 1060 564 1060 507 1043 c 128,-1,26
 450 1026 450 1026 405.5 995 c 128,-1,27
 361 964 361 964 328.5 919.5 c 128,-1,28
 296 875 296 875 277 821 c 256,29,30
 258 767 258 767 249.5 711 c 128,-1,31
 241 655 241 655 241 596 c 0,32,33
 241 444 241 444 284.5 333.5 c 128,-1,34
 328 223 328 223 421 167 c 0,35,36
 512 113 512 113 619 113 c 0,37,38
 751 113 751 113 840.5 187.5 c 128,-1,39
 930 262 930 262 963 411 c 1,40,-1
 1119 372 l 1,0,1
EndSplineSet
EndChar

StartChar: D
Encoding: 68 68 493
Width: 1183
Flags: W
LayerCount: 2
Fore
SplineSet
126 1173 m 1,0,-1
 531 1173 l 2,1,2
 599 1173 599 1173 651 1169 c 128,-1,3
 703 1165 703 1165 739 1157 c 0,4,5
 790 1144 790 1144 832.5 1123.5 c 128,-1,6
 875 1103 875 1103 911 1071 c 0,7,8
 1005 992 1005 992 1050.5 871.5 c 128,-1,9
 1096 751 1096 751 1096 593 c 0,10,11
 1096 490 1096 490 1078 408 c 128,-1,12
 1060 326 1060 326 1029.5 262 c 128,-1,13
 999 198 999 198 959.5 152.5 c 128,-1,14
 920 107 920 107 877 78 c 0,15,16
 760 0 760 0 549 0 c 2,17,-1
 126 0 l 1,18,-1
 126 1173 l 1,0,-1
533 138 m 2,19,20
 591 138 591 138 635.5 143.5 c 128,-1,21
 680 149 680 149 714 160 c 128,-1,22
 748 171 748 171 773.5 186 c 128,-1,23
 799 201 799 201 819 221 c 0,24,25
 875 276 875 276 905 368.5 c 128,-1,26
 935 461 935 461 935 594 c 0,27,28
 935 687 935 687 919.5 757.5 c 128,-1,29
 904 828 904 828 876 878.5 c 128,-1,30
 848 929 848 929 810.5 961.5 c 128,-1,31
 773 994 773 994 729 1011 c 0,32,33
 666 1034 666 1034 527 1034 c 2,34,-1
 282 1034 l 1,35,-1
 282 138 l 1,36,-1
 533 138 l 2,19,20
EndSplineSet
EndChar

StartChar: E
Encoding: 69 69 494
Width: 1093
Flags: W
LayerCount: 2
Fore
SplineSet
130 1173 m 1,0,-1
 978 1173 l 1,1,-1
 978 1034 l 1,2,-1
 285 1034 l 1,3,-1
 285 675 l 1,4,-1
 934 675 l 1,5,-1
 934 538 l 1,6,-1
 285 538 l 1,7,-1
 285 138 l 1,8,-1
 1004 138 l 1,9,-1
 1004 0 l 1,10,-1
 130 0 l 1,11,-1
 130 1173 l 1,0,-1
EndSplineSet
EndChar

StartChar: F
Encoding: 70 70 495
Width: 1001
Flags: W
LayerCount: 2
Fore
SplineSet
134 1173 m 1,0,-1
 926 1173 l 1,1,-1
 926 1034 l 1,2,-1
 290 1034 l 1,3,-1
 290 672 l 1,4,-1
 841 672 l 1,5,-1
 841 533 l 1,6,-1
 290 533 l 1,7,-1
 290 0 l 1,8,-1
 134 0 l 1,9,-1
 134 1173 l 1,0,-1
EndSplineSet
EndChar

StartChar: G
Encoding: 71 71 496
Width: 1274
Flags: W
LayerCount: 2
Fore
SplineSet
675 598 m 1,0,-1
 1171 598 l 1,1,-1
 1171 164 l 1,2,3
 1058 71 1058 71 936.5 25.5 c 128,-1,4
 815 -20 815 -20 686 -20 c 0,5,6
 599 -20 599 -20 519.5 -1 c 128,-1,7
 440 18 440 18 372 54.5 c 128,-1,8
 304 91 304 91 249.5 144.5 c 128,-1,9
 195 198 195 198 159 267 c 0,10,11
 87 408 87 408 87 580 c 256,12,13
 87 752 87 752 159 899 c 0,14,15
 229 1049 229 1049 366 1121 c 0,16,17
 433 1156 433 1156 510 1174.5 c 128,-1,18
 587 1193 587 1193 675 1193 c 0,19,20
 738 1193 738 1193 796 1182.5 c 128,-1,21
 854 1172 854 1172 904.5 1152 c 128,-1,22
 955 1132 955 1132 995.5 1103 c 128,-1,23
 1036 1074 1036 1074 1065 1037 c 0,24,25
 1123 964 1123 964 1155 846 c 1,26,-1
 1014 806 l 1,27,28
 1001 851 1001 851 985.5 885.5 c 128,-1,29
 970 920 970 920 949 947 c 128,-1,30
 928 974 928 974 900 994 c 128,-1,31
 872 1014 872 1014 835 1029 c 0,32,33
 766 1060 766 1060 675 1060 c 0,34,35
 594 1060 594 1060 531 1041 c 128,-1,36
 468 1022 468 1022 421 989.5 c 128,-1,37
 374 957 374 957 342.5 914.5 c 128,-1,38
 311 872 311 872 292 826 c 0,39,40
 247 718 247 718 247 590 c 0,41,42
 247 433 247 433 301 328.5 c 128,-1,43
 355 224 355 224 458 170 c 0,44,45
 510 144 510 144 565.5 132 c 128,-1,46
 621 120 621 120 678 120 c 0,47,48
 778 120 778 120 874 159 c 0,49,50
 922 179 922 179 958.5 199.5 c 128,-1,51
 995 220 995 220 1021 241 c 1,52,-1
 1021 460 l 1,53,-1
 675 460 l 1,54,-1
 675 598 l 1,0,-1
EndSplineSet
EndChar

StartChar: H
Encoding: 72 72 497
Width: 1183
Flags: W
LayerCount: 2
Fore
SplineSet
131 1173 m 1,0,-1
 286 1173 l 1,1,-1
 286 691 l 1,2,-1
 896 691 l 1,3,-1
 896 1173 l 1,4,-1
 1052 1173 l 1,5,-1
 1052 0 l 1,6,-1
 896 0 l 1,7,-1
 896 552 l 1,8,-1
 286 552 l 1,9,-1
 286 0 l 1,10,-1
 131 0 l 1,11,-1
 131 1173 l 1,0,-1
EndSplineSet
EndChar

StartChar: I
Encoding: 73 73 498
Width: 455
Flags: W
LayerCount: 2
Fore
SplineSet
152 1173 m 1,0,-1
 308 1173 l 1,1,-1
 308 0 l 1,2,-1
 152 0 l 1,3,-1
 152 1173 l 1,0,-1
EndSplineSet
EndChar

StartChar: J
Encoding: 74 74 499
Width: 819
Flags: W
LayerCount: 2
Fore
SplineSet
186 352 m 1,0,1
 189 285 189 285 202 240 c 128,-1,2
 215 195 215 195 237 168 c 128,-1,3
 259 141 259 141 290.5 129.5 c 128,-1,4
 322 118 322 118 362 118 c 0,5,6
 420 118 420 118 462.5 145.5 c 128,-1,7
 505 173 505 173 521 218 c 0,8,9
 538 262 538 262 538 366 c 2,10,-1
 538 1173 l 1,11,-1
 691 1173 l 1,12,-1
 691 374 l 2,13,14
 691 300 691 300 682.5 244 c 128,-1,15
 674 188 674 188 656 146 c 128,-1,16
 638 104 638 104 610.5 74 c 128,-1,17
 583 44 583 44 544 23 c 0,18,19
 466 -20 466 -20 362 -20 c 0,20,21
 209 -20 209 -20 126 68.5 c 128,-1,22
 43 157 43 157 47 333 c 1,23,-1
 186 352 l 1,0,1
EndSplineSet
EndChar

StartChar: K
Encoding: 75 75 500
Width: 1093
Flags: W
LayerCount: 2
Fore
SplineSet
120 1173 m 1,0,-1
 275 1173 l 1,1,-1
 275 591 l 1,2,-1
 857 1173 l 1,3,-1
 1068 1173 l 1,4,-1
 577 698 l 1,5,-1
 1090 0 l 1,6,-1
 885 0 l 1,7,-1
 467 593 l 1,8,-1
 275 406 l 1,9,-1
 275 0 l 1,10,-1
 120 0 l 1,11,-1
 120 1173 l 1,0,-1
EndSplineSet
EndChar

StartChar: L
Encoding: 76 76 501
Width: 911
Flags: W
LayerCount: 2
Fore
SplineSet
120 1173 m 1,0,-1
 275 1173 l 1,1,-1
 275 138 l 1,2,-1
 854 138 l 1,3,-1
 854 0 l 1,4,-1
 120 0 l 1,5,-1
 120 1173 l 1,0,-1
EndSplineSet
EndChar

StartChar: M
Encoding: 77 77 502
Width: 1365
Flags: W
LayerCount: 2
Fore
SplineSet
122 1173 m 1,0,-1
 355 1173 l 1,1,-1
 633 342 l 2,2,3
 652 285 652 285 666 241 c 128,-1,4
 680 197 680 197 688 169 c 1,5,-1
 750 357 l 1,6,-1
 1032 1173 l 1,7,-1
 1240 1173 l 1,8,-1
 1240 0 l 1,9,-1
 1091 0 l 1,10,-1
 1091 982 l 1,11,-1
 750 0 l 1,12,-1
 611 0 l 1,13,-1
 272 998 l 1,14,-1
 272 0 l 1,15,-1
 122 0 l 1,16,-1
 122 1173 l 1,0,-1
EndSplineSet
EndChar

StartChar: N
Encoding: 78 78 503
Width: 1183
Flags: W
LayerCount: 2
Fore
SplineSet
125 1173 m 1,0,-1
 283 1173 l 1,1,-1
 899 252 l 1,2,-1
 899 1173 l 1,3,-1
 1049 1173 l 1,4,-1
 1049 0 l 1,5,-1
 890 0 l 1,6,-1
 274 922 l 1,7,-1
 274 0 l 1,8,-1
 125 0 l 1,9,-1
 125 1173 l 1,0,-1
EndSplineSet
EndChar

StartChar: O
Encoding: 79 79 504
Width: 1274
Flags: W
LayerCount: 2
Fore
SplineSet
78 572 m 0,0,1
 78 863 78 863 236 1029 c 0,2,3
 315 1111 315 1111 415.5 1152.5 c 128,-1,4
 516 1194 516 1194 641 1194 c 0,5,6
 763 1196 763 1196 867 1150 c 128,-1,7
 971 1104 971 1104 1046 1022 c 128,-1,8
 1121 940 1121 940 1162.5 828 c 128,-1,9
 1204 716 1204 716 1201 585 c 0,10,11
 1201 496 1201 496 1182.5 415 c 128,-1,12
 1164 334 1164 334 1129 265.5 c 128,-1,13
 1094 197 1094 197 1042 143 c 128,-1,14
 990 89 990 89 924 53 c 0,15,16
 793 -20 793 -20 641 -20 c 0,17,18
 558 -20 558 -20 483 0.5 c 128,-1,19
 408 21 408 21 344 59.5 c 128,-1,20
 280 98 280 98 230 153 c 128,-1,21
 180 208 180 208 146 277 c 0,22,23
 113 347 113 347 95.5 420.5 c 128,-1,24
 78 494 78 494 78 572 c 0,0,1
239 569 m 0,25,26
 239 358 239 358 352 234 c 0,27,28
 411 174 411 174 481.5 143.5 c 128,-1,29
 552 113 552 113 639 113 c 0,30,31
 814 113 814 113 927 236 c 0,32,33
 1040 360 1040 360 1040 585 c 0,34,35
 1043 693 1043 693 1014 781 c 128,-1,36
 985 869 985 869 931.5 931 c 128,-1,37
 878 993 878 993 803.5 1027 c 128,-1,38
 729 1061 729 1061 642 1060 c 0,39,40
 479 1060 479 1060 357 947 c 0,41,42
 239 835 239 835 239 569 c 0,25,26
EndSplineSet
EndChar

StartChar: P
Encoding: 80 80 505
Width: 1093
Flags: W
LayerCount: 2
Fore
SplineSet
126 1173 m 1,0,-1
 569 1173 l 2,1,2
 627 1173 627 1173 671.5 1170.5 c 128,-1,3
 716 1168 716 1168 747 1162 c 0,4,5
 810 1154 810 1154 860 1127 c 128,-1,6
 910 1100 910 1100 945.5 1057 c 128,-1,7
 981 1014 981 1014 1000.5 957.5 c 128,-1,8
 1020 901 1020 901 1022 834 c 0,9,10
 1022 683 1022 683 926 580 c 256,11,12
 830 477 830 477 582 477 c 2,13,-1
 282 477 l 1,14,-1
 282 0 l 1,15,-1
 126 0 l 1,16,-1
 126 1173 l 1,0,-1
585 614 m 2,17,18
 660 614 660 614 713 628.5 c 128,-1,19
 766 643 766 643 799 670.5 c 128,-1,20
 832 698 832 698 847 738 c 128,-1,21
 862 778 862 778 862 829 c 0,22,23
 862 903 862 903 824 955 c 128,-1,24
 786 1007 786 1007 726 1024 c 0,25,26
 706 1029 706 1029 670.5 1031.5 c 128,-1,27
 635 1034 635 1034 582 1034 c 2,28,-1
 282 1034 l 1,29,-1
 282 614 l 1,30,-1
 585 614 l 2,17,18
EndSplineSet
EndChar

StartChar: Q
Encoding: 81 81 506
Width: 1274
Flags: W
LayerCount: 2
Fore
SplineSet
1016 126 m 1,0,1
 1070 88 1070 88 1119.5 60.5 c 128,-1,2
 1169 33 1169 33 1214 16 c 1,3,-1
 1168 -92 l 1,4,5
 1105 -69 1105 -69 1043 -33 c 128,-1,6
 981 3 981 3 918 53 c 1,7,8
 784 -20 784 -20 629 -20 c 0,9,10
 509 -22 509 -22 405.5 23.5 c 128,-1,11
 302 69 302 69 226.5 150.5 c 128,-1,12
 151 232 151 232 109 343.5 c 128,-1,13
 67 455 67 455 70 586 c 0,14,15
 70 673 70 673 88 753.5 c 128,-1,16
 106 834 106 834 141 903 c 128,-1,17
 176 972 176 972 226 1027 c 128,-1,18
 276 1082 276 1082 341 1119 c 0,19,20
 407 1157 407 1157 479.5 1175.5 c 128,-1,21
 552 1194 552 1194 633 1194 c 0,22,23
 714 1195 714 1195 788 1175 c 128,-1,24
 862 1155 862 1155 924.5 1116.5 c 128,-1,25
 987 1078 987 1078 1037.5 1023 c 128,-1,26
 1088 968 1088 968 1123.5 900 c 128,-1,27
 1159 832 1159 832 1177 752.5 c 128,-1,28
 1195 673 1195 673 1193 586 c 0,29,30
 1193 442 1193 442 1149 326.5 c 128,-1,31
 1105 211 1105 211 1016 126 c 1,0,1
674 325 m 1,32,33
 741 306 741 306 796.5 277.5 c 128,-1,34
 852 249 852 249 894 211 c 1,35,36
 1032 337 1032 337 1032 586 c 0,37,38
 1034 692 1034 692 1005 780 c 128,-1,39
 976 868 976 868 923 930.5 c 128,-1,40
 870 993 870 993 795.5 1027 c 128,-1,41
 721 1061 721 1061 633 1060 c 0,42,43
 459 1060 459 1060 344 941 c 0,44,45
 231 822 231 822 231 586 c 0,46,47
 231 358 231 358 344 234 c 0,48,49
 457 113 457 113 633 113 c 0,50,51
 718 113 718 113 790 144 c 1,52,53
 716 192 716 192 636 211 c 1,54,-1
 674 325 l 1,32,33
EndSplineSet
EndChar

StartChar: R
Encoding: 82 82 507
Width: 1183
Flags: W
LayerCount: 2
Fore
SplineSet
130 1173 m 1,0,-1
 649 1173 l 2,1,2
 805 1173 805 1173 886 1140 c 0,3,4
 970 1108 970 1108 1018 1029 c 0,5,6
 1066 951 1066 951 1066 854 c 0,7,8
 1066 727 1066 727 985 642.5 c 128,-1,9
 904 558 904 558 736 534 c 1,10,11
 796 505 796 505 829 475 c 0,12,13
 898 413 898 413 958 319 c 2,14,-1
 1162 0 l 1,15,-1
 966 0 l 1,16,-1
 813 244 l 2,17,18
 760 324 760 324 723 373.5 c 128,-1,19
 686 423 686 423 657 452.5 c 128,-1,20
 628 482 628 482 603 495 c 128,-1,21
 578 508 578 508 550 514 c 0,22,23
 526 521 526 521 464 521 c 2,24,-1
 283 521 l 1,25,-1
 283 0 l 1,26,-1
 130 0 l 1,27,-1
 130 1173 l 1,0,-1
618 655 m 2,28,29
 696 653 696 653 750 667 c 128,-1,30
 804 681 804 681 837.5 707.5 c 128,-1,31
 871 734 871 734 887 771.5 c 128,-1,32
 903 809 903 809 906 854 c 0,33,34
 906 895 906 895 891 929.5 c 128,-1,35
 876 964 876 964 845 989.5 c 128,-1,36
 814 1015 814 1015 766.5 1029.5 c 128,-1,37
 719 1044 719 1044 655 1044 c 2,38,-1
 283 1044 l 1,39,-1
 283 655 l 1,40,-1
 618 655 l 2,28,29
EndSplineSet
EndChar

StartChar: S
Encoding: 83 83 508
Width: 1093
Flags: W
LayerCount: 2
Fore
SplineSet
219 390 m 1,0,1
 230 301 230 301 268 244.5 c 128,-1,2
 306 188 306 188 386 154 c 0,3,4
 467 120 467 120 567 120 c 0,5,6
 634 118 634 118 688.5 134 c 128,-1,7
 743 150 743 150 781 177 c 128,-1,8
 819 204 819 204 839 240.5 c 128,-1,9
 859 277 859 277 857 318 c 0,10,11
 857 373 857 373 825.5 414 c 128,-1,12
 794 455 794 455 719 483 c 0,13,14
 674 503 674 503 511 541 c 0,15,16
 348 580 348 580 285 614 c 0,17,18
 118 704 118 704 118 870 c 0,19,20
 115 937 115 937 145.5 997.5 c 128,-1,21
 176 1058 176 1058 232 1102 c 128,-1,22
 288 1146 288 1146 364.5 1171 c 128,-1,23
 441 1196 441 1196 531 1193 c 0,24,25
 630 1193 630 1193 710.5 1168 c 128,-1,26
 791 1143 791 1143 848 1097.5 c 128,-1,27
 905 1052 905 1052 937 987 c 128,-1,28
 969 922 969 922 971 842 c 1,29,-1
 822 830 l 1,30,31
 811 943 811 943 743 1000 c 128,-1,32
 675 1057 675 1057 538 1057 c 0,33,34
 467 1057 467 1057 416 1043 c 128,-1,35
 365 1029 365 1029 332.5 1005 c 128,-1,36
 300 981 300 981 284.5 949 c 128,-1,37
 269 917 269 917 269 880 c 0,38,39
 269 818 269 818 313 777 c 0,40,41
 359 736 359 736 547 691 c 0,42,43
 737 649 737 649 808 618 c 0,44,45
 911 570 911 570 959.5 498 c 128,-1,46
 1008 426 1008 426 1008 331 c 0,47,48
 1010 260 1010 260 978 195.5 c 128,-1,49
 946 131 946 131 887.5 82.5 c 128,-1,50
 829 34 829 34 748.5 6 c 128,-1,51
 668 -22 668 -22 574 -20 c 1,52,53
 457 -23 457 -23 365.5 5 c 128,-1,54
 274 33 274 33 210 85.5 c 128,-1,55
 146 138 146 138 111.5 212.5 c 128,-1,56
 77 287 77 287 74 377 c 1,57,-1
 219 390 l 1,0,1
EndSplineSet
EndChar

StartChar: T
Encoding: 84 84 509
Width: 1001
Flags: W
LayerCount: 2
Fore
SplineSet
424 1034 m 1,0,-1
 38 1034 l 1,1,-1
 38 1173 l 1,2,-1
 968 1173 l 1,3,-1
 968 1034 l 1,4,-1
 580 1034 l 1,5,-1
 580 0 l 1,6,-1
 424 0 l 1,7,-1
 424 1034 l 1,0,-1
EndSplineSet
EndChar

StartChar: U
Encoding: 85 85 510
Width: 1183
Flags: W
LayerCount: 2
Fore
SplineSet
1052 1173 m 1,0,-1
 1052 494 l 2,1,2
 1052 319 1052 319 1011 213 c 0,3,4
 973 112 973 112 866 44 c 0,5,6
 813 12 813 12 745.5 -4 c 128,-1,7
 678 -20 678 -20 593 -20 c 0,8,9
 426 -20 426 -20 322.5 36.5 c 128,-1,10
 219 93 219 93 174 200 c 0,11,12
 130 306 130 306 130 494 c 2,13,-1
 130 1173 l 1,14,-1
 283 1173 l 1,15,-1
 283 497 l 2,16,17
 283 419 283 419 290.5 362.5 c 128,-1,18
 298 306 298 306 311 270 c 0,19,20
 342 198 342 198 410 159 c 0,21,22
 477 120 477 120 580 120 c 0,23,24
 751 120 751 120 822 197 c 0,25,26
 896 274 896 274 896 497 c 2,27,-1
 896 1173 l 1,28,-1
 1052 1173 l 1,0,-1
EndSplineSet
EndChar

StartChar: V
Encoding: 86 86 511
Width: 1093
Flags: W
LayerCount: 2
Fore
SplineSet
6 1173 m 1,0,-1
 175 1173 l 1,1,-1
 480 321 l 2,2,3
 499 269 499 269 513.5 222 c 128,-1,4
 528 175 528 175 542 130 c 1,5,6
 556 178 556 178 571 225.5 c 128,-1,7
 586 273 586 273 605 321 c 2,8,-1
 922 1173 l 1,9,-1
 1080 1173 l 1,10,-1
 621 0 l 1,11,-1
 462 0 l 1,12,-1
 6 1173 l 1,0,-1
EndSplineSet
EndChar

StartChar: W
Encoding: 87 87 512
Width: 1546
Flags: W
LayerCount: 2
Fore
SplineSet
20 1173 m 1,0,-1
 178 1173 l 1,1,-1
 357 405 l 2,2,3
 372 345 372 345 384.5 284.5 c 128,-1,4
 397 224 397 224 408 164 c 1,5,6
 431 259 431 259 443.5 312.5 c 128,-1,7
 456 366 456 366 460 380 c 2,8,-1
 683 1173 l 1,9,-1
 870 1173 l 1,10,-1
 1038 580 l 2,11,12
 1070 469 1070 469 1092.5 365.5 c 128,-1,13
 1115 262 1115 262 1129 164 c 1,14,15
 1140 220 1140 220 1154.5 283 c 128,-1,16
 1169 346 1169 346 1188 419 c 2,17,-1
 1371 1173 l 1,18,-1
 1529 1173 l 1,19,-1
 1206 0 l 1,20,-1
 1057 0 l 1,21,-1
 810 893 l 2,22,23
 793 950 793 950 784.5 984 c 128,-1,24
 776 1018 776 1018 774 1030 c 1,25,-1
 739 893 l 1,26,-1
 490 0 l 1,27,-1
 331 0 l 1,28,-1
 20 1173 l 1,0,-1
EndSplineSet
EndChar

StartChar: X
Encoding: 88 88 513
Width: 1093
Flags: W
LayerCount: 2
Fore
SplineSet
460 611 m 1,0,-1
 61 1173 l 1,1,-1
 246 1173 l 1,2,-1
 458 872 l 2,3,4
 525 780 525 780 552 727 c 1,5,6
 572 759 572 759 595.5 792.5 c 128,-1,7
 619 826 619 826 646 862 c 2,8,-1
 882 1173 l 1,9,-1
 1050 1173 l 1,10,-1
 639 619 l 1,11,-1
 1083 0 l 1,12,-1
 890 0 l 1,13,-1
 594 418 l 1,14,-1
 544 497 l 1,15,16
 524 465 524 465 510.5 443 c 128,-1,17
 497 421 497 421 488 410 c 2,18,-1
 194 0 l 1,19,-1
 6 0 l 1,20,-1
 460 611 l 1,0,-1
EndSplineSet
EndChar

StartChar: Y
Encoding: 89 89 514
Width: 1093
Flags: W
LayerCount: 2
Fore
SplineSet
457 497 m 1,0,-1
 5 1173 l 1,1,-1
 194 1173 l 1,2,-1
 424 819 l 2,3,4
 456 768 456 768 485.5 719 c 128,-1,5
 515 670 515 670 544 621 c 1,6,7
 570 667 570 667 602 718 c 128,-1,8
 634 769 634 769 672 827 c 2,9,-1
 899 1173 l 1,10,-1
 1080 1173 l 1,11,-1
 613 497 l 1,12,-1
 613 0 l 1,13,-1
 457 0 l 1,14,-1
 457 497 l 1,0,-1
EndSplineSet
EndChar

StartChar: Z
Encoding: 90 90 515
Width: 1001
Flags: W
LayerCount: 2
Fore
SplineSet
33 144 m 1,0,-1
 634 894 l 2,1,2
 666 936 666 936 696.5 970 c 128,-1,3
 727 1004 727 1004 755 1034 c 1,4,-1
 102 1034 l 1,5,-1
 102 1173 l 1,6,-1
 941 1173 l 1,7,-1
 941 1034 l 1,8,-1
 282 221 l 1,9,-1
 211 138 l 1,10,-1
 960 138 l 1,11,-1
 960 0 l 1,12,-1
 33 0 l 1,13,-1
 33 144 l 1,0,-1
EndSplineSet
EndChar

StartChar: a
Encoding: 97 97 516
Width: 911
Flags: W
LayerCount: 2
Fore
SplineSet
662 105 m 1,0,1
 622 70 622 70 584 46.5 c 128,-1,2
 546 23 546 23 508 8 c 128,-1,3
 470 -7 470 -7 430.5 -13.5 c 128,-1,4
 391 -20 391 -20 349 -20 c 0,5,6
 280 -20 280 -20 226 -2 c 128,-1,7
 172 16 172 16 135 48.5 c 128,-1,8
 98 81 98 81 78.5 126 c 128,-1,9
 59 171 59 171 59 225 c 0,10,11
 59 274 59 274 75.5 313.5 c 128,-1,12
 92 353 92 353 120.5 384 c 128,-1,13
 149 415 149 415 186.5 436 c 128,-1,14
 224 457 224 457 266 469 c 0,15,16
 287 474 287 474 318.5 479 c 128,-1,17
 350 484 350 484 394 490 c 0,18,19
 482 501 482 501 545.5 513 c 128,-1,20
 609 525 609 525 650 539 c 1,21,-1
 650 577 l 2,22,23
 650 666 650 666 611 702 c 0,24,25
 555 750 555 750 446 750 c 0,26,27
 395 750 395 750 358.5 741.5 c 128,-1,28
 322 733 322 733 296 714 c 128,-1,29
 270 695 270 695 253 664 c 128,-1,30
 236 633 236 633 225 588 c 1,31,-1
 83 608 l 1,32,33
 112 739 112 739 203.5 803.5 c 128,-1,34
 295 868 295 868 467 868 c 0,35,36
 551 868 551 868 608.5 854.5 c 128,-1,37
 666 841 666 841 703 816 c 128,-1,38
 740 791 740 791 760 757 c 128,-1,39
 780 723 780 723 788 682 c 0,40,41
 796 642 796 642 796 547 c 2,42,-1
 796 355 l 2,43,44
 796 156 796 156 805 102 c 0,45,46
 814 52 814 52 842 0 c 1,47,-1
 691 0 l 1,48,49
 680 23 680 23 673 48.5 c 128,-1,50
 666 74 666 74 662 105 c 1,0,1
650 426 m 1,51,52
 611 410 611 410 552 396.5 c 128,-1,53
 493 383 493 383 414 372 c 0,54,55
 370 365 370 365 340 358.5 c 128,-1,56
 310 352 310 352 289.5 343.5 c 128,-1,57
 269 335 269 335 256 323.5 c 128,-1,58
 243 312 243 312 233 297 c 0,59,60
 213 266 213 266 213 228 c 0,61,62
 213 169 213 169 256 131.5 c 128,-1,63
 299 94 299 94 383 94 c 256,64,65
 467 94 467 94 531.5 130.5 c 128,-1,66
 596 167 596 167 627 230 c 0,67,68
 650 279 650 279 650 374 c 2,69,-1
 650 426 l 1,51,52
EndSplineSet
EndChar

StartChar: b
Encoding: 98 98 517
Width: 911
Flags: W
LayerCount: 2
Fore
SplineSet
106 0 m 1,0,-1
 106 1173 l 1,1,-1
 250 1173 l 1,2,-1
 250 754 l 1,3,4
 341 868 341 868 483 868 c 0,5,6
 566 869 566 869 633 837.5 c 128,-1,7
 700 806 700 806 747.5 748.5 c 128,-1,8
 795 691 795 691 820 611.5 c 128,-1,9
 845 532 845 532 844 438 c 0,10,11
 844 220 844 220 736 100 c 0,12,13
 626 -20 626 -20 477 -20 c 256,14,15
 328 -20 328 -20 241 106 c 1,16,-1
 241 0 l 1,17,-1
 106 0 l 1,0,-1
239 431 m 0,18,19
 239 355 239 355 249 299.5 c 128,-1,20
 259 244 259 244 280 210 c 0,21,22
 348 100 348 100 466 100 c 0,23,24
 512 100 512 100 554 120.5 c 128,-1,25
 596 141 596 141 627.5 182 c 128,-1,26
 659 223 659 223 677.5 284 c 128,-1,27
 696 345 696 345 696 426 c 0,28,29
 696 509 696 509 678.5 570 c 128,-1,30
 661 631 661 631 630.5 671 c 128,-1,31
 600 711 600 711 559 730.5 c 128,-1,32
 518 750 518 750 472 750 c 0,33,34
 378 750 378 750 308 669 c 0,35,36
 239 586 239 586 239 431 c 0,18,19
EndSplineSet
EndChar

StartChar: c
Encoding: 99 99 518
Width: 819
Flags: W
LayerCount: 2
Fore
SplineSet
805 294 m 1,0,1
 793 220 793 220 762.5 162 c 128,-1,2
 732 104 732 104 685.5 63.5 c 128,-1,3
 639 23 639 23 579.5 1.5 c 128,-1,4
 520 -20 520 -20 450 -20 c 0,5,6
 362 -20 362 -20 291 9 c 128,-1,7
 220 38 220 38 169.5 94.5 c 128,-1,8
 119 151 119 151 91.5 233 c 128,-1,9
 64 315 64 315 64 421 c 1,10,11
 60 525 60 525 88.5 609 c 128,-1,12
 117 693 117 693 169.5 751 c 128,-1,13
 222 809 222 809 294 839.5 c 128,-1,14
 366 870 366 870 450 868 c 0,15,16
 590 868 590 868 677.5 799 c 128,-1,17
 765 730 765 730 790 600 c 1,18,-1
 650 578 l 1,19,20
 630 663 630 663 580 706.5 c 128,-1,21
 530 750 530 750 457 750 c 0,22,23
 402 750 402 750 357 731 c 128,-1,24
 312 712 312 712 279.5 672 c 128,-1,25
 247 632 247 632 229 571 c 128,-1,26
 211 510 211 510 211 426 c 0,27,28
 211 340 211 340 228 278.5 c 128,-1,29
 245 217 245 217 276.5 177 c 128,-1,30
 308 137 308 137 351.5 118.5 c 128,-1,31
 395 100 395 100 449 100 c 0,32,33
 534 100 534 100 590.5 151 c 128,-1,34
 647 202 647 202 662 311 c 1,35,-1
 805 294 l 1,0,1
EndSplineSet
EndChar

StartChar: d
Encoding: 100 100 519
Width: 911
Flags: W
LayerCount: 2
Fore
SplineSet
658 106 m 1,0,1
 578 -20 578 -20 421 -20 c 0,2,3
 344 -21 344 -21 276.5 12 c 128,-1,4
 209 45 209 45 159 104 c 128,-1,5
 109 163 109 163 81 244.5 c 128,-1,6
 53 326 53 326 56 424 c 1,7,8
 53 520 53 520 79 602.5 c 128,-1,9
 105 685 105 685 153 745 c 128,-1,10
 201 805 201 805 267.5 838 c 128,-1,11
 334 871 334 871 414 868 c 0,12,13
 492 868 492 868 553 836.5 c 128,-1,14
 614 805 614 805 649 752 c 1,15,-1
 649 1173 l 1,16,-1
 793 1173 l 1,17,-1
 793 0 l 1,18,-1
 658 0 l 1,19,-1
 658 106 l 1,0,1
205 424 m 0,20,21
 205 342 205 342 223.5 281.5 c 128,-1,22
 242 221 242 221 273.5 180.5 c 128,-1,23
 305 140 305 140 347 120 c 128,-1,24
 389 100 389 100 436 100 c 0,25,26
 482 100 482 100 523.5 119 c 128,-1,27
 565 138 565 138 595.5 177 c 128,-1,28
 626 216 626 216 644 274.5 c 128,-1,29
 662 333 662 333 662 411 c 0,30,31
 662 499 662 499 644 563 c 128,-1,32
 626 627 626 627 594.5 668.5 c 128,-1,33
 563 710 563 710 521 730 c 128,-1,34
 479 750 479 750 430 750 c 256,35,36
 381 750 381 750 340 730.5 c 128,-1,37
 299 711 299 711 269 671 c 128,-1,38
 239 631 239 631 222 569.5 c 128,-1,39
 205 508 205 508 205 424 c 0,20,21
EndSplineSet
EndChar

StartChar: e
Encoding: 101 101 520
Width: 911
Flags: W
LayerCount: 2
Fore
SplineSet
839 255 m 1,0,1
 803 123 803 123 708.5 51.5 c 128,-1,2
 614 -20 614 -20 466 -20 c 0,3,4
 372 -20 372 -20 297 9.5 c 128,-1,5
 222 39 222 39 169.5 95 c 128,-1,6
 117 151 117 151 89 232.5 c 128,-1,7
 61 314 61 314 61 418 c 0,8,9
 61 525 61 525 88 608 c 128,-1,10
 115 691 115 691 170 750 c 0,11,12
 281 868 281 868 457 868 c 0,13,14
 626 868 626 868 736 752 c 0,15,16
 844 636 844 636 844 426 c 0,17,18
 844 420 844 420 844 410.5 c 128,-1,19
 844 401 844 401 842 388 c 1,20,-1
 208 388 l 1,21,22
 212 317 212 317 232.5 263.5 c 128,-1,23
 253 210 253 210 287 173.5 c 128,-1,24
 321 137 321 137 366.5 118.5 c 128,-1,25
 412 100 412 100 466 100 c 0,26,27
 545 100 545 100 601 140.5 c 128,-1,28
 657 181 657 181 690 274 c 1,29,-1
 839 255 l 1,0,1
691 506 m 1,30,31
 682 616 682 616 638 667 c 0,32,33
 603 709 603 709 559 729.5 c 128,-1,34
 515 750 515 750 458 750 c 0,35,36
 408 750 408 750 366 733 c 128,-1,37
 324 716 324 716 292 684 c 128,-1,38
 260 652 260 652 240 607 c 128,-1,39
 220 562 220 562 216 506 c 1,40,-1
 691 506 l 1,30,31
EndSplineSet
EndChar

StartChar: f
Encoding: 102 102 521
Width: 455
Flags: W
LayerCount: 2
Fore
SplineSet
142 738 m 1,0,-1
 14 738 l 1,1,-1
 14 850 l 1,2,-1
 142 850 l 1,3,-1
 142 941 l 2,4,5
 142 1025 142 1025 158 1066 c 0,6,7
 178 1125 178 1125 230.5 1159 c 128,-1,8
 283 1193 283 1193 377 1193 c 0,9,10
 439 1193 439 1193 513 1178 c 1,11,-1
 490 1054 l 1,12,13
 445 1060 445 1060 406 1060 c 0,14,15
 373 1060 373 1060 350 1053.5 c 128,-1,16
 327 1047 327 1047 312.5 1032 c 128,-1,17
 298 1017 298 1017 291.5 991.5 c 128,-1,18
 285 966 285 966 285 927 c 2,19,-1
 285 850 l 1,20,-1
 450 850 l 1,21,-1
 450 738 l 1,22,-1
 285 738 l 1,23,-1
 285 0 l 1,24,-1
 142 0 l 1,25,-1
 142 738 l 1,0,-1
EndSplineSet
EndChar

StartChar: g
Encoding: 103 103 522
Width: 911
Flags: W
LayerCount: 2
Fore
SplineSet
221 -92 m 1,0,1
 232 -157 232 -157 270 -185 c 0,2,3
 323 -226 323 -226 416 -226 c 0,4,5
 516 -226 516 -226 571 -186 c 128,-1,6
 626 -146 626 -146 646 -74 c 0,7,8
 655 -29 655 -29 655 111 c 1,9,10
 558 0 558 0 419 0 c 0,11,12
 243 0 243 0 147 126 c 0,13,14
 99 189 99 189 76 264.5 c 128,-1,15
 53 340 53 340 53 430 c 0,16,17
 51 521 51 521 77 602.5 c 128,-1,18
 103 684 103 684 151 744 c 128,-1,19
 199 804 199 804 267.5 837.5 c 128,-1,20
 336 871 336 871 421 868 c 0,21,22
 572 868 572 868 669 747 c 1,23,-1
 669 850 l 1,24,-1
 801 850 l 1,25,-1
 801 114 l 2,26,27
 801 -85 801 -85 760 -166 c 0,28,29
 720 -250 720 -250 633 -297 c 0,30,31
 545 -344 545 -344 418 -344 c 0,32,33
 341 -344 341 -344 278.5 -327 c 128,-1,34
 216 -310 216 -310 171.5 -276 c 128,-1,35
 127 -242 127 -242 103.5 -190.5 c 128,-1,36
 80 -139 80 -139 82 -70 c 1,37,-1
 221 -92 l 1,0,1
202 441 m 0,38,39
 202 357 202 357 219.5 296.5 c 128,-1,40
 237 236 237 236 268.5 197 c 128,-1,41
 300 158 300 158 342 139 c 128,-1,42
 384 120 384 120 434 120 c 0,43,44
 483 120 483 120 526 138.5 c 128,-1,45
 569 157 569 157 600 196 c 128,-1,46
 631 235 631 235 649 294.5 c 128,-1,47
 667 354 667 354 667 436 c 0,48,49
 667 514 667 514 648.5 573 c 128,-1,50
 630 632 630 632 598 671 c 128,-1,51
 566 710 566 710 523 730 c 128,-1,52
 480 750 480 750 431 750 c 0,53,54
 384 750 384 750 342 730.5 c 128,-1,55
 300 711 300 711 269 672 c 128,-1,56
 238 633 238 633 220 575 c 128,-1,57
 202 517 202 517 202 441 c 0,38,39
EndSplineSet
EndChar

StartChar: h
Encoding: 104 104 523
Width: 911
Flags: W
LayerCount: 2
Fore
SplineSet
108 1173 m 1,0,-1
 252 1173 l 1,1,-1
 252 752 l 1,2,3
 353 868 353 868 506 868 c 0,4,5
 602 868 602 868 671 831.5 c 128,-1,6
 740 795 740 795 770 729 c 0,7,8
 799 665 799 665 799 539 c 2,9,-1
 799 0 l 1,10,-1
 655 0 l 1,11,-1
 655 539 l 2,12,13
 655 647 655 647 608.5 696.5 c 128,-1,14
 562 746 562 746 477 746 c 0,15,16
 445 746 445 746 414 737.5 c 128,-1,17
 383 729 383 729 356 712.5 c 128,-1,18
 329 696 329 696 308 673 c 128,-1,19
 287 650 287 650 275 621 c 0,20,21
 264 592 264 592 258 554.5 c 128,-1,22
 252 517 252 517 252 466 c 2,23,-1
 252 0 l 1,24,-1
 108 0 l 1,25,-1
 108 1173 l 1,0,-1
EndSplineSet
EndChar

StartChar: i
Encoding: 105 105 524
Width: 364
Flags: W
LayerCount: 2
Fore
SplineSet
108 1173 m 1,0,-1
 252 1173 l 1,1,-1
 252 1008 l 1,2,-1
 108 1008 l 1,3,-1
 108 1173 l 1,0,-1
108 850 m 1,4,-1
 252 850 l 1,5,-1
 252 0 l 1,6,-1
 108 0 l 1,7,-1
 108 850 l 1,4,-1
EndSplineSet
EndChar

StartChar: j
Encoding: 106 106 525
Width: 364
Flags: W
LayerCount: 2
Fore
SplineSet
106 1173 m 1,0,-1
 250 1173 l 1,1,-1
 250 1006 l 1,2,-1
 106 1006 l 1,3,-1
 106 1173 l 1,0,-1
-47 -206 m 1,4,5
 -7 -218 -7 -218 20 -218 c 0,6,7
 62 -218 62 -218 85 -189 c 0,8,9
 106 -162 106 -162 106 -42 c 2,10,-1
 106 850 l 1,11,-1
 250 850 l 1,12,-1
 250 -46 l 2,13,14
 250 -124 250 -124 240.5 -179.5 c 128,-1,15
 231 -235 231 -235 210 -266 c 0,16,17
 157 -344 157 -344 38 -344 c 0,18,19
 8 -344 8 -344 -20 -340.5 c 128,-1,20
 -48 -337 -48 -337 -75 -330 c 1,21,-1
 -47 -206 l 1,4,5
EndSplineSet
EndChar

StartChar: k
Encoding: 107 107 526
Width: 819
Flags: W
LayerCount: 2
Fore
SplineSet
108 1173 m 1,0,-1
 252 1173 l 1,1,-1
 252 505 l 1,2,-1
 593 850 l 1,3,-1
 780 850 l 1,4,-1
 455 534 l 1,5,-1
 813 0 l 1,6,-1
 636 0 l 1,7,-1
 354 434 l 1,8,-1
 252 338 l 1,9,-1
 252 0 l 1,10,-1
 108 0 l 1,11,-1
 108 1173 l 1,0,-1
EndSplineSet
EndChar

StartChar: l
Encoding: 108 108 527
Width: 364
Flags: W
LayerCount: 2
Fore
SplineSet
105 1173 m 1,0,-1
 249 1173 l 1,1,-1
 249 0 l 1,2,-1
 105 0 l 1,3,-1
 105 1173 l 1,0,-1
EndSplineSet
EndChar

StartChar: m
Encoding: 109 109 528
Width: 1365
Flags: W
LayerCount: 2
Fore
SplineSet
108 850 m 1,0,-1
 238 850 l 1,1,-1
 238 730 l 1,2,3
 277 793 277 793 343 830.5 c 128,-1,4
 409 868 409 868 494 868 c 0,5,6
 588 868 588 868 649 829 c 128,-1,7
 710 790 710 790 734 719 c 1,8,9
 785 794 785 794 850.5 831 c 128,-1,10
 916 868 916 868 996 868 c 0,11,12
 1124 868 1124 868 1192 799 c 128,-1,13
 1260 730 1260 730 1260 583 c 2,14,-1
 1260 0 l 1,15,-1
 1116 0 l 1,16,-1
 1116 536 l 2,17,18
 1116 578 1116 578 1113 608 c 128,-1,19
 1110 638 1110 638 1102.5 659 c 128,-1,20
 1095 680 1095 680 1082 694.5 c 128,-1,21
 1069 709 1069 709 1050 721 c 0,22,23
 1013 744 1013 744 965 744 c 0,24,25
 920 744 920 744 882 729.5 c 128,-1,26
 844 715 844 715 816.5 684.5 c 128,-1,27
 789 654 789 654 773 606.5 c 128,-1,28
 757 559 757 559 757 493 c 2,29,-1
 757 0 l 1,30,-1
 613 0 l 1,31,-1
 613 552 l 2,32,33
 613 650 613 650 578 697 c 128,-1,34
 543 744 543 744 462 744 c 0,35,36
 415 741 415 741 375 725.5 c 128,-1,37
 335 710 335 710 306.5 675 c 128,-1,38
 278 640 278 640 263.5 583 c 128,-1,39
 249 526 249 526 252 441 c 2,40,-1
 252 0 l 1,41,-1
 108 0 l 1,42,-1
 108 850 l 1,0,-1
EndSplineSet
EndChar

StartChar: n
Encoding: 110 110 529
Width: 911
Flags: W
LayerCount: 2
Fore
SplineSet
108 850 m 1,0,-1
 238 850 l 1,1,-1
 238 729 l 1,2,3
 331 868 331 868 508 868 c 0,4,5
 569 867 569 867 618.5 852 c 128,-1,6
 668 837 668 837 704 810 c 128,-1,7
 740 783 740 783 762 745 c 128,-1,8
 784 707 784 707 790 662 c 0,9,10
 793 642 793 642 795.5 607.5 c 128,-1,11
 798 573 798 573 798 522 c 2,12,-1
 798 0 l 1,13,-1
 654 0 l 1,14,-1
 654 516 l 2,15,16
 654 560 654 560 650.5 592.5 c 128,-1,17
 647 625 647 625 638 648.5 c 128,-1,18
 629 672 629 672 614.5 688.5 c 128,-1,19
 600 705 600 705 578 718 c 0,20,21
 557 732 557 732 532 738 c 128,-1,22
 507 744 507 744 478 744 c 0,23,24
 385 744 385 744 318 685 c 0,25,26
 252 628 252 628 252 464 c 2,27,-1
 252 0 l 1,28,-1
 108 0 l 1,29,-1
 108 850 l 1,0,-1
EndSplineSet
EndChar

StartChar: o
Encoding: 111 111 530
Width: 911
Flags: W
LayerCount: 2
Fore
SplineSet
54 424 m 0,0,1
 54 659 54 659 185 775 c 0,2,3
 294 868 294 868 452 868 c 0,4,5
 628 868 628 868 739 754 c 0,6,7
 850 638 850 638 850 438 c 0,8,9
 850 356 850 356 837.5 292 c 128,-1,10
 825 228 825 228 800.5 179.5 c 128,-1,11
 776 131 776 131 740 95 c 128,-1,12
 704 59 704 59 657 33 c 0,13,14
 562 -20 562 -20 452 -20 c 0,15,16
 275 -20 275 -20 164 95 c 0,17,18
 54 209 54 209 54 424 c 0,0,1
203 424 m 0,19,20
 203 343 203 343 221.5 282 c 128,-1,21
 240 221 240 221 273.5 180.5 c 128,-1,22
 307 140 307 140 352.5 120 c 128,-1,23
 398 100 398 100 452 100 c 256,24,25
 506 100 506 100 552 120 c 128,-1,26
 598 140 598 140 631.5 181 c 128,-1,27
 665 222 665 222 684 284 c 128,-1,28
 703 346 703 346 703 430 c 0,29,30
 703 508 703 508 683.5 568 c 128,-1,31
 664 628 664 628 630.5 668.5 c 128,-1,32
 597 709 597 709 551 729.5 c 128,-1,33
 505 750 505 750 452 750 c 0,34,35
 398 750 398 750 352.5 729.5 c 128,-1,36
 307 709 307 709 273.5 668.5 c 128,-1,37
 240 628 240 628 221.5 567 c 128,-1,38
 203 506 203 506 203 424 c 0,19,20
EndSplineSet
EndChar

StartChar: p
Encoding: 112 112 531
Width: 911
Flags: W
LayerCount: 2
Fore
SplineSet
108 850 m 1,0,-1
 239 850 l 1,1,-1
 239 739 l 1,2,3
 285 805 285 805 343.5 836.5 c 128,-1,4
 402 868 402 868 485 868 c 0,5,6
 568 871 568 871 635 837.5 c 128,-1,7
 702 804 702 804 749.5 744 c 128,-1,8
 797 684 797 684 822 603 c 128,-1,9
 847 522 847 522 846 431 c 0,10,11
 846 366 846 366 834 307 c 128,-1,12
 822 248 822 248 799 197 c 128,-1,13
 776 146 776 146 741.5 105 c 128,-1,14
 707 64 707 64 662 36 c 0,15,16
 575 -20 575 -20 475 -20 c 0,17,18
 402 -20 402 -20 345 10.5 c 128,-1,19
 288 41 288 41 252 89 c 1,20,-1
 252 -326 l 1,21,-1
 108 -326 l 1,22,-1
 108 850 l 1,0,-1
239 419 m 0,23,24
 239 338 239 338 257 278 c 128,-1,25
 275 218 275 218 305.5 178.5 c 128,-1,26
 336 139 336 139 377.5 119.5 c 128,-1,27
 419 100 419 100 466 100 c 0,28,29
 514 100 514 100 556 120 c 128,-1,30
 598 140 598 140 629.5 181 c 128,-1,31
 661 222 661 222 679.5 284.5 c 128,-1,32
 698 347 698 347 698 433 c 0,33,34
 698 514 698 514 680 574.5 c 128,-1,35
 662 635 662 635 631.5 675 c 128,-1,36
 601 715 601 715 559.5 735 c 128,-1,37
 518 755 518 755 472 755 c 0,38,39
 381 755 381 755 310 669 c 256,40,41
 239 583 239 583 239 419 c 0,23,24
EndSplineSet
EndChar

StartChar: q
Encoding: 113 113 532
Width: 911
Flags: W
LayerCount: 2
Fore
SplineSet
649 90 m 1,0,1
 632 66 632 66 608.5 46 c 128,-1,2
 585 26 585 26 556 11 c 128,-1,3
 527 -4 527 -4 494.5 -12 c 128,-1,4
 462 -20 462 -20 428 -20 c 0,5,6
 277 -20 277 -20 166 102 c 0,7,8
 58 222 58 222 58 433 c 0,9,10
 55 530 55 530 81.5 611 c 128,-1,11
 108 692 108 692 157 750 c 128,-1,12
 206 808 206 808 272.5 839.5 c 128,-1,13
 339 871 339 871 416 868 c 0,14,15
 573 868 573 868 663 736 c 1,16,-1
 663 850 l 1,17,-1
 793 850 l 1,18,-1
 793 -326 l 1,19,-1
 649 -326 l 1,20,-1
 649 90 l 1,0,1
205 428 m 0,21,22
 205 346 205 346 223.5 284.5 c 128,-1,23
 242 223 242 223 273.5 182 c 128,-1,24
 305 141 305 141 348 120.5 c 128,-1,25
 391 100 391 100 439 100 c 0,26,27
 485 100 485 100 526 119.5 c 128,-1,28
 567 139 567 139 597.5 178 c 128,-1,29
 628 217 628 217 645.5 276 c 128,-1,30
 663 335 663 335 663 414 c 0,31,32
 663 584 663 584 593 669 c 0,33,34
 524 755 524 755 430 755 c 0,35,36
 383 755 383 755 342 735.5 c 128,-1,37
 301 716 301 716 270.5 675.5 c 128,-1,38
 240 635 240 635 222.5 573.5 c 128,-1,39
 205 512 205 512 205 428 c 0,21,22
EndSplineSet
EndChar

StartChar: r
Encoding: 114 114 533
Width: 546
Flags: W
LayerCount: 2
Fore
SplineSet
106 850 m 1,0,-1
 236 850 l 1,1,-1
 236 721 l 1,2,3
 261 766 261 766 283.5 794.5 c 128,-1,4
 306 823 306 823 328 839.5 c 128,-1,5
 350 856 350 856 372.5 862 c 128,-1,6
 395 868 395 868 419 868 c 0,7,8
 457 868 457 868 494 857 c 128,-1,9
 531 846 531 846 569 822 c 1,10,-1
 518 688 l 1,11,12
 492 705 492 705 465.5 712 c 128,-1,13
 439 719 439 719 413 719 c 0,14,15
 365 719 365 719 327.5 691.5 c 128,-1,16
 290 664 290 664 274 613 c 0,17,18
 263 575 263 575 256.5 532.5 c 128,-1,19
 250 490 250 490 250 444 c 2,20,-1
 250 0 l 1,21,-1
 106 0 l 1,22,-1
 106 850 l 1,0,-1
EndSplineSet
EndChar

